<?xml version="1.0" encoding="UTF-8" standalone="no"?>
<!DOCTYPE svg PUBLIC "-//W3C//DTD SVG 1.1//EN"
 "http://www.w3.org/Graphics/SVG/1.1/DTD/svg11.dtd">
<!-- Generated by graphviz version 2.38.0 (20140413.2041)
 -->
<!-- Title: blfwk::FlashEraseAll Pages: 1 -->
<svg width="148pt" height="220pt"
 viewBox="0.00 0.00 147.50 220.00" xmlns="http://www.w3.org/2000/svg" xmlns:xlink="http://www.w3.org/1999/xlink">
<g id="graph0" class="graph" transform="scale(1 1) rotate(0) translate(4 216)">
<title>blfwk::FlashEraseAll</title>
<polygon fill="white" stroke="none" points="-4,4 -4,-216 143.5,-216 143.5,4 -4,4"/>
<!-- Node1 -->
<g id="node1" class="node"><title>Node1</title>
<polygon fill="#bfbfbf" stroke="black" points="0,-0.5 0,-19.5 105,-19.5 105,-0.5 0,-0.5"/>
<text text-anchor="middle" x="52.5" y="-7.5" font-family="Helvetica,sans-Serif" font-size="10.00">blfwk::FlashEraseAll</text>
</g>
<!-- Node2 -->
<g id="node2" class="node"><title>Node2</title>
<g id="a_node2"><a xlink:href="group__host__commands.html#classblfwk_1_1_command" target="_top" xlink:title="Represents a bootloader command. ">
<polygon fill="white" stroke="black" points="8,-57.5 8,-76.5 97,-76.5 97,-57.5 8,-57.5"/>
<text text-anchor="middle" x="52.5" y="-64.5" font-family="Helvetica,sans-Serif" font-size="10.00">blfwk::Command</text>
</a>
</g>
</g>
<!-- Node2&#45;&gt;Node1 -->
<g id="edge1" class="edge"><title>Node2&#45;&gt;Node1</title>
<path fill="none" stroke="midnightblue" d="M52.5,-47.1166C52.5,-37.8173 52.5,-27.0557 52.5,-19.7149"/>
<polygon fill="midnightblue" stroke="midnightblue" points="49.0001,-47.4062 52.5,-57.4063 56.0001,-47.4063 49.0001,-47.4062"/>
</g>
<!-- Node3 -->
<g id="node3" class="node"><title>Node3</title>
<g id="a_node3"><a xlink:title="STL class. ">
<polygon fill="white" stroke="#bfbfbf" points="22.5,-124.5 22.5,-143.5 82.5,-143.5 82.5,-124.5 22.5,-124.5"/>
<text text-anchor="middle" x="52.5" y="-131.5" font-family="Helvetica,sans-Serif" font-size="10.00">std::string</text>
</a>
</g>
</g>
<!-- Node3&#45;&gt;Node2 -->
<g id="edge2" class="edge"><title>Node3&#45;&gt;Node2</title>
<path fill="none" stroke="#9a32cd" stroke-dasharray="5,2" d="M52.5,-114.037C52.5,-101.67 52.5,-86.1198 52.5,-76.6273"/>
<polygon fill="#9a32cd" stroke="#9a32cd" points="49.0001,-114.234 52.5,-124.234 56.0001,-114.234 49.0001,-114.234"/>
<text text-anchor="middle" x="96" y="-98" font-family="Helvetica,sans-Serif" font-size="10.00"> m_responseDetails</text>
</g>
<!-- Node4 -->
<g id="node4" class="node"><title>Node4</title>
<g id="a_node4"><a xlink:title="STL class. ">
<polygon fill="white" stroke="#bfbfbf" points="5,-181.5 5,-211.5 100,-211.5 100,-181.5 5,-181.5"/>
<text text-anchor="start" x="13" y="-199.5" font-family="Helvetica,sans-Serif" font-size="10.00">std::basic_string&lt;</text>
<text text-anchor="middle" x="52.5" y="-188.5" font-family="Helvetica,sans-Serif" font-size="10.00"> char &gt;</text>
</a>
</g>
</g>
<!-- Node4&#45;&gt;Node3 -->
<g id="edge3" class="edge"><title>Node4&#45;&gt;Node3</title>
<path fill="none" stroke="midnightblue" d="M52.5,-171.352C52.5,-161.513 52.5,-150.775 52.5,-143.54"/>
<polygon fill="midnightblue" stroke="midnightblue" points="49.0001,-171.468 52.5,-181.468 56.0001,-171.468 49.0001,-171.468"/>
</g>
</g>
</svg>
