<?xml version="1.0" encoding="UTF-8" standalone="no"?>
<!DOCTYPE svg PUBLIC "-//W3C//DTD SVG 1.1//EN"
 "http://www.w3.org/Graphics/SVG/1.1/DTD/svg11.dtd">
<!-- Generated by graphviz version 2.38.0 (20140413.2041)
 -->
<!-- Title: blfwk::Peripheral Pages: 1 -->
<svg width="267pt" height="140pt"
 viewBox="0.00 0.00 267.00 140.00" xmlns="http://www.w3.org/2000/svg" xmlns:xlink="http://www.w3.org/1999/xlink">
<g id="graph0" class="graph" transform="scale(1 1) rotate(0) translate(4 136)">
<title>blfwk::Peripheral</title>
<polygon fill="white" stroke="none" points="-4,4 -4,-136 263,-136 263,4 -4,4"/>
<!-- Node1 -->
<g id="node1" class="node"><title>Node1</title>
<polygon fill="#bfbfbf" stroke="black" points="89.5,-112.5 89.5,-131.5 177.5,-131.5 177.5,-112.5 89.5,-112.5"/>
<text text-anchor="middle" x="133.5" y="-119.5" font-family="Helvetica,sans-Serif" font-size="10.00">blfwk::Peripheral</text>
</g>
<!-- Node2 -->
<g id="node2" class="node"><title>Node2</title>
<g id="a_node2"><a xlink:href="group__uart__peripheral.html#classblfwk_1_1_uart_peripheral" target="_top" xlink:title="Peripheral that talks to the target device over COM port hardware. ">
<polygon fill="white" stroke="black" points="15.5,-56.5 15.5,-75.5 121.5,-75.5 121.5,-56.5 15.5,-56.5"/>
<text text-anchor="middle" x="68.5" y="-63.5" font-family="Helvetica,sans-Serif" font-size="10.00">blfwk::UartPeripheral</text>
</a>
</g>
</g>
<!-- Node1&#45;&gt;Node2 -->
<g id="edge1" class="edge"><title>Node1&#45;&gt;Node2</title>
<path fill="none" stroke="midnightblue" d="M115.227,-105.82C103.582,-96.1452 88.9005,-83.9481 79.1334,-75.8339"/>
<polygon fill="midnightblue" stroke="midnightblue" points="113.128,-108.626 123.057,-112.324 117.601,-103.242 113.128,-108.626"/>
</g>
<!-- Node4 -->
<g id="node4" class="node"><title>Node4</title>
<g id="a_node4"><a xlink:href="group__host__usb__hid__peripheral.html#classblfwk_1_1_usb_hid_peripheral" target="_top" xlink:title="Represents a USB HID peripheral. ">
<polygon fill="white" stroke="black" points="140,-56.5 140,-75.5 259,-75.5 259,-56.5 140,-56.5"/>
<text text-anchor="middle" x="199.5" y="-63.5" font-family="Helvetica,sans-Serif" font-size="10.00">blfwk::UsbHidPeripheral</text>
</a>
</g>
</g>
<!-- Node1&#45;&gt;Node4 -->
<g id="edge3" class="edge"><title>Node1&#45;&gt;Node4</title>
<path fill="none" stroke="midnightblue" d="M152.054,-105.82C163.878,-96.1452 178.786,-83.9481 188.703,-75.8339"/>
<polygon fill="midnightblue" stroke="midnightblue" points="149.627,-103.283 144.104,-112.324 154.06,-108.7 149.627,-103.283"/>
</g>
<!-- Node3 -->
<g id="node3" class="node"><title>Node3</title>
<g id="a_node3"><a xlink:href="group__bus__pal__peripheral.html#classblfwk_1_1_bus_pal_uart_peripheral" target="_top" xlink:title="Peripheral that talks to the target device over BusPal UART hardware. ">
<polygon fill="white" stroke="black" points="0,-0.5 0,-19.5 137,-19.5 137,-0.5 0,-0.5"/>
<text text-anchor="middle" x="68.5" y="-7.5" font-family="Helvetica,sans-Serif" font-size="10.00">blfwk::BusPalUartPeripheral</text>
</a>
</g>
</g>
<!-- Node2&#45;&gt;Node3 -->
<g id="edge2" class="edge"><title>Node2&#45;&gt;Node3</title>
<path fill="none" stroke="midnightblue" d="M68.5,-45.8045C68.5,-36.9102 68.5,-26.7798 68.5,-19.7511"/>
<polygon fill="midnightblue" stroke="midnightblue" points="65.0001,-46.083 68.5,-56.083 72.0001,-46.083 65.0001,-46.083"/>
</g>
</g>
</svg>
