<?xml version="1.0" encoding="UTF-8" standalone="no"?>
<!DOCTYPE svg PUBLIC "-//W3C//DTD SVG 1.1//EN"
 "http://www.w3.org/Graphics/SVG/1.1/DTD/svg11.dtd">
<!-- Generated by graphviz version 2.38.0 (20140413.2041)
 -->
<!-- Title: blfwk::Command Pages: 1 -->
<svg width="279pt" height="636pt"
 viewBox="0.00 0.00 279.00 636.00" xmlns="http://www.w3.org/2000/svg" xmlns:xlink="http://www.w3.org/1999/xlink">
<g id="graph0" class="graph" transform="scale(1 1) rotate(0) translate(4 632)">
<title>blfwk::Command</title>
<polygon fill="white" stroke="none" points="-4,4 -4,-632 275,-632 275,4 -4,4"/>
<!-- Node1 -->
<g id="node1" class="node"><title>Node1</title>
<polygon fill="#bfbfbf" stroke="black" points="0,-304.5 0,-323.5 89,-323.5 89,-304.5 0,-304.5"/>
<text text-anchor="middle" x="44.5" y="-311.5" font-family="Helvetica,sans-Serif" font-size="10.00">blfwk::Command</text>
</g>
<!-- Node2 -->
<g id="node2" class="node"><title>Node2</title>
<g id="a_node2"><a xlink:href="group__host__commands.html#classblfwk_1_1_call" target="_top" xlink:title="Represents the bootloader Call command. ">
<polygon fill="white" stroke="black" points="167.5,-608.5 167.5,-627.5 228.5,-627.5 228.5,-608.5 167.5,-608.5"/>
<text text-anchor="middle" x="198" y="-615.5" font-family="Helvetica,sans-Serif" font-size="10.00">blfwk::Call</text>
</a>
</g>
</g>
<!-- Node1&#45;&gt;Node2 -->
<g id="edge1" class="edge"><title>Node1&#45;&gt;Node2</title>
<path fill="none" stroke="midnightblue" d="M44.7946,-333.574C44.0684,-384.905 49.5094,-524.561 125,-599 136.138,-609.983 152.833,-614.829 167.342,-616.885"/>
<polygon fill="midnightblue" stroke="midnightblue" points="48.2951,-333.591 45.0376,-323.509 41.2972,-333.422 48.2951,-333.591"/>
</g>
<!-- Node3 -->
<g id="node3" class="node"><title>Node3</title>
<g id="a_node3"><a xlink:href="group__host__commands.html#classblfwk_1_1_configure_quad_spi" target="_top" xlink:title="Represents the bootloader Configure QuadSpi command. ">
<polygon fill="white" stroke="black" points="137,-570.5 137,-589.5 259,-589.5 259,-570.5 137,-570.5"/>
<text text-anchor="middle" x="198" y="-577.5" font-family="Helvetica,sans-Serif" font-size="10.00">blfwk::ConfigureQuadSpi</text>
</a>
</g>
</g>
<!-- Node1&#45;&gt;Node3 -->
<g id="edge2" class="edge"><title>Node1&#45;&gt;Node3</title>
<path fill="none" stroke="midnightblue" d="M45.7958,-333.756C47.6058,-380.431 58.8564,-498.296 125,-561 129.034,-564.824 133.745,-567.9 138.79,-570.371"/>
<polygon fill="midnightblue" stroke="midnightblue" points="49.2938,-333.632 45.5152,-323.734 42.2966,-333.828 49.2938,-333.632"/>
</g>
<!-- Node4 -->
<g id="node4" class="node"><title>Node4</title>
<g id="a_node4"><a xlink:href="group__host__commands.html#classblfwk_1_1_execute" target="_top" xlink:title="Represents the bootloader Execute command. ">
<polygon fill="white" stroke="black" points="158,-532.5 158,-551.5 238,-551.5 238,-532.5 158,-532.5"/>
<text text-anchor="middle" x="198" y="-539.5" font-family="Helvetica,sans-Serif" font-size="10.00">blfwk::Execute</text>
</a>
</g>
</g>
<!-- Node1&#45;&gt;Node4 -->
<g id="edge3" class="edge"><title>Node1&#45;&gt;Node4</title>
<path fill="none" stroke="midnightblue" d="M47.1321,-333.759C51.6433,-375.229 68.0205,-471.734 125,-523 134.034,-531.128 146.141,-535.849 157.847,-538.569"/>
<polygon fill="midnightblue" stroke="midnightblue" points="50.5966,-333.222 46.1506,-323.605 43.6291,-333.896 50.5966,-333.222"/>
</g>
<!-- Node5 -->
<g id="node5" class="node"><title>Node5</title>
<g id="a_node5"><a xlink:href="group__host__commands.html#classblfwk_1_1_fill_memory" target="_top" xlink:title="Represents the bootloader Fill Memory command. ">
<polygon fill="white" stroke="black" points="152,-494.5 152,-513.5 244,-513.5 244,-494.5 152,-494.5"/>
<text text-anchor="middle" x="198" y="-501.5" font-family="Helvetica,sans-Serif" font-size="10.00">blfwk::FillMemory</text>
</a>
</g>
</g>
<!-- Node1&#45;&gt;Node5 -->
<g id="edge4" class="edge"><title>Node1&#45;&gt;Node5</title>
<path fill="none" stroke="midnightblue" d="M49.069,-334.053C56.5249,-369.911 77.1969,-444.996 125,-485 132.634,-491.389 142.19,-495.653 151.82,-498.493"/>
<polygon fill="midnightblue" stroke="midnightblue" points="52.4365,-333.034 47.095,-323.884 45.5648,-334.368 52.4365,-333.034"/>
</g>
<!-- Node6 -->
<g id="node6" class="node"><title>Node6</title>
<g id="a_node6"><a xlink:href="group__host__commands.html#classblfwk_1_1_flash_erase_all" target="_top" xlink:title="Represents the bootloader Flash Erase All command. ">
<polygon fill="white" stroke="black" points="145.5,-456.5 145.5,-475.5 250.5,-475.5 250.5,-456.5 145.5,-456.5"/>
<text text-anchor="middle" x="198" y="-463.5" font-family="Helvetica,sans-Serif" font-size="10.00">blfwk::FlashEraseAll</text>
</a>
</g>
</g>
<!-- Node1&#45;&gt;Node6 -->
<g id="edge5" class="edge"><title>Node1&#45;&gt;Node6</title>
<path fill="none" stroke="midnightblue" d="M51.6821,-333.258C62.0499,-362.412 85.7527,-417.471 125,-447 130.992,-451.508 137.964,-454.949 145.166,-457.574"/>
<polygon fill="midnightblue" stroke="midnightblue" points="54.9941,-332.126 48.4616,-323.785 48.3665,-334.379 54.9941,-332.126"/>
</g>
<!-- Node7 -->
<g id="node7" class="node"><title>Node7</title>
<g id="a_node7"><a xlink:href="group__host__commands.html#classblfwk_1_1_flash_erase_all_unsecure" target="_top" xlink:title="Represents the bootloader Flash Erase All Unsecure command. ">
<polygon fill="white" stroke="black" points="125,-418.5 125,-437.5 271,-437.5 271,-418.5 125,-418.5"/>
<text text-anchor="middle" x="198" y="-425.5" font-family="Helvetica,sans-Serif" font-size="10.00">blfwk::FlashEraseAllUnsecure</text>
</a>
</g>
</g>
<!-- Node1&#45;&gt;Node7 -->
<g id="edge6" class="edge"><title>Node1&#45;&gt;Node7</title>
<path fill="none" stroke="midnightblue" d="M56.1513,-332.666C69.4724,-354.309 94.304,-389.498 125,-409 131.111,-412.882 137.993,-415.975 145.018,-418.439"/>
<polygon fill="midnightblue" stroke="midnightblue" points="58.9842,-330.582 50.8611,-323.781 52.9695,-334.163 58.9842,-330.582"/>
</g>
<!-- Node8 -->
<g id="node8" class="node"><title>Node8</title>
<g id="a_node8"><a xlink:href="group__host__commands.html#classblfwk_1_1_flash_erase_region" target="_top" xlink:title="Represents the bootloader Flash Erase command. ">
<polygon fill="white" stroke="black" points="136,-380.5 136,-399.5 260,-399.5 260,-380.5 136,-380.5"/>
<text text-anchor="middle" x="198" y="-387.5" font-family="Helvetica,sans-Serif" font-size="10.00">blfwk::FlashEraseRegion</text>
</a>
</g>
</g>
<!-- Node1&#45;&gt;Node8 -->
<g id="edge7" class="edge"><title>Node1&#45;&gt;Node8</title>
<path fill="none" stroke="midnightblue" d="M63.9746,-330.247C79.3483,-342.996 102.312,-360.318 125,-371 133.071,-374.8 142.021,-377.931 150.791,-380.479"/>
<polygon fill="midnightblue" stroke="midnightblue" points="66.1543,-327.506 56.2645,-323.706 61.6257,-332.844 66.1543,-327.506"/>
</g>
<!-- Node9 -->
<g id="node9" class="node"><title>Node9</title>
<g id="a_node9"><a xlink:href="group__host__commands.html#classblfwk_1_1_flash_program_once" target="_top" xlink:title="Represents the bootloader Flash Program Once command. ">
<polygon fill="white" stroke="black" points="134,-342.5 134,-361.5 262,-361.5 262,-342.5 134,-342.5"/>
<text text-anchor="middle" x="198" y="-349.5" font-family="Helvetica,sans-Serif" font-size="10.00">blfwk::FlashProgramOnce</text>
</a>
</g>
</g>
<!-- Node1&#45;&gt;Node9 -->
<g id="edge8" class="edge"><title>Node1&#45;&gt;Node9</title>
<path fill="none" stroke="midnightblue" d="M93.5016,-326.04C114.667,-331.349 139.186,-337.499 159.045,-342.48"/>
<polygon fill="midnightblue" stroke="midnightblue" points="94.2809,-322.627 83.7298,-323.589 92.5779,-329.417 94.2809,-322.627"/>
</g>
<!-- Node10 -->
<g id="node10" class="node"><title>Node10</title>
<g id="a_node10"><a xlink:href="group__host__commands.html#classblfwk_1_1_flash_read_once" target="_top" xlink:title="Represents the bootloader Flash Read Once command. ">
<polygon fill="white" stroke="black" points="141,-304.5 141,-323.5 255,-323.5 255,-304.5 141,-304.5"/>
<text text-anchor="middle" x="198" y="-311.5" font-family="Helvetica,sans-Serif" font-size="10.00">blfwk::FlashReadOnce</text>
</a>
</g>
</g>
<!-- Node1&#45;&gt;Node10 -->
<g id="edge9" class="edge"><title>Node1&#45;&gt;Node10</title>
<path fill="none" stroke="midnightblue" d="M99.378,-314C112.828,-314 127.285,-314 140.843,-314"/>
<polygon fill="midnightblue" stroke="midnightblue" points="99.3201,-310.5 89.3201,-314 99.32,-317.5 99.3201,-310.5"/>
</g>
<!-- Node11 -->
<g id="node11" class="node"><title>Node11</title>
<g id="a_node11"><a xlink:href="group__host__commands.html#classblfwk_1_1_flash_read_resource" target="_top" xlink:title="Represents the bootloader Read Resource command. ">
<polygon fill="white" stroke="black" points="132,-266.5 132,-285.5 264,-285.5 264,-266.5 132,-266.5"/>
<text text-anchor="middle" x="198" y="-273.5" font-family="Helvetica,sans-Serif" font-size="10.00">blfwk::FlashReadResource</text>
</a>
</g>
</g>
<!-- Node1&#45;&gt;Node11 -->
<g id="edge10" class="edge"><title>Node1&#45;&gt;Node11</title>
<path fill="none" stroke="midnightblue" d="M93.5016,-301.96C114.667,-296.651 139.186,-290.501 159.045,-285.52"/>
<polygon fill="midnightblue" stroke="midnightblue" points="92.5779,-298.583 83.7298,-304.411 94.2809,-305.373 92.5779,-298.583"/>
</g>
<!-- Node12 -->
<g id="node12" class="node"><title>Node12</title>
<g id="a_node12"><a xlink:href="group__host__commands.html#classblfwk_1_1_flash_security_disable" target="_top" xlink:title="Represents the bootloader Flash Security Disable command. ">
<polygon fill="white" stroke="black" points="129.5,-228.5 129.5,-247.5 266.5,-247.5 266.5,-228.5 129.5,-228.5"/>
<text text-anchor="middle" x="198" y="-235.5" font-family="Helvetica,sans-Serif" font-size="10.00">blfwk::FlashSecurityDisable</text>
</a>
</g>
</g>
<!-- Node1&#45;&gt;Node12 -->
<g id="edge11" class="edge"><title>Node1&#45;&gt;Node12</title>
<path fill="none" stroke="midnightblue" d="M63.9746,-297.753C79.3483,-285.004 102.312,-267.682 125,-257 133.071,-253.2 142.021,-250.069 150.791,-247.521"/>
<polygon fill="midnightblue" stroke="midnightblue" points="61.6257,-295.156 56.2645,-304.294 66.1543,-300.494 61.6257,-295.156"/>
</g>
<!-- Node13 -->
<g id="node13" class="node"><title>Node13</title>
<g id="a_node13"><a xlink:href="group__host__commands.html#classblfwk_1_1_get_property" target="_top" xlink:title="Represents the bootloader GetProperty command. ">
<polygon fill="white" stroke="black" points="149.5,-190.5 149.5,-209.5 246.5,-209.5 246.5,-190.5 149.5,-190.5"/>
<text text-anchor="middle" x="198" y="-197.5" font-family="Helvetica,sans-Serif" font-size="10.00">blfwk::GetProperty</text>
</a>
</g>
</g>
<!-- Node1&#45;&gt;Node13 -->
<g id="edge12" class="edge"><title>Node1&#45;&gt;Node13</title>
<path fill="none" stroke="midnightblue" d="M56.1513,-295.334C69.4724,-273.691 94.304,-238.502 125,-219 132.311,-214.355 140.727,-210.84 149.168,-208.182"/>
<polygon fill="midnightblue" stroke="midnightblue" points="52.9695,-293.837 50.8611,-304.219 58.9842,-297.418 52.9695,-293.837"/>
</g>
<!-- Node14 -->
<g id="node14" class="node"><title>Node14</title>
<g id="a_node14"><a xlink:href="group__host__commands.html#classblfwk_1_1_read_memory" target="_top" xlink:title="Represents the bootloader Read Memory command. ">
<polygon fill="white" stroke="black" points="147,-152.5 147,-171.5 249,-171.5 249,-152.5 147,-152.5"/>
<text text-anchor="middle" x="198" y="-159.5" font-family="Helvetica,sans-Serif" font-size="10.00">blfwk::ReadMemory</text>
</a>
</g>
</g>
<!-- Node1&#45;&gt;Node14 -->
<g id="edge13" class="edge"><title>Node1&#45;&gt;Node14</title>
<path fill="none" stroke="midnightblue" d="M51.6821,-294.742C62.0499,-265.588 85.7527,-210.529 125,-181 131.405,-176.181 138.931,-172.582 146.658,-169.894"/>
<polygon fill="midnightblue" stroke="midnightblue" points="48.3665,-293.621 48.4616,-304.215 54.9941,-295.874 48.3665,-293.621"/>
</g>
<!-- Node15 -->
<g id="node15" class="node"><title>Node15</title>
<g id="a_node15"><a xlink:href="group__host__commands.html#classblfwk_1_1_receive_sb_file" target="_top" xlink:title="Represents the bootloader Receive SB File command. ">
<polygon fill="white" stroke="black" points="145,-114.5 145,-133.5 251,-133.5 251,-114.5 145,-114.5"/>
<text text-anchor="middle" x="198" y="-121.5" font-family="Helvetica,sans-Serif" font-size="10.00">blfwk::ReceiveSbFile</text>
</a>
</g>
</g>
<!-- Node1&#45;&gt;Node15 -->
<g id="edge14" class="edge"><title>Node1&#45;&gt;Node15</title>
<path fill="none" stroke="midnightblue" d="M49.069,-293.947C56.5249,-258.089 77.1969,-183.004 125,-143 130.75,-138.188 137.591,-134.581 144.732,-131.88"/>
<polygon fill="midnightblue" stroke="midnightblue" points="45.5648,-293.632 47.095,-304.116 52.4365,-294.966 45.5648,-293.632"/>
</g>
<!-- Node16 -->
<g id="node16" class="node"><title>Node16</title>
<g id="a_node16"><a xlink:href="group__host__commands.html#classblfwk_1_1_reset" target="_top" xlink:title="Represents the bootloader Reset command. ">
<polygon fill="white" stroke="black" points="163,-76.5 163,-95.5 233,-95.5 233,-76.5 163,-76.5"/>
<text text-anchor="middle" x="198" y="-83.5" font-family="Helvetica,sans-Serif" font-size="10.00">blfwk::Reset</text>
</a>
</g>
</g>
<!-- Node1&#45;&gt;Node16 -->
<g id="edge15" class="edge"><title>Node1&#45;&gt;Node16</title>
<path fill="none" stroke="midnightblue" d="M47.1321,-294.241C51.6433,-252.771 68.0205,-156.266 125,-105 135.283,-95.7479 149.549,-90.9107 162.671,-88.4142"/>
<polygon fill="midnightblue" stroke="midnightblue" points="43.6291,-294.104 46.1506,-304.395 50.5966,-294.778 43.6291,-294.104"/>
</g>
<!-- Node17 -->
<g id="node17" class="node"><title>Node17</title>
<g id="a_node17"><a xlink:href="group__host__commands.html#classblfwk_1_1_set_property" target="_top" xlink:title="Represents the bootloader GetProperty command. ">
<polygon fill="white" stroke="black" points="150,-38.5 150,-57.5 246,-57.5 246,-38.5 150,-38.5"/>
<text text-anchor="middle" x="198" y="-45.5" font-family="Helvetica,sans-Serif" font-size="10.00">blfwk::SetProperty</text>
</a>
</g>
</g>
<!-- Node1&#45;&gt;Node17 -->
<g id="edge16" class="edge"><title>Node1&#45;&gt;Node17</title>
<path fill="none" stroke="midnightblue" d="M45.7958,-294.244C47.6058,-247.569 58.8564,-129.704 125,-67 131.849,-60.5072 140.646,-56.1724 149.724,-53.2928"/>
<polygon fill="midnightblue" stroke="midnightblue" points="42.2966,-294.172 45.5152,-304.266 49.2938,-294.368 42.2966,-294.172"/>
</g>
<!-- Node18 -->
<g id="node18" class="node"><title>Node18</title>
<g id="a_node18"><a xlink:href="group__host__commands.html#classblfwk_1_1_write_memory" target="_top" xlink:title="Represents the bootloader Write Memory command. ">
<polygon fill="white" stroke="black" points="146.5,-0.5 146.5,-19.5 249.5,-19.5 249.5,-0.5 146.5,-0.5"/>
<text text-anchor="middle" x="198" y="-7.5" font-family="Helvetica,sans-Serif" font-size="10.00">blfwk::WriteMemory</text>
</a>
</g>
</g>
<!-- Node1&#45;&gt;Node18 -->
<g id="edge17" class="edge"><title>Node1&#45;&gt;Node18</title>
<path fill="none" stroke="midnightblue" d="M44.7946,-294.426C44.0684,-243.095 49.5094,-103.439 125,-29 130.891,-23.1907 138.337,-19.0985 146.192,-16.228"/>
<polygon fill="midnightblue" stroke="midnightblue" points="41.2972,-294.578 45.0376,-304.491 48.2951,-294.409 41.2972,-294.578"/>
</g>
</g>
</svg>
