<?xml version="1.0" encoding="UTF-8" standalone="no"?>
<!DOCTYPE svg PUBLIC "-//W3C//DTD SVG 1.1//EN"
 "http://www.w3.org/Graphics/SVG/1.1/DTD/svg11.dtd">
<!-- Generated by graphviz version 2.38.0 (20140413.2041)
 -->
<!-- Title: blfwk::ConfigureQuadSpi Pages: 1 -->
<svg width="156pt" height="220pt"
 viewBox="0.00 0.00 156.00 220.00" xmlns="http://www.w3.org/2000/svg" xmlns:xlink="http://www.w3.org/1999/xlink">
<g id="graph0" class="graph" transform="scale(1 1) rotate(0) translate(4 216)">
<title>blfwk::ConfigureQuadSpi</title>
<polygon fill="white" stroke="none" points="-4,4 -4,-216 152,-216 152,4 -4,4"/>
<!-- Node1 -->
<g id="node1" class="node"><title>Node1</title>
<polygon fill="#bfbfbf" stroke="black" points="0,-0.5 0,-19.5 122,-19.5 122,-0.5 0,-0.5"/>
<text text-anchor="middle" x="61" y="-7.5" font-family="Helvetica,sans-Serif" font-size="10.00">blfwk::ConfigureQuadSpi</text>
</g>
<!-- Node2 -->
<g id="node2" class="node"><title>Node2</title>
<g id="a_node2"><a xlink:href="group__host__commands.html#classblfwk_1_1_command" target="_top" xlink:title="Represents a bootloader command. ">
<polygon fill="white" stroke="black" points="16.5,-57.5 16.5,-76.5 105.5,-76.5 105.5,-57.5 16.5,-57.5"/>
<text text-anchor="middle" x="61" y="-64.5" font-family="Helvetica,sans-Serif" font-size="10.00">blfwk::Command</text>
</a>
</g>
</g>
<!-- Node2&#45;&gt;Node1 -->
<g id="edge1" class="edge"><title>Node2&#45;&gt;Node1</title>
<path fill="none" stroke="midnightblue" d="M61,-47.1166C61,-37.8173 61,-27.0557 61,-19.7149"/>
<polygon fill="midnightblue" stroke="midnightblue" points="57.5001,-47.4062 61,-57.4063 64.5001,-47.4063 57.5001,-47.4062"/>
</g>
<!-- Node3 -->
<g id="node3" class="node"><title>Node3</title>
<g id="a_node3"><a xlink:title="STL class. ">
<polygon fill="white" stroke="#bfbfbf" points="31,-124.5 31,-143.5 91,-143.5 91,-124.5 31,-124.5"/>
<text text-anchor="middle" x="61" y="-131.5" font-family="Helvetica,sans-Serif" font-size="10.00">std::string</text>
</a>
</g>
</g>
<!-- Node3&#45;&gt;Node2 -->
<g id="edge2" class="edge"><title>Node3&#45;&gt;Node2</title>
<path fill="none" stroke="#9a32cd" stroke-dasharray="5,2" d="M61,-114.037C61,-101.67 61,-86.1198 61,-76.6273"/>
<polygon fill="#9a32cd" stroke="#9a32cd" points="57.5001,-114.234 61,-124.234 64.5001,-114.234 57.5001,-114.234"/>
<text text-anchor="middle" x="104.5" y="-98" font-family="Helvetica,sans-Serif" font-size="10.00"> m_responseDetails</text>
</g>
<!-- Node4 -->
<g id="node4" class="node"><title>Node4</title>
<g id="a_node4"><a xlink:title="STL class. ">
<polygon fill="white" stroke="#bfbfbf" points="13.5,-181.5 13.5,-211.5 108.5,-211.5 108.5,-181.5 13.5,-181.5"/>
<text text-anchor="start" x="21.5" y="-199.5" font-family="Helvetica,sans-Serif" font-size="10.00">std::basic_string&lt;</text>
<text text-anchor="middle" x="61" y="-188.5" font-family="Helvetica,sans-Serif" font-size="10.00"> char &gt;</text>
</a>
</g>
</g>
<!-- Node4&#45;&gt;Node3 -->
<g id="edge3" class="edge"><title>Node4&#45;&gt;Node3</title>
<path fill="none" stroke="midnightblue" d="M61,-171.352C61,-161.513 61,-150.775 61,-143.54"/>
<polygon fill="midnightblue" stroke="midnightblue" points="57.5001,-171.468 61,-181.468 64.5001,-171.468 57.5001,-171.468"/>
</g>
</g>
</svg>
