<?xml version="1.0" encoding="UTF-8" standalone="no"?>
<!DOCTYPE svg PUBLIC "-//W3C//DTD SVG 1.1//EN"
 "http://www.w3.org/Graphics/SVG/1.1/DTD/svg11.dtd">
<!-- Generated by graphviz version 2.38.0 (20140413.2041)
 -->
<!-- Title: blfwk::UsbHidPacketizer Pages: 1 -->
<svg width="320pt" height="173pt"
 viewBox="0.00 0.00 320.00 173.00" xmlns="http://www.w3.org/2000/svg" xmlns:xlink="http://www.w3.org/1999/xlink">
<g id="graph0" class="graph" transform="scale(1 1) rotate(0) translate(4 169)">
<title>blfwk::UsbHidPacketizer</title>
<polygon fill="white" stroke="none" points="-4,4 -4,-169 316,-169 316,4 -4,4"/>
<!-- Node1 -->
<g id="node1" class="node"><title>Node1</title>
<polygon fill="#bfbfbf" stroke="black" points="156,-0.5 156,-19.5 278,-19.5 278,-0.5 156,-0.5"/>
<text text-anchor="middle" x="217" y="-7.5" font-family="Helvetica,sans-Serif" font-size="10.00">blfwk::UsbHidPacketizer</text>
</g>
<!-- Node2 -->
<g id="node2" class="node"><title>Node2</title>
<g id="a_node2"><a xlink:href="group__host__packetizers.html#classblfwk_1_1_packetizer" target="_top" xlink:title="Interface class for packetization of commands and data. ">
<polygon fill="white" stroke="black" points="109.5,-78.5 109.5,-97.5 200.5,-97.5 200.5,-78.5 109.5,-78.5"/>
<text text-anchor="middle" x="155" y="-85.5" font-family="Helvetica,sans-Serif" font-size="10.00">blfwk::Packetizer</text>
</a>
</g>
</g>
<!-- Node2&#45;&gt;Node1 -->
<g id="edge1" class="edge"><title>Node2&#45;&gt;Node1</title>
<path fill="none" stroke="midnightblue" d="M168.508,-70.4421C181.275,-54.7918 199.927,-31.9282 209.971,-19.6165"/>
<polygon fill="midnightblue" stroke="midnightblue" points="165.721,-68.3207 162.112,-78.2818 171.146,-72.7456 165.721,-68.3207"/>
</g>
<!-- Node3 -->
<g id="node3" class="node"><title>Node3</title>
<g id="a_node3"><a xlink:href="group__host__peripherals.html#classblfwk_1_1_peripheral" target="_top" xlink:title="Represents a peripheral. ">
<polygon fill="white" stroke="black" points="0,-145.5 0,-164.5 88,-164.5 88,-145.5 0,-145.5"/>
<text text-anchor="middle" x="44" y="-152.5" font-family="Helvetica,sans-Serif" font-size="10.00">blfwk::Peripheral</text>
</a>
</g>
</g>
<!-- Node3&#45;&gt;Node2 -->
<g id="edge2" class="edge"><title>Node3&#45;&gt;Node2</title>
<path fill="none" stroke="#9a32cd" stroke-dasharray="5,2" d="M61.0284,-138.698C69.8606,-131.246 81.0668,-122.513 92,-116 104.268,-108.692 118.877,-102.303 130.938,-97.5763"/>
<polygon fill="#9a32cd" stroke="#9a32cd" points="58.6361,-136.14 53.3742,-145.336 63.2223,-141.428 58.6361,-136.14"/>
<text text-anchor="middle" x="121.5" y="-119" font-family="Helvetica,sans-Serif" font-size="10.00"> m_peripheral</text>
</g>
<!-- Node4 -->
<g id="node4" class="node"><title>Node4</title>
<g id="a_node4"><a xlink:href="group__bl__core.html#unionstandard__version__t" target="_top" xlink:title="Structure of version property. ">
<polygon fill="white" stroke="black" points="106,-145.5 106,-164.5 204,-164.5 204,-145.5 106,-145.5"/>
<text text-anchor="middle" x="155" y="-152.5" font-family="Helvetica,sans-Serif" font-size="10.00">standard_version_t</text>
</a>
</g>
</g>
<!-- Node4&#45;&gt;Node2 -->
<g id="edge3" class="edge"><title>Node4&#45;&gt;Node2</title>
<path fill="none" stroke="#9a32cd" stroke-dasharray="5,2" d="M155,-135.037C155,-122.67 155,-107.12 155,-97.6273"/>
<polygon fill="#9a32cd" stroke="#9a32cd" points="151.5,-135.234 155,-145.234 158.5,-135.234 151.5,-135.234"/>
<text text-anchor="middle" x="178.5" y="-119" font-family="Helvetica,sans-Serif" font-size="10.00"> m_version</text>
</g>
<!-- Node5 -->
<g id="node5" class="node"><title>Node5</title>
<g id="a_node5"><a xlink:href="structbl__hid__report__t.html" target="_top" xlink:title="Structure of a bootloader HID report. ">
<polygon fill="white" stroke="black" points="222,-78.5 222,-97.5 302,-97.5 302,-78.5 222,-78.5"/>
<text text-anchor="middle" x="262" y="-85.5" font-family="Helvetica,sans-Serif" font-size="10.00">bl_hid_report_t</text>
</a>
</g>
</g>
<!-- Node5&#45;&gt;Node1 -->
<g id="edge4" class="edge"><title>Node5&#45;&gt;Node1</title>
<path fill="none" stroke="#9a32cd" stroke-dasharray="5,2" d="M251.677,-69.5654C242.43,-53.9486 229.257,-31.7002 222.102,-19.6165"/>
<polygon fill="#9a32cd" stroke="#9a32cd" points="248.731,-71.4603 256.838,-78.2818 254.755,-67.8938 248.731,-71.4603"/>
<text text-anchor="middle" x="278.5" y="-52" font-family="Helvetica,sans-Serif" font-size="10.00"> m_abortReport</text>
<text text-anchor="middle" x="278.5" y="-41" font-family="Helvetica,sans-Serif" font-size="10.00">m_report</text>
</g>
<!-- Node6 -->
<g id="node6" class="node"><title>Node6</title>
<g id="a_node6"><a xlink:href="structbl__hid__header__t.html" target="_top" xlink:title="Structure of a bootloader HID header. ">
<polygon fill="white" stroke="black" points="222.5,-145.5 222.5,-164.5 307.5,-164.5 307.5,-145.5 222.5,-145.5"/>
<text text-anchor="middle" x="265" y="-152.5" font-family="Helvetica,sans-Serif" font-size="10.00">bl_hid_header_t</text>
</a>
</g>
</g>
<!-- Node6&#45;&gt;Node5 -->
<g id="edge5" class="edge"><title>Node6&#45;&gt;Node5</title>
<path fill="none" stroke="#9a32cd" stroke-dasharray="5,2" d="M264.125,-135.037C263.554,-122.67 262.836,-107.12 262.398,-97.6273"/>
<polygon fill="#9a32cd" stroke="#9a32cd" points="260.638,-135.406 264.595,-145.234 267.631,-135.083 260.638,-135.406"/>
<text text-anchor="middle" x="280.5" y="-119" font-family="Helvetica,sans-Serif" font-size="10.00"> header</text>
</g>
</g>
</svg>
