<?xml version="1.0" encoding="UTF-8" standalone="no"?>
<!DOCTYPE svg PUBLIC "-//W3C//DTD SVG 1.1//EN"
 "http://www.w3.org/Graphics/SVG/1.1/DTD/svg11.dtd">
<!-- Generated by graphviz version 2.38.0 (20140413.2041)
 -->
<!-- Title: blfwk::ReceiveSbFile Pages: 1 -->
<svg width="199pt" height="220pt"
 viewBox="0.00 0.00 199.00 220.00" xmlns="http://www.w3.org/2000/svg" xmlns:xlink="http://www.w3.org/1999/xlink">
<g id="graph0" class="graph" transform="scale(1 1) rotate(0) translate(4 216)">
<title>blfwk::ReceiveSbFile</title>
<polygon fill="white" stroke="none" points="-4,4 -4,-216 195,-216 195,4 -4,4"/>
<!-- Node1 -->
<g id="node1" class="node"><title>Node1</title>
<polygon fill="#bfbfbf" stroke="black" points="13.5,-0.5 13.5,-19.5 119.5,-19.5 119.5,-0.5 13.5,-0.5"/>
<text text-anchor="middle" x="66.5" y="-7.5" font-family="Helvetica,sans-Serif" font-size="10.00">blfwk::ReceiveSbFile</text>
</g>
<!-- Node2 -->
<g id="node2" class="node"><title>Node2</title>
<g id="a_node2"><a xlink:href="group__host__commands.html#classblfwk_1_1_command" target="_top" xlink:title="Represents a bootloader command. ">
<polygon fill="white" stroke="black" points="102,-57.5 102,-76.5 191,-76.5 191,-57.5 102,-57.5"/>
<text text-anchor="middle" x="146.5" y="-64.5" font-family="Helvetica,sans-Serif" font-size="10.00">blfwk::Command</text>
</a>
</g>
</g>
<!-- Node2&#45;&gt;Node1 -->
<g id="edge1" class="edge"><title>Node2&#45;&gt;Node1</title>
<path fill="none" stroke="midnightblue" d="M125.463,-51.537C110.651,-41.3539 91.3259,-28.0678 78.9122,-19.5334"/>
<polygon fill="midnightblue" stroke="midnightblue" points="123.777,-54.6251 134,-57.4063 127.742,-48.8568 123.777,-54.6251"/>
</g>
<!-- Node3 -->
<g id="node3" class="node"><title>Node3</title>
<g id="a_node3"><a xlink:title="STL class. ">
<polygon fill="white" stroke="#bfbfbf" points="17.5,-124.5 17.5,-143.5 77.5,-143.5 77.5,-124.5 17.5,-124.5"/>
<text text-anchor="middle" x="47.5" y="-131.5" font-family="Helvetica,sans-Serif" font-size="10.00">std::string</text>
</a>
</g>
</g>
<!-- Node3&#45;&gt;Node1 -->
<g id="edge4" class="edge"><title>Node3&#45;&gt;Node1</title>
<path fill="none" stroke="#9a32cd" stroke-dasharray="5,2" d="M42.729,-114.495C39.4971,-98.9271 36.6199,-76.1993 41.5,-57 45.0826,-42.9053 53.9526,-28.4602 60.1013,-19.6085"/>
<polygon fill="#9a32cd" stroke="#9a32cd" points="39.3617,-115.467 45.0392,-124.412 46.1792,-113.879 39.3617,-115.467"/>
<text text-anchor="middle" x="67.5" y="-64.5" font-family="Helvetica,sans-Serif" font-size="10.00"> m_dataFile</text>
</g>
<!-- Node3&#45;&gt;Node2 -->
<g id="edge2" class="edge"><title>Node3&#45;&gt;Node2</title>
<path fill="none" stroke="#9a32cd" stroke-dasharray="5,2" d="M69.4407,-118.595C89.0253,-105.736 117.058,-87.3306 133.36,-76.6273"/>
<polygon fill="#9a32cd" stroke="#9a32cd" points="67.2899,-115.82 60.8516,-124.234 71.1318,-121.671 67.2899,-115.82"/>
<text text-anchor="middle" x="146" y="-98" font-family="Helvetica,sans-Serif" font-size="10.00"> m_responseDetails</text>
</g>
<!-- Node4 -->
<g id="node4" class="node"><title>Node4</title>
<g id="a_node4"><a xlink:title="STL class. ">
<polygon fill="white" stroke="#bfbfbf" points="0,-181.5 0,-211.5 95,-211.5 95,-181.5 0,-181.5"/>
<text text-anchor="start" x="8" y="-199.5" font-family="Helvetica,sans-Serif" font-size="10.00">std::basic_string&lt;</text>
<text text-anchor="middle" x="47.5" y="-188.5" font-family="Helvetica,sans-Serif" font-size="10.00"> char &gt;</text>
</a>
</g>
</g>
<!-- Node4&#45;&gt;Node3 -->
<g id="edge3" class="edge"><title>Node4&#45;&gt;Node3</title>
<path fill="none" stroke="midnightblue" d="M47.5,-171.352C47.5,-161.513 47.5,-150.775 47.5,-143.54"/>
<polygon fill="midnightblue" stroke="midnightblue" points="44.0001,-171.468 47.5,-181.468 51.0001,-171.468 44.0001,-171.468"/>
</g>
</g>
</svg>
