<?xml version="1.0" encoding="UTF-8" standalone="no"?>
<!DOCTYPE svg PUBLIC "-//W3C//DTD SVG 1.1//EN"
 "http://www.w3.org/Graphics/SVG/1.1/DTD/svg11.dtd">
<!-- Generated by graphviz version 2.38.0 (20140413.2041)
 -->
<!-- Title: blfwk::Updater Pages: 1 -->
<svg width="1432pt" height="234pt"
 viewBox="0.00 0.00 1432.00 234.09" xmlns="http://www.w3.org/2000/svg" xmlns:xlink="http://www.w3.org/1999/xlink">
<g id="graph0" class="graph" transform="scale(1 1) rotate(0) translate(4 230.092)">
<title>blfwk::Updater</title>
<polygon fill="white" stroke="none" points="-4,4 -4,-230.092 1428,-230.092 1428,4 -4,4"/>
<!-- Node1 -->
<g id="node1" class="node"><title>Node1</title>
<polygon fill="#bfbfbf" stroke="black" points="1346,-60.5924 1346,-79.5924 1424,-79.5924 1424,-60.5924 1346,-60.5924"/>
<text text-anchor="middle" x="1385" y="-67.5924" font-family="Helvetica,sans-Serif" font-size="10.00">blfwk::Updater</text>
</g>
<!-- Node2 -->
<g id="node2" class="node"><title>Node2</title>
<g id="a_node2"><a xlink:href="group__blfwk.html#classblfwk_1_1_bootloader" target="_top" xlink:title="Represents the host bootloader. ">
<polygon fill="white" stroke="black" points="1110.5,-92.5924 1110.5,-111.592 1201.5,-111.592 1201.5,-92.5924 1110.5,-92.5924"/>
<text text-anchor="middle" x="1156" y="-99.5924" font-family="Helvetica,sans-Serif" font-size="10.00">blfwk::Bootloader</text>
</a>
</g>
</g>
<!-- Node2&#45;&gt;Node1 -->
<g id="edge1" class="edge"><title>Node2&#45;&gt;Node1</title>
<path fill="none" stroke="midnightblue" d="M1211.53,-94.4051C1253.05,-88.552 1309.15,-80.644 1345.93,-75.4587"/>
<polygon fill="midnightblue" stroke="midnightblue" points="1210.99,-90.9467 1201.58,-95.8084 1211.97,-97.8781 1210.99,-90.9467"/>
</g>
<!-- Node3 -->
<g id="node3" class="node"><title>Node3</title>
<g id="a_node3"><a xlink:href="group__host__packetizers.html#classblfwk_1_1_packetizer" target="_top" xlink:title="Interface class for packetization of commands and data. ">
<polygon fill="white" stroke="black" points="876,-168.592 876,-187.592 967,-187.592 967,-168.592 876,-168.592"/>
<text text-anchor="middle" x="921.5" y="-175.592" font-family="Helvetica,sans-Serif" font-size="10.00">blfwk::Packetizer</text>
</a>
</g>
</g>
<!-- Node3&#45;&gt;Node2 -->
<g id="edge2" class="edge"><title>Node3&#45;&gt;Node2</title>
<path fill="none" stroke="#9a32cd" stroke-dasharray="5,2" d="M961.651,-165.295C1008.04,-150.131 1084.26,-125.216 1125.79,-111.64"/>
<polygon fill="#9a32cd" stroke="#9a32cd" points="960.364,-162.033 951.946,-168.467 962.539,-168.687 960.364,-162.033"/>
<text text-anchor="middle" x="1032" y="-159.092" font-family="Helvetica,sans-Serif" font-size="10.00"> m_hostPacketizer</text>
</g>
<!-- Node4 -->
<g id="node4" class="node"><title>Node4</title>
<g id="a_node4"><a xlink:href="group__host__peripherals.html#classblfwk_1_1_peripheral" target="_top" xlink:title="Represents a peripheral. ">
<polygon fill="white" stroke="black" points="665.5,-168.592 665.5,-187.592 753.5,-187.592 753.5,-168.592 665.5,-168.592"/>
<text text-anchor="middle" x="709.5" y="-175.592" font-family="Helvetica,sans-Serif" font-size="10.00">blfwk::Peripheral</text>
</a>
</g>
</g>
<!-- Node4&#45;&gt;Node3 -->
<g id="edge3" class="edge"><title>Node4&#45;&gt;Node3</title>
<path fill="none" stroke="#9a32cd" stroke-dasharray="5,2" d="M763.894,-178.092C798.482,-178.092 843.013,-178.092 875.742,-178.092"/>
<polygon fill="#9a32cd" stroke="#9a32cd" points="763.503,-174.592 753.503,-178.092 763.503,-181.592 763.503,-174.592"/>
<text text-anchor="middle" x="817" y="-181.092" font-family="Helvetica,sans-Serif" font-size="10.00"> m_peripheral</text>
</g>
<!-- Node5 -->
<g id="node5" class="node"><title>Node5</title>
<g id="a_node5"><a xlink:href="group__bl__core.html#unionstandard__version__t" target="_top" xlink:title="Structure of version property. ">
<polygon fill="white" stroke="black" points="660.5,-206.592 660.5,-225.592 758.5,-225.592 758.5,-206.592 660.5,-206.592"/>
<text text-anchor="middle" x="709.5" y="-213.592" font-family="Helvetica,sans-Serif" font-size="10.00">standard_version_t</text>
</a>
</g>
</g>
<!-- Node5&#45;&gt;Node3 -->
<g id="edge4" class="edge"><title>Node5&#45;&gt;Node3</title>
<path fill="none" stroke="#9a32cd" stroke-dasharray="5,2" d="M768.678,-207.367C794.288,-203.337 824.697,-198.297 852,-193.092 860.61,-191.451 869.796,-189.547 878.552,-187.657"/>
<polygon fill="#9a32cd" stroke="#9a32cd" points="768.092,-203.916 758.752,-208.916 769.172,-210.832 768.092,-203.916"/>
<text text-anchor="middle" x="817" y="-209.092" font-family="Helvetica,sans-Serif" font-size="10.00"> m_version</text>
</g>
<!-- Node6 -->
<g id="node6" class="node"><title>Node6</title>
<g id="a_node6"><a xlink:href="group__logging.html#class_file_logger" target="_top" xlink:title="Simple logger that writes to a file. ">
<polygon fill="white" stroke="black" points="890.5,-92.5924 890.5,-111.592 952.5,-111.592 952.5,-92.5924 890.5,-92.5924"/>
<text text-anchor="middle" x="921.5" y="-99.5924" font-family="Helvetica,sans-Serif" font-size="10.00">FileLogger</text>
</a>
</g>
</g>
<!-- Node6&#45;&gt;Node2 -->
<g id="edge5" class="edge"><title>Node6&#45;&gt;Node2</title>
<path fill="none" stroke="#9a32cd" stroke-dasharray="5,2" d="M963.1,-102.092C1004.23,-102.092 1067.69,-102.092 1110.25,-102.092"/>
<polygon fill="#9a32cd" stroke="#9a32cd" points="962.895,-98.5925 952.895,-102.092 962.895,-105.592 962.895,-98.5925"/>
<text text-anchor="middle" x="1032" y="-105.092" font-family="Helvetica,sans-Serif" font-size="10.00"> m_logger</text>
</g>
<!-- Node7 -->
<g id="node7" class="node"><title>Node7</title>
<g id="a_node7"><a xlink:href="group__logging.html#class_logger" target="_top" xlink:title="Base logger class. ">
<polygon fill="white" stroke="black" points="686.5,-92.5924 686.5,-111.592 732.5,-111.592 732.5,-92.5924 686.5,-92.5924"/>
<text text-anchor="middle" x="709.5" y="-99.5924" font-family="Helvetica,sans-Serif" font-size="10.00">Logger</text>
</a>
</g>
</g>
<!-- Node7&#45;&gt;Node6 -->
<g id="edge6" class="edge"><title>Node7&#45;&gt;Node6</title>
<path fill="none" stroke="midnightblue" d="M742.634,-102.092C782.812,-102.092 851.069,-102.092 890.313,-102.092"/>
<polygon fill="midnightblue" stroke="midnightblue" points="742.577,-98.5925 732.577,-102.092 742.577,-105.592 742.577,-98.5925"/>
</g>
<!-- Node8 -->
<g id="node8" class="node"><title>Node8</title>
<g id="a_node8"><a xlink:title="STL class. ">
<polygon fill="white" stroke="#bfbfbf" points="285,-35.5924 285,-54.5924 345,-54.5924 345,-35.5924 285,-35.5924"/>
<text text-anchor="middle" x="315" y="-42.5924" font-family="Helvetica,sans-Serif" font-size="10.00">std::string</text>
</a>
</g>
</g>
<!-- Node8&#45;&gt;Node6 -->
<g id="edge7" class="edge"><title>Node8&#45;&gt;Node6</title>
<path fill="none" stroke="#9a32cd" stroke-dasharray="5,2" d="M355.286,-48.2406C449.271,-55.8022 685.124,-74.9618 764,-83.0924 807.969,-87.6247 858.746,-94.0002 890.242,-98.0895"/>
<polygon fill="#9a32cd" stroke="#9a32cd" points="355.317,-44.7319 345.068,-47.4193 354.756,-51.7094 355.317,-44.7319"/>
<text text-anchor="middle" x="610.5" y="-75.0924" font-family="Helvetica,sans-Serif" font-size="10.00"> m_file_path</text>
</g>
<!-- Node18 -->
<g id="node18" class="node"><title>Node18</title>
<g id="a_node18"><a xlink:href="group__host__updater.html#structblfwk_1_1updater__enum__t" target="_top" xlink:title="blfwk::updater_enum_t">
<polygon fill="white" stroke="black" points="452,-16.5924 452,-35.5924 566,-35.5924 566,-16.5924 452,-16.5924"/>
<text text-anchor="middle" x="509" y="-23.5924" font-family="Helvetica,sans-Serif" font-size="10.00">blfwk::updater_enum_t</text>
</a>
</g>
</g>
<!-- Node8&#45;&gt;Node18 -->
<g id="edge18" class="edge"><title>Node8&#45;&gt;Node18</title>
<path fill="none" stroke="#9a32cd" stroke-dasharray="5,2" d="M355.305,-41.2028C383.129,-38.4493 420.856,-34.716 451.847,-31.6492"/>
<polygon fill="#9a32cd" stroke="#9a32cd" points="354.767,-37.7388 345.161,-42.2067 355.457,-44.7048 354.767,-37.7388"/>
<text text-anchor="middle" x="408.5" y="-42.0924" font-family="Helvetica,sans-Serif" font-size="10.00"> description</text>
</g>
<!-- Node9 -->
<g id="node9" class="node"><title>Node9</title>
<g id="a_node9"><a xlink:title="STL class. ">
<polygon fill="white" stroke="#bfbfbf" points="122.5,-30.0924 122.5,-60.0924 217.5,-60.0924 217.5,-30.0924 122.5,-30.0924"/>
<text text-anchor="start" x="130.5" y="-48.0924" font-family="Helvetica,sans-Serif" font-size="10.00">std::basic_string&lt;</text>
<text text-anchor="middle" x="170" y="-37.0924" font-family="Helvetica,sans-Serif" font-size="10.00"> char &gt;</text>
</a>
</g>
</g>
<!-- Node9&#45;&gt;Node8 -->
<g id="edge8" class="edge"><title>Node9&#45;&gt;Node8</title>
<path fill="none" stroke="midnightblue" d="M228.087,-45.0924C247.453,-45.0924 268.289,-45.0924 284.592,-45.0924"/>
<polygon fill="midnightblue" stroke="midnightblue" points="227.824,-41.5925 217.824,-45.0924 227.824,-48.5925 227.824,-41.5925"/>
</g>
<!-- Node10 -->
<g id="node10" class="node"><title>Node10</title>
<g id="a_node10"><a xlink:title="STL class. ">
<polygon fill="white" stroke="#bfbfbf" points="672.5,-130.592 672.5,-149.592 746.5,-149.592 746.5,-130.592 672.5,-130.592"/>
<text text-anchor="middle" x="709.5" y="-137.592" font-family="Helvetica,sans-Serif" font-size="10.00">std::ofstream</text>
</a>
</g>
</g>
<!-- Node10&#45;&gt;Node6 -->
<g id="edge9" class="edge"><title>Node10&#45;&gt;Node6</title>
<path fill="none" stroke="#9a32cd" stroke-dasharray="5,2" d="M756.797,-132.643C784.467,-128.09 820.292,-122.02 852,-116.092 864.528,-113.75 878.303,-110.974 890.194,-108.514"/>
<polygon fill="#9a32cd" stroke="#9a32cd" points="755.921,-129.239 746.618,-134.31 757.052,-136.147 755.921,-129.239"/>
<text text-anchor="middle" x="817" y="-132.092" font-family="Helvetica,sans-Serif" font-size="10.00"> m_logFile</text>
</g>
<!-- Node11 -->
<g id="node11" class="node"><title>Node11</title>
<g id="a_node11"><a xlink:title="STL class. ">
<polygon fill="white" stroke="#bfbfbf" points="458,-125.092 458,-155.092 560,-155.092 560,-125.092 458,-125.092"/>
<text text-anchor="start" x="466" y="-143.092" font-family="Helvetica,sans-Serif" font-size="10.00">std::basic_ofstream</text>
<text text-anchor="middle" x="509" y="-132.092" font-family="Helvetica,sans-Serif" font-size="10.00">&lt; char &gt;</text>
</a>
</g>
</g>
<!-- Node11&#45;&gt;Node10 -->
<g id="edge10" class="edge"><title>Node11&#45;&gt;Node10</title>
<path fill="none" stroke="midnightblue" d="M570.175,-140.092C603.461,-140.092 643.725,-140.092 672.208,-140.092"/>
<polygon fill="midnightblue" stroke="midnightblue" points="570.09,-136.592 560.09,-140.092 570.09,-143.592 570.09,-136.592"/>
</g>
<!-- Node12 -->
<g id="node12" class="node"><title>Node12</title>
<g id="a_node12"><a xlink:title="STL class. ">
<polygon fill="white" stroke="#bfbfbf" points="265,-125.092 265,-155.092 365,-155.092 365,-125.092 265,-125.092"/>
<text text-anchor="start" x="273" y="-143.092" font-family="Helvetica,sans-Serif" font-size="10.00">std::basic_ostream</text>
<text text-anchor="middle" x="315" y="-132.092" font-family="Helvetica,sans-Serif" font-size="10.00">&lt; Char &gt;</text>
</a>
</g>
</g>
<!-- Node12&#45;&gt;Node11 -->
<g id="edge11" class="edge"><title>Node12&#45;&gt;Node11</title>
<path fill="none" stroke="midnightblue" d="M375.677,-140.092C401.995,-140.092 432.586,-140.092 457.721,-140.092"/>
<polygon fill="midnightblue" stroke="midnightblue" points="375.445,-136.592 365.445,-140.092 375.445,-143.592 375.445,-136.592"/>
</g>
<!-- Node13 -->
<g id="node13" class="node"><title>Node13</title>
<g id="a_node13"><a xlink:title="STL class. ">
<polygon fill="white" stroke="#bfbfbf" points="112,-130.592 112,-149.592 228,-149.592 228,-130.592 112,-130.592"/>
<text text-anchor="middle" x="170" y="-137.592" font-family="Helvetica,sans-Serif" font-size="10.00">std::basic_ios&lt; Char &gt;</text>
</a>
</g>
</g>
<!-- Node13&#45;&gt;Node12 -->
<g id="edge12" class="edge"><title>Node13&#45;&gt;Node12</title>
<path fill="none" stroke="midnightblue" d="M238.38,-140.092C247.332,-140.092 256.37,-140.092 264.931,-140.092"/>
<polygon fill="midnightblue" stroke="midnightblue" points="238.34,-136.592 228.34,-140.092 238.34,-143.592 238.34,-136.592"/>
</g>
<!-- Node14 -->
<g id="node14" class="node"><title>Node14</title>
<g id="a_node14"><a xlink:title="STL class. ">
<polygon fill="white" stroke="#bfbfbf" points="0,-130.592 0,-149.592 75,-149.592 75,-130.592 0,-130.592"/>
<text text-anchor="middle" x="37.5" y="-137.592" font-family="Helvetica,sans-Serif" font-size="10.00">std::ios_base</text>
</a>
</g>
</g>
<!-- Node14&#45;&gt;Node13 -->
<g id="edge13" class="edge"><title>Node14&#45;&gt;Node13</title>
<path fill="none" stroke="midnightblue" d="M85.3188,-140.092C93.8367,-140.092 102.811,-140.092 111.593,-140.092"/>
<polygon fill="midnightblue" stroke="midnightblue" points="85.1988,-136.592 75.1988,-140.092 85.1988,-143.592 85.1988,-136.592"/>
</g>
<!-- Node15 -->
<g id="node15" class="node"><title>Node15</title>
<g id="a_node15"><a xlink:href="group__host__updater.html#structblfwk_1_1updater__operation__t" target="_top" xlink:title="blfwk::updater_operation_t">
<polygon fill="white" stroke="black" points="1091,-22.5924 1091,-41.5924 1221,-41.5924 1221,-22.5924 1091,-22.5924"/>
<text text-anchor="middle" x="1156" y="-29.5924" font-family="Helvetica,sans-Serif" font-size="10.00">blfwk::updater_operation_t</text>
</a>
</g>
</g>
<!-- Node15&#45;&gt;Node1 -->
<g id="edge14" class="edge"><title>Node15&#45;&gt;Node1</title>
<path fill="none" stroke="#9a32cd" stroke-dasharray="5,2" d="M1231.22,-38.3884C1261.44,-41.6813 1296.58,-46.4464 1328,-53.0924 1337.24,-55.0479 1347.16,-57.8262 1356.05,-60.5713"/>
<polygon fill="#9a32cd" stroke="#9a32cd" points="1231.49,-34.8971 1221.18,-37.3275 1230.76,-41.8584 1231.49,-34.8971"/>
<text text-anchor="middle" x="1283.5" y="-67.0924" font-family="Helvetica,sans-Serif" font-size="10.00"> m_operation</text>
<text text-anchor="middle" x="1283.5" y="-56.0924" font-family="Helvetica,sans-Serif" font-size="10.00">m_progressCallback</text>
</g>
<!-- Node16 -->
<g id="node16" class="node"><title>Node16</title>
<polygon fill="white" stroke="#bfbfbf" points="870,-17.0924 870,-47.0924 973,-47.0924 973,-17.0924 870,-17.0924"/>
<text text-anchor="start" x="878" y="-35.0924" font-family="Helvetica,sans-Serif" font-size="10.00">std::vector&lt; updater</text>
<text text-anchor="middle" x="921.5" y="-24.0924" font-family="Helvetica,sans-Serif" font-size="10.00">_task_t &gt;</text>
</g>
<!-- Node16&#45;&gt;Node15 -->
<g id="edge15" class="edge"><title>Node16&#45;&gt;Node15</title>
<path fill="none" stroke="#9a32cd" stroke-dasharray="5,2" d="M983.643,-32.0924C1016.59,-32.0924 1057.21,-32.0924 1090.63,-32.0924"/>
<polygon fill="#9a32cd" stroke="#9a32cd" points="983.236,-28.5925 973.236,-32.0924 983.236,-35.5925 983.236,-28.5925"/>
<text text-anchor="middle" x="1032" y="-35.0924" font-family="Helvetica,sans-Serif" font-size="10.00"> tasks</text>
</g>
<!-- Node17 -->
<g id="node17" class="node"><title>Node17</title>
<g id="a_node17"><a xlink:href="group__host__updater.html#structblfwk_1_1updater__task__t" target="_top" xlink:title="blfwk::updater_task_t">
<polygon fill="white" stroke="black" points="655,-16.5924 655,-35.5924 764,-35.5924 764,-16.5924 655,-16.5924"/>
<text text-anchor="middle" x="709.5" y="-23.5924" font-family="Helvetica,sans-Serif" font-size="10.00">blfwk::updater_task_t</text>
</a>
</g>
</g>
<!-- Node17&#45;&gt;Node16 -->
<g id="edge16" class="edge"><title>Node17&#45;&gt;Node16</title>
<path fill="none" stroke="#9a32cd" stroke-dasharray="5,2" d="M774.211,-27.9127C804.904,-28.7896 841.196,-29.8265 869.953,-30.6482"/>
<polygon fill="#9a32cd" stroke="#9a32cd" points="774.131,-24.4091 764.035,-27.6219 773.931,-31.4062 774.131,-24.4091"/>
<text text-anchor="middle" x="817" y="-33.0924" font-family="Helvetica,sans-Serif" font-size="10.00"> elements</text>
</g>
<!-- Node18&#45;&gt;Node15 -->
<g id="edge19" class="edge"><title>Node18&#45;&gt;Node15</title>
<path fill="none" stroke="#9a32cd" stroke-dasharray="5,2" d="M576.266,-15.5631C600.916,-12.1339 629.17,-8.77745 655,-7.09236 796.034,2.10844 831.996,2.54674 973,-7.09236 1015.96,-10.0289 1064.22,-16.8206 1100.25,-22.5848"/>
<polygon fill="#9a32cd" stroke="#9a32cd" points="575.705,-12.1075 566.298,-16.9805 576.691,-19.0378 575.705,-12.1075"/>
<text text-anchor="middle" x="817" y="-4.09236" font-family="Helvetica,sans-Serif" font-size="10.00"> operation_desc</text>
</g>
<!-- Node18&#45;&gt;Node17 -->
<g id="edge17" class="edge"><title>Node18&#45;&gt;Node17</title>
<path fill="none" stroke="#9a32cd" stroke-dasharray="5,2" d="M576.094,-26.0924C601.713,-26.0924 630.662,-26.0924 654.944,-26.0924"/>
<polygon fill="#9a32cd" stroke="#9a32cd" points="576.086,-22.5925 566.086,-26.0924 576.086,-29.5925 576.086,-22.5925"/>
<text text-anchor="middle" x="610.5" y="-29.0924" font-family="Helvetica,sans-Serif" font-size="10.00"> task_desc</text>
</g>
</g>
</svg>
