<?xml version="1.0" encoding="UTF-8" standalone="no"?>
<!DOCTYPE svg PUBLIC "-//W3C//DTD SVG 1.1//EN"
 "http://www.w3.org/Graphics/SVG/1.1/DTD/svg11.dtd">
<!-- Generated by graphviz version 2.38.0 (20140413.2041)
 -->
<!-- Title: blfwk::FlashEraseAllUnsecure Pages: 1 -->
<svg width="168pt" height="220pt"
 viewBox="0.00 0.00 168.00 220.00" xmlns="http://www.w3.org/2000/svg" xmlns:xlink="http://www.w3.org/1999/xlink">
<g id="graph0" class="graph" transform="scale(1 1) rotate(0) translate(4 216)">
<title>blfwk::FlashEraseAllUnsecure</title>
<polygon fill="white" stroke="none" points="-4,4 -4,-216 164,-216 164,4 -4,4"/>
<!-- Node1 -->
<g id="node1" class="node"><title>Node1</title>
<polygon fill="#bfbfbf" stroke="black" points="0,-0.5 0,-19.5 146,-19.5 146,-0.5 0,-0.5"/>
<text text-anchor="middle" x="73" y="-7.5" font-family="Helvetica,sans-Serif" font-size="10.00">blfwk::FlashEraseAllUnsecure</text>
</g>
<!-- Node2 -->
<g id="node2" class="node"><title>Node2</title>
<g id="a_node2"><a xlink:href="group__host__commands.html#classblfwk_1_1_command" target="_top" xlink:title="Represents a bootloader command. ">
<polygon fill="white" stroke="black" points="28.5,-57.5 28.5,-76.5 117.5,-76.5 117.5,-57.5 28.5,-57.5"/>
<text text-anchor="middle" x="73" y="-64.5" font-family="Helvetica,sans-Serif" font-size="10.00">blfwk::Command</text>
</a>
</g>
</g>
<!-- Node2&#45;&gt;Node1 -->
<g id="edge1" class="edge"><title>Node2&#45;&gt;Node1</title>
<path fill="none" stroke="midnightblue" d="M73,-47.1166C73,-37.8173 73,-27.0557 73,-19.7149"/>
<polygon fill="midnightblue" stroke="midnightblue" points="69.5001,-47.4062 73,-57.4063 76.5001,-47.4063 69.5001,-47.4062"/>
</g>
<!-- Node3 -->
<g id="node3" class="node"><title>Node3</title>
<g id="a_node3"><a xlink:title="STL class. ">
<polygon fill="white" stroke="#bfbfbf" points="43,-124.5 43,-143.5 103,-143.5 103,-124.5 43,-124.5"/>
<text text-anchor="middle" x="73" y="-131.5" font-family="Helvetica,sans-Serif" font-size="10.00">std::string</text>
</a>
</g>
</g>
<!-- Node3&#45;&gt;Node2 -->
<g id="edge2" class="edge"><title>Node3&#45;&gt;Node2</title>
<path fill="none" stroke="#9a32cd" stroke-dasharray="5,2" d="M73,-114.037C73,-101.67 73,-86.1198 73,-76.6273"/>
<polygon fill="#9a32cd" stroke="#9a32cd" points="69.5001,-114.234 73,-124.234 76.5001,-114.234 69.5001,-114.234"/>
<text text-anchor="middle" x="116.5" y="-98" font-family="Helvetica,sans-Serif" font-size="10.00"> m_responseDetails</text>
</g>
<!-- Node4 -->
<g id="node4" class="node"><title>Node4</title>
<g id="a_node4"><a xlink:title="STL class. ">
<polygon fill="white" stroke="#bfbfbf" points="25.5,-181.5 25.5,-211.5 120.5,-211.5 120.5,-181.5 25.5,-181.5"/>
<text text-anchor="start" x="33.5" y="-199.5" font-family="Helvetica,sans-Serif" font-size="10.00">std::basic_string&lt;</text>
<text text-anchor="middle" x="73" y="-188.5" font-family="Helvetica,sans-Serif" font-size="10.00"> char &gt;</text>
</a>
</g>
</g>
<!-- Node4&#45;&gt;Node3 -->
<g id="edge3" class="edge"><title>Node4&#45;&gt;Node3</title>
<path fill="none" stroke="midnightblue" d="M73,-171.352C73,-161.513 73,-150.775 73,-143.54"/>
<polygon fill="midnightblue" stroke="midnightblue" points="69.5001,-171.468 73,-181.468 76.5001,-171.468 69.5001,-171.468"/>
</g>
</g>
</svg>
