<?xml version="1.0" encoding="UTF-8" standalone="no"?>
<!DOCTYPE svg PUBLIC "-//W3C//DTD SVG 1.1//EN"
 "http://www.w3.org/Graphics/SVG/1.1/DTD/svg11.dtd">
<!-- Generated by graphviz version 2.38.0 (20140413.2041)
 -->
<!-- Title: blfwk::GetProperty Pages: 1 -->
<svg width="207pt" height="230pt"
 viewBox="0.00 0.00 206.50 230.00" xmlns="http://www.w3.org/2000/svg" xmlns:xlink="http://www.w3.org/1999/xlink">
<g id="graph0" class="graph" transform="scale(1 1) rotate(0) translate(4 226)">
<title>blfwk::GetProperty</title>
<polygon fill="white" stroke="none" points="-4,4 -4,-226 202.5,-226 202.5,4 -4,4"/>
<!-- Node1 -->
<g id="node1" class="node"><title>Node1</title>
<polygon fill="#bfbfbf" stroke="black" points="79,-0.5 79,-19.5 176,-19.5 176,-0.5 79,-0.5"/>
<text text-anchor="middle" x="127.5" y="-7.5" font-family="Helvetica,sans-Serif" font-size="10.00">blfwk::GetProperty</text>
</g>
<!-- Node2 -->
<g id="node2" class="node"><title>Node2</title>
<g id="a_node2"><a xlink:href="group__host__commands.html#classblfwk_1_1_command" target="_top" xlink:title="Represents a bootloader command. ">
<polygon fill="white" stroke="black" points="3,-67.5 3,-86.5 92,-86.5 92,-67.5 3,-67.5"/>
<text text-anchor="middle" x="47.5" y="-74.5" font-family="Helvetica,sans-Serif" font-size="10.00">blfwk::Command</text>
</a>
</g>
</g>
<!-- Node2&#45;&gt;Node1 -->
<g id="edge1" class="edge"><title>Node2&#45;&gt;Node1</title>
<path fill="none" stroke="midnightblue" d="M66.3143,-60.7134C82.076,-47.907 104.007,-30.0884 116.882,-19.6273"/>
<polygon fill="midnightblue" stroke="midnightblue" points="63.8432,-58.2114 58.2892,-67.2338 68.2574,-63.6443 63.8432,-58.2114"/>
</g>
<!-- Node3 -->
<g id="node3" class="node"><title>Node3</title>
<g id="a_node3"><a xlink:title="STL class. ">
<polygon fill="white" stroke="#bfbfbf" points="17.5,-134.5 17.5,-153.5 77.5,-153.5 77.5,-134.5 17.5,-134.5"/>
<text text-anchor="middle" x="47.5" y="-141.5" font-family="Helvetica,sans-Serif" font-size="10.00">std::string</text>
</a>
</g>
</g>
<!-- Node3&#45;&gt;Node2 -->
<g id="edge2" class="edge"><title>Node3&#45;&gt;Node2</title>
<path fill="none" stroke="#9a32cd" stroke-dasharray="5,2" d="M47.5,-124.037C47.5,-111.67 47.5,-96.1198 47.5,-86.6273"/>
<polygon fill="#9a32cd" stroke="#9a32cd" points="44.0001,-124.234 47.5,-134.234 51.0001,-124.234 44.0001,-124.234"/>
<text text-anchor="middle" x="91" y="-108" font-family="Helvetica,sans-Serif" font-size="10.00"> m_responseDetails</text>
</g>
<!-- Node4 -->
<g id="node4" class="node"><title>Node4</title>
<g id="a_node4"><a xlink:title="STL class. ">
<polygon fill="white" stroke="#bfbfbf" points="0,-191.5 0,-221.5 95,-221.5 95,-191.5 0,-191.5"/>
<text text-anchor="start" x="8" y="-209.5" font-family="Helvetica,sans-Serif" font-size="10.00">std::basic_string&lt;</text>
<text text-anchor="middle" x="47.5" y="-198.5" font-family="Helvetica,sans-Serif" font-size="10.00"> char &gt;</text>
</a>
</g>
</g>
<!-- Node4&#45;&gt;Node3 -->
<g id="edge3" class="edge"><title>Node4&#45;&gt;Node3</title>
<path fill="none" stroke="midnightblue" d="M47.5,-181.352C47.5,-171.513 47.5,-160.775 47.5,-153.54"/>
<polygon fill="midnightblue" stroke="midnightblue" points="44.0001,-181.468 47.5,-191.468 51.0001,-181.468 44.0001,-181.468"/>
</g>
<!-- Node5 -->
<g id="node5" class="node"><title>Node5</title>
<g id="a_node5"><a xlink:href="group__host__commands.html#structblfwk_1_1property__t" target="_top" xlink:title="blfwk::property_t">
<polygon fill="white" stroke="black" points="110.5,-67.5 110.5,-86.5 198.5,-86.5 198.5,-67.5 110.5,-67.5"/>
<text text-anchor="middle" x="154.5" y="-74.5" font-family="Helvetica,sans-Serif" font-size="10.00">blfwk::property_t</text>
</a>
</g>
</g>
<!-- Node5&#45;&gt;Node1 -->
<g id="edge4" class="edge"><title>Node5&#45;&gt;Node1</title>
<path fill="none" stroke="#9a32cd" stroke-dasharray="5,2" d="M146.936,-57.79C141.751,-45.3076 135.107,-29.3135 131.084,-19.6273"/>
<polygon fill="#9a32cd" stroke="#9a32cd" points="143.79,-59.3415 150.859,-67.2338 150.255,-56.6562 143.79,-59.3415"/>
<text text-anchor="middle" x="169.5" y="-41" font-family="Helvetica,sans-Serif" font-size="10.00"> m_property</text>
</g>
</g>
</svg>
