<?xml version="1.0" encoding="UTF-8" standalone="no"?>
<!DOCTYPE svg PUBLIC "-//W3C//DTD SVG 1.1//EN"
 "http://www.w3.org/Graphics/SVG/1.1/DTD/svg11.dtd">
<!-- Generated by graphviz version 2.38.0 (20140413.2041)
 -->
<!-- Title: blfwk::SerialPacketizer Pages: 1 -->
<svg width="350pt" height="296pt"
 viewBox="0.00 0.00 349.50 296.00" xmlns="http://www.w3.org/2000/svg" xmlns:xlink="http://www.w3.org/1999/xlink">
<g id="graph0" class="graph" transform="scale(1 1) rotate(0) translate(4 292)">
<title>blfwk::SerialPacketizer</title>
<polygon fill="white" stroke="none" points="-4,4 -4,-292 345.5,-292 345.5,4 -4,4"/>
<!-- Node1 -->
<g id="node1" class="node"><title>Node1</title>
<polygon fill="#bfbfbf" stroke="black" points="159,-0.5 159,-19.5 275,-19.5 275,-0.5 159,-0.5"/>
<text text-anchor="middle" x="217" y="-7.5" font-family="Helvetica,sans-Serif" font-size="10.00">blfwk::SerialPacketizer</text>
</g>
<!-- Node2 -->
<g id="node2" class="node"><title>Node2</title>
<g id="a_node2"><a xlink:href="group__host__packetizers.html#classblfwk_1_1_packetizer" target="_top" xlink:title="Interface class for packetization of commands and data. ">
<polygon fill="white" stroke="black" points="109.5,-67.5 109.5,-86.5 200.5,-86.5 200.5,-67.5 109.5,-67.5"/>
<text text-anchor="middle" x="155" y="-74.5" font-family="Helvetica,sans-Serif" font-size="10.00">blfwk::Packetizer</text>
</a>
</g>
</g>
<!-- Node2&#45;&gt;Node1 -->
<g id="edge1" class="edge"><title>Node2&#45;&gt;Node1</title>
<path fill="none" stroke="midnightblue" d="M170.265,-59.9968C182.423,-47.2496 198.977,-29.8947 208.771,-19.6273"/>
<polygon fill="midnightblue" stroke="midnightblue" points="167.731,-57.582 163.362,-67.2338 172.796,-62.4134 167.731,-57.582"/>
</g>
<!-- Node3 -->
<g id="node3" class="node"><title>Node3</title>
<g id="a_node3"><a xlink:href="group__host__peripherals.html#classblfwk_1_1_peripheral" target="_top" xlink:title="Represents a peripheral. ">
<polygon fill="white" stroke="black" points="0,-134.5 0,-153.5 88,-153.5 88,-134.5 0,-134.5"/>
<text text-anchor="middle" x="44" y="-141.5" font-family="Helvetica,sans-Serif" font-size="10.00">blfwk::Peripheral</text>
</a>
</g>
</g>
<!-- Node3&#45;&gt;Node2 -->
<g id="edge2" class="edge"><title>Node3&#45;&gt;Node2</title>
<path fill="none" stroke="#9a32cd" stroke-dasharray="5,2" d="M61.0284,-127.698C69.8606,-120.246 81.0668,-111.513 92,-105 104.268,-97.6919 118.877,-91.3025 130.938,-86.5763"/>
<polygon fill="#9a32cd" stroke="#9a32cd" points="58.6361,-125.14 53.3742,-134.336 63.2223,-130.428 58.6361,-125.14"/>
<text text-anchor="middle" x="121.5" y="-108" font-family="Helvetica,sans-Serif" font-size="10.00"> m_peripheral</text>
</g>
<!-- Node4 -->
<g id="node4" class="node"><title>Node4</title>
<g id="a_node4"><a xlink:href="group__bl__core.html#unionstandard__version__t" target="_top" xlink:title="Structure of version property. ">
<polygon fill="white" stroke="black" points="106,-134.5 106,-153.5 204,-153.5 204,-134.5 106,-134.5"/>
<text text-anchor="middle" x="155" y="-141.5" font-family="Helvetica,sans-Serif" font-size="10.00">standard_version_t</text>
</a>
</g>
</g>
<!-- Node4&#45;&gt;Node2 -->
<g id="edge3" class="edge"><title>Node4&#45;&gt;Node2</title>
<path fill="none" stroke="#9a32cd" stroke-dasharray="5,2" d="M155,-124.037C155,-111.67 155,-96.1198 155,-86.6273"/>
<polygon fill="#9a32cd" stroke="#9a32cd" points="151.5,-124.234 155,-134.234 158.5,-124.234 151.5,-124.234"/>
<text text-anchor="middle" x="178.5" y="-108" font-family="Helvetica,sans-Serif" font-size="10.00"> m_version</text>
</g>
<!-- Node5 -->
<g id="node5" class="node"><title>Node5</title>
<g id="a_node5"><a xlink:href="group__packet.html#structserial__data__t" target="_top" xlink:title="Format of global context data. ">
<polygon fill="white" stroke="black" points="226,-67.5 226,-86.5 298,-86.5 298,-67.5 226,-67.5"/>
<text text-anchor="middle" x="262" y="-74.5" font-family="Helvetica,sans-Serif" font-size="10.00">serial_data_t</text>
</a>
</g>
</g>
<!-- Node5&#45;&gt;Node1 -->
<g id="edge4" class="edge"><title>Node5&#45;&gt;Node1</title>
<path fill="none" stroke="#9a32cd" stroke-dasharray="5,2" d="M250.164,-58.9037C241.42,-46.2729 229.88,-29.6041 222.973,-19.6273"/>
<polygon fill="#9a32cd" stroke="#9a32cd" points="247.361,-61.0041 255.931,-67.2338 253.117,-57.0196 247.361,-61.0041"/>
<text text-anchor="middle" x="279" y="-41" font-family="Helvetica,sans-Serif" font-size="10.00"> m_serialContext</text>
</g>
<!-- Node6 -->
<g id="node6" class="node"><title>Node6</title>
<g id="a_node6"><a xlink:href="group__packet.html#structserial__framing__packet__t" target="_top" xlink:title="Framing packet with data area. ">
<polygon fill="white" stroke="black" points="222.5,-134.5 222.5,-153.5 341.5,-153.5 341.5,-134.5 222.5,-134.5"/>
<text text-anchor="middle" x="282" y="-141.5" font-family="Helvetica,sans-Serif" font-size="10.00">serial_framing_packet_t</text>
</a>
</g>
</g>
<!-- Node6&#45;&gt;Node5 -->
<g id="edge5" class="edge"><title>Node6&#45;&gt;Node5</title>
<path fill="none" stroke="#9a32cd" stroke-dasharray="5,2" d="M276.281,-124.415C272.458,-111.988 267.605,-96.2166 264.655,-86.6273"/>
<polygon fill="#9a32cd" stroke="#9a32cd" points="273.017,-125.705 279.303,-134.234 279.707,-123.647 273.017,-125.705"/>
<text text-anchor="middle" x="306" y="-108" font-family="Helvetica,sans-Serif" font-size="10.00"> framingPacket</text>
</g>
<!-- Node7 -->
<g id="node7" class="node"><title>Node7</title>
<g id="a_node7"><a xlink:href="group__packet.html#structframing__data__packet__t" target="_top" xlink:title="Serial framing data packet. ">
<polygon fill="white" stroke="black" points="224.5,-201.5 224.5,-220.5 339.5,-220.5 339.5,-201.5 224.5,-201.5"/>
<text text-anchor="middle" x="282" y="-208.5" font-family="Helvetica,sans-Serif" font-size="10.00">framing_data_packet_t</text>
</a>
</g>
</g>
<!-- Node7&#45;&gt;Node6 -->
<g id="edge6" class="edge"><title>Node7&#45;&gt;Node6</title>
<path fill="none" stroke="#9a32cd" stroke-dasharray="5,2" d="M282,-191.037C282,-178.67 282,-163.12 282,-153.627"/>
<polygon fill="#9a32cd" stroke="#9a32cd" points="278.5,-191.234 282,-201.234 285.5,-191.234 278.5,-191.234"/>
<text text-anchor="middle" x="308.5" y="-175" font-family="Helvetica,sans-Serif" font-size="10.00"> dataPacket</text>
</g>
<!-- Node8 -->
<g id="node8" class="node"><title>Node8</title>
<g id="a_node8"><a xlink:href="group__packet.html#structframing__header__t" target="_top" xlink:title="Serial framing header. ">
<polygon fill="white" stroke="black" points="236.5,-268.5 236.5,-287.5 327.5,-287.5 327.5,-268.5 236.5,-268.5"/>
<text text-anchor="middle" x="282" y="-275.5" font-family="Helvetica,sans-Serif" font-size="10.00">framing_header_t</text>
</a>
</g>
</g>
<!-- Node8&#45;&gt;Node7 -->
<g id="edge7" class="edge"><title>Node8&#45;&gt;Node7</title>
<path fill="none" stroke="#9a32cd" stroke-dasharray="5,2" d="M282,-258.037C282,-245.67 282,-230.12 282,-220.627"/>
<polygon fill="#9a32cd" stroke="#9a32cd" points="278.5,-258.234 282,-268.234 285.5,-258.234 278.5,-258.234"/>
<text text-anchor="middle" x="298.5" y="-242" font-family="Helvetica,sans-Serif" font-size="10.00"> header</text>
</g>
</g>
</svg>
