<?xml version="1.0" encoding="UTF-8" standalone="no"?>
<!DOCTYPE svg PUBLIC "-//W3C//DTD SVG 1.1//EN"
 "http://www.w3.org/Graphics/SVG/1.1/DTD/svg11.dtd">
<!-- Generated by graphviz version 2.38.0 (20140413.2041)
 -->
<!-- Title: blfwk::WriteMemory Pages: 1 -->
<svg width="207pt" height="220pt"
 viewBox="0.00 0.00 207.00 220.00" xmlns="http://www.w3.org/2000/svg" xmlns:xlink="http://www.w3.org/1999/xlink">
<g id="graph0" class="graph" transform="scale(1 1) rotate(0) translate(4 216)">
<title>blfwk::WriteMemory</title>
<polygon fill="white" stroke="none" points="-4,4 -4,-216 203,-216 203,4 -4,4"/>
<!-- Node1 -->
<g id="node1" class="node"><title>Node1</title>
<polygon fill="#bfbfbf" stroke="black" points="17,-0.5 17,-19.5 120,-19.5 120,-0.5 17,-0.5"/>
<text text-anchor="middle" x="68.5" y="-7.5" font-family="Helvetica,sans-Serif" font-size="10.00">blfwk::WriteMemory</text>
</g>
<!-- Node2 -->
<g id="node2" class="node"><title>Node2</title>
<g id="a_node2"><a xlink:href="group__host__commands.html#classblfwk_1_1_command" target="_top" xlink:title="Represents a bootloader command. ">
<polygon fill="white" stroke="black" points="110,-57.5 110,-76.5 199,-76.5 199,-57.5 110,-57.5"/>
<text text-anchor="middle" x="154.5" y="-64.5" font-family="Helvetica,sans-Serif" font-size="10.00">blfwk::Command</text>
</a>
</g>
</g>
<!-- Node2&#45;&gt;Node1 -->
<g id="edge1" class="edge"><title>Node2&#45;&gt;Node1</title>
<path fill="none" stroke="midnightblue" d="M132.335,-51.8244C116.355,-41.605 95.3137,-28.1483 81.8431,-19.5334"/>
<polygon fill="midnightblue" stroke="midnightblue" points="130.752,-54.967 141.063,-57.4063 134.524,-49.0699 130.752,-54.967"/>
</g>
<!-- Node3 -->
<g id="node3" class="node"><title>Node3</title>
<g id="a_node3"><a xlink:title="STL class. ">
<polygon fill="white" stroke="#bfbfbf" points="17.5,-124.5 17.5,-143.5 77.5,-143.5 77.5,-124.5 17.5,-124.5"/>
<text text-anchor="middle" x="47.5" y="-131.5" font-family="Helvetica,sans-Serif" font-size="10.00">std::string</text>
</a>
</g>
</g>
<!-- Node3&#45;&gt;Node1 -->
<g id="edge4" class="edge"><title>Node3&#45;&gt;Node1</title>
<path fill="none" stroke="#9a32cd" stroke-dasharray="5,2" d="M42.5656,-114.452C39.2349,-98.8582 36.3042,-76.1163 41.5,-57 45.386,-42.7024 54.9614,-28.3081 61.5965,-19.5229"/>
<polygon fill="#9a32cd" stroke="#9a32cd" points="39.2135,-115.482 44.9512,-124.389 46.0201,-113.848 39.2135,-115.482"/>
<text text-anchor="middle" x="71.5" y="-64.5" font-family="Helvetica,sans-Serif" font-size="10.00"> m_fileOrData</text>
</g>
<!-- Node3&#45;&gt;Node2 -->
<g id="edge2" class="edge"><title>Node3&#45;&gt;Node2</title>
<path fill="none" stroke="#9a32cd" stroke-dasharray="5,2" d="M70.6413,-118.942C91.8315,-106.07 122.519,-87.4274 140.298,-76.6273"/>
<polygon fill="#9a32cd" stroke="#9a32cd" points="68.66,-116.051 61.9305,-124.234 72.2943,-122.033 68.66,-116.051"/>
<text text-anchor="middle" x="150" y="-98" font-family="Helvetica,sans-Serif" font-size="10.00"> m_responseDetails</text>
</g>
<!-- Node4 -->
<g id="node4" class="node"><title>Node4</title>
<g id="a_node4"><a xlink:title="STL class. ">
<polygon fill="white" stroke="#bfbfbf" points="0,-181.5 0,-211.5 95,-211.5 95,-181.5 0,-181.5"/>
<text text-anchor="start" x="8" y="-199.5" font-family="Helvetica,sans-Serif" font-size="10.00">std::basic_string&lt;</text>
<text text-anchor="middle" x="47.5" y="-188.5" font-family="Helvetica,sans-Serif" font-size="10.00"> char &gt;</text>
</a>
</g>
</g>
<!-- Node4&#45;&gt;Node3 -->
<g id="edge3" class="edge"><title>Node4&#45;&gt;Node3</title>
<path fill="none" stroke="midnightblue" d="M47.5,-171.352C47.5,-161.513 47.5,-150.775 47.5,-143.54"/>
<polygon fill="midnightblue" stroke="midnightblue" points="44.0001,-171.468 47.5,-181.468 51.0001,-171.468 44.0001,-171.468"/>
</g>
</g>
</svg>
