<?xml version="1.0" encoding="UTF-8" standalone="no"?>
<!DOCTYPE svg PUBLIC "-//W3C//DTD SVG 1.1//EN"
 "http://www.w3.org/Graphics/SVG/1.1/DTD/svg11.dtd">
<!-- Generated by graphviz version 2.38.0 (20140413.2041)
 -->
<!-- Title: include Pages: 1 -->
<svg width="694pt" height="111pt"
 viewBox="0.00 0.00 694.00 111.00" xmlns="http://www.w3.org/2000/svg" xmlns:xlink="http://www.w3.org/1999/xlink">
<g id="graph0" class="graph" transform="scale(1 1) rotate(0) translate(4 107)">
<title>include</title>
<polygon fill="white" stroke="none" points="-4,4 -4,-107 690,-107 690,4 -4,4"/>
<g id="clust1" class="cluster"><title>clusterdir_115df66c6e11547bb9b094eddb581a6e</title>
<g id="a_clust1"><a xlink:href="dir_115df66c6e11547bb9b094eddb581a6e.html" target="_top" xlink:title="device">
<polygon fill="#ddddee" stroke="black" points="8,-8 8,-95 678,-95 678,-8 8,-8"/>
<text text-anchor="middle" x="343" y="-83" font-family="Helvetica,sans-Serif" font-size="10.00">device</text>
</a>
</g>
</g>
<g id="clust2" class="cluster"><title>clusterdir_e9561d3932f7c6f98cdf2f7245b13206</title>
<g id="a_clust2"><a xlink:href="dir_e9561d3932f7c6f98cdf2f7245b13206.html" target="_top">
<polygon fill="#eeeeff" stroke="black" points="16,-16 16,-68 670,-68 670,-16 16,-16"/>
</a>
</g>
</g>
<!-- dir_e9561d3932f7c6f98cdf2f7245b13206 -->
<g id="node1" class="node"><title>dir_e9561d3932f7c6f98cdf2f7245b13206</title>
<text text-anchor="middle" x="635" y="-39.5" font-family="Helvetica,sans-Serif" font-size="10.00">include</text>
</g>
<!-- dir_dcb237f02ac8e5752b235b9fd5bc3bf2 -->
<g id="node2" class="node"><title>dir_dcb237f02ac8e5752b235b9fd5bc3bf2</title>
<g id="a_node2"><a xlink:href="dir_dcb237f02ac8e5752b235b9fd5bc3bf2.html" target="_top" xlink:title="frdmkl25z">
<polygon fill="white" stroke="black" points="589.5,-60 530.5,-60 530.5,-24 589.5,-24 589.5,-60"/>
<text text-anchor="middle" x="560" y="-39.5" font-family="Helvetica,sans-Serif" font-size="10.00">frdmkl25z</text>
</a>
</g>
</g>
<!-- dir_2b0963ed7a533132d1566635cb8854e0 -->
<g id="node3" class="node"><title>dir_2b0963ed7a533132d1566635cb8854e0</title>
<g id="a_node3"><a xlink:href="dir_2b0963ed7a533132d1566635cb8854e0.html" target="_top" xlink:title="mk22f">
<polygon fill="white" stroke="black" points="512,-60 458,-60 458,-24 512,-24 512,-60"/>
<text text-anchor="middle" x="485" y="-39.5" font-family="Helvetica,sans-Serif" font-size="10.00">mk22f</text>
</a>
</g>
</g>
<!-- dir_990cec0bb58232a2f8ad36496d825eb2 -->
<g id="node4" class="node"><title>dir_990cec0bb58232a2f8ad36496d825eb2</title>
<g id="a_node4"><a xlink:href="dir_990cec0bb58232a2f8ad36496d825eb2.html" target="_top" xlink:title="mk64f120m">
<polygon fill="white" stroke="black" points="439.5,-60 372.5,-60 372.5,-24 439.5,-24 439.5,-60"/>
<text text-anchor="middle" x="406" y="-39.5" font-family="Helvetica,sans-Serif" font-size="10.00">mk64f120m</text>
</a>
</g>
</g>
<!-- dir_84cae2d041a3937135ffe1df03953624 -->
<g id="node5" class="node"><title>dir_84cae2d041a3937135ffe1df03953624</title>
<g id="a_node5"><a xlink:href="dir_84cae2d041a3937135ffe1df03953624.html" target="_top" xlink:title="mk80f150m">
<polygon fill="white" stroke="black" points="354.5,-60 287.5,-60 287.5,-24 354.5,-24 354.5,-60"/>
<text text-anchor="middle" x="321" y="-39.5" font-family="Helvetica,sans-Serif" font-size="10.00">mk80f150m</text>
</a>
</g>
</g>
<!-- dir_1edd4a2308b95563cd21f80c2e71ed5f -->
<g id="node6" class="node"><title>dir_1edd4a2308b95563cd21f80c2e71ed5f</title>
<g id="a_node6"><a xlink:href="dir_1edd4a2308b95563cd21f80c2e71ed5f.html" target="_top" xlink:title="mkl80z72m">
<polygon fill="white" stroke="black" points="269.5,-60 202.5,-60 202.5,-24 269.5,-24 269.5,-60"/>
<text text-anchor="middle" x="236" y="-39.5" font-family="Helvetica,sans-Serif" font-size="10.00">mkl80z72m</text>
</a>
</g>
</g>
<!-- dir_8726f891d0e6242a1b09d7fad35556ac -->
<g id="node7" class="node"><title>dir_8726f891d0e6242a1b09d7fad35556ac</title>
<g id="a_node7"><a xlink:href="dir_8726f891d0e6242a1b09d7fad35556ac.html" target="_top" xlink:title="twrk65f180m">
<polygon fill="white" stroke="black" points="184.5,-60 113.5,-60 113.5,-24 184.5,-24 184.5,-60"/>
<text text-anchor="middle" x="149" y="-39.5" font-family="Helvetica,sans-Serif" font-size="10.00">twrk65f180m</text>
</a>
</g>
</g>
<!-- dir_732ef891e3c0e6486c4a5d963ae93018 -->
<g id="node8" class="node"><title>dir_732ef891e3c0e6486c4a5d963ae93018</title>
<g id="a_node8"><a xlink:href="dir_732ef891e3c0e6486c4a5d963ae93018.html" target="_top" xlink:title="twrkl25z48m">
<polygon fill="white" stroke="black" points="95.5,-60 24.5,-60 24.5,-24 95.5,-24 95.5,-60"/>
<text text-anchor="middle" x="60" y="-39.5" font-family="Helvetica,sans-Serif" font-size="10.00">twrkl25z48m</text>
</a>
</g>
</g>
</g>
</svg>
