<?xml version="1.0" encoding="UTF-8" standalone="no"?>
<!DOCTYPE svg PUBLIC "-//W3C//DTD SVG 1.1//EN"
 "http://www.w3.org/Graphics/SVG/1.1/DTD/svg11.dtd">
<!-- Generated by graphviz version 2.38.0 (20140413.2041)
 -->
<!-- Title: classes Pages: 1 -->
<svg width="326pt" height="111pt"
 viewBox="0.00 0.00 326.00 111.00" xmlns="http://www.w3.org/2000/svg" xmlns:xlink="http://www.w3.org/1999/xlink">
<g id="graph0" class="graph" transform="scale(1 1) rotate(0) translate(4 107)">
<title>classes</title>
<polygon fill="white" stroke="none" points="-4,4 -4,-107 322,-107 322,4 -4,4"/>
<g id="clust1" class="cluster"><title>clusterdir_4dfb01492e0c443a0ae756094d557dde</title>
<g id="a_clust1"><a xlink:href="dir_4dfb01492e0c443a0ae756094d557dde.html" target="_top" xlink:title="sources">
<polygon fill="#ddddee" stroke="black" points="8,-8 8,-95 310,-95 310,-8 8,-8"/>
<text text-anchor="middle" x="159" y="-83" font-family="Helvetica,sans-Serif" font-size="10.00">sources</text>
</a>
</g>
</g>
<g id="clust2" class="cluster"><title>clusterdir_e08d5da428e7a566d859eb3c72e271c8</title>
<g id="a_clust2"><a xlink:href="dir_e08d5da428e7a566d859eb3c72e271c8.html" target="_top">
<polygon fill="#eeeeff" stroke="black" points="16,-16 16,-68 302,-68 302,-16 16,-16"/>
</a>
</g>
</g>
<!-- dir_e08d5da428e7a566d859eb3c72e271c8 -->
<g id="node1" class="node"><title>dir_e08d5da428e7a566d859eb3c72e271c8</title>
<text text-anchor="middle" x="267" y="-39.5" font-family="Helvetica,sans-Serif" font-size="10.00">classes</text>
</g>
<!-- dir_f0af9cbc6f54eb446ec0710a3cd44c25 -->
<g id="node2" class="node"><title>dir_f0af9cbc6f54eb446ec0710a3cd44c25</title>
<g id="a_node2"><a xlink:href="dir_f0af9cbc6f54eb446ec0710a3cd44c25.html" target="_top" xlink:title="common">
<polygon fill="white" stroke="black" points="222,-60 168,-60 168,-24 222,-24 222,-60"/>
<text text-anchor="middle" x="195" y="-39.5" font-family="Helvetica,sans-Serif" font-size="10.00">common</text>
</a>
</g>
</g>
<!-- dir_91a595f9af68e5533e2b20ac50012b0a -->
<g id="node3" class="node"><title>dir_91a595f9af68e5533e2b20ac50012b0a</title>
<g id="a_node3"><a xlink:href="dir_91a595f9af68e5533e2b20ac50012b0a.html" target="_top" xlink:title="hid">
<polygon fill="white" stroke="black" points="150,-60 96,-60 96,-24 150,-24 150,-60"/>
<text text-anchor="middle" x="123" y="-39.5" font-family="Helvetica,sans-Serif" font-size="10.00">hid</text>
</a>
</g>
</g>
<!-- dir_dbddea284b54cc0c0e6e951a4c02df26 -->
<g id="node4" class="node"><title>dir_dbddea284b54cc0c0e6e951a4c02df26</title>
<g id="a_node4"><a xlink:href="dir_dbddea284b54cc0c0e6e951a4c02df26.html" target="_top" xlink:title="include">
<polygon fill="white" stroke="black" points="78,-60 24,-60 24,-24 78,-24 78,-60"/>
<text text-anchor="middle" x="51" y="-39.5" font-family="Helvetica,sans-Serif" font-size="10.00">include</text>
</a>
</g>
</g>
</g>
</svg>
