<?xml version="1.0" encoding="UTF-8" standalone="no"?>
<!DOCTYPE svg PUBLIC "-//W3C//DTD SVG 1.1//EN"
 "http://www.w3.org/Graphics/SVG/1.1/DTD/svg11.dtd">
<!-- Generated by graphviz version 2.38.0 (20140413.2041)
 -->
<!-- Title: sources Pages: 1 -->
<svg width="328pt" height="111pt"
 viewBox="0.00 0.00 328.00 111.00" xmlns="http://www.w3.org/2000/svg" xmlns:xlink="http://www.w3.org/1999/xlink">
<g id="graph0" class="graph" transform="scale(1 1) rotate(0) translate(4 107)">
<title>sources</title>
<polygon fill="white" stroke="none" points="-4,4 -4,-107 324,-107 324,4 -4,4"/>
<g id="clust1" class="cluster"><title>clusterdir_115df66c6e11547bb9b094eddb581a6e</title>
<g id="a_clust1"><a xlink:href="dir_115df66c6e11547bb9b094eddb581a6e.html" target="_top" xlink:title="device">
<polygon fill="#ddddee" stroke="black" points="8,-8 8,-95 312,-95 312,-8 8,-8"/>
<text text-anchor="middle" x="160" y="-83" font-family="Helvetica,sans-Serif" font-size="10.00">device</text>
</a>
</g>
</g>
<g id="clust2" class="cluster"><title>clusterdir_4dfb01492e0c443a0ae756094d557dde</title>
<g id="a_clust2"><a xlink:href="dir_4dfb01492e0c443a0ae756094d557dde.html" target="_top">
<polygon fill="#eeeeff" stroke="black" points="16,-16 16,-68 304,-68 304,-16 16,-16"/>
</a>
</g>
</g>
<!-- dir_4dfb01492e0c443a0ae756094d557dde -->
<g id="node1" class="node"><title>dir_4dfb01492e0c443a0ae756094d557dde</title>
<text text-anchor="middle" x="269" y="-39.5" font-family="Helvetica,sans-Serif" font-size="10.00">sources</text>
</g>
<!-- dir_f6deee7cf9d2ed43a9490e4f565a362b -->
<g id="node2" class="node"><title>dir_f6deee7cf9d2ed43a9490e4f565a362b</title>
<g id="a_node2"><a xlink:href="dir_f6deee7cf9d2ed43a9490e4f565a362b.html" target="_top" xlink:title="bsp">
<polygon fill="white" stroke="red" points="224,-60 170,-60 170,-24 224,-24 224,-60"/>
<text text-anchor="middle" x="197" y="-39.5" font-family="Helvetica,sans-Serif" font-size="10.00">bsp</text>
</a>
</g>
</g>
<!-- dir_e08d5da428e7a566d859eb3c72e271c8 -->
<g id="node3" class="node"><title>dir_e08d5da428e7a566d859eb3c72e271c8</title>
<g id="a_node3"><a xlink:href="dir_e08d5da428e7a566d859eb3c72e271c8.html" target="_top" xlink:title="classes">
<polygon fill="white" stroke="red" points="152,-60 98,-60 98,-24 152,-24 152,-60"/>
<text text-anchor="middle" x="125" y="-39.5" font-family="Helvetica,sans-Serif" font-size="10.00">classes</text>
</a>
</g>
</g>
<!-- dir_348b0d9bdcfad088ea9b4acaeae44421 -->
<g id="node4" class="node"><title>dir_348b0d9bdcfad088ea9b4acaeae44421</title>
<g id="a_node4"><a xlink:href="dir_348b0d9bdcfad088ea9b4acaeae44421.html" target="_top" xlink:title="controller">
<polygon fill="white" stroke="red" points="80,-60 24,-60 24,-24 80,-24 80,-60"/>
<text text-anchor="middle" x="52" y="-39.5" font-family="Helvetica,sans-Serif" font-size="10.00">controller</text>
</a>
</g>
</g>
</g>
</svg>
