<?xml version="1.0" encoding="UTF-8" standalone="no"?>
<!DOCTYPE svg PUBLIC "-//W3C//DTD SVG 1.1//EN"
 "http://www.w3.org/Graphics/SVG/1.1/DTD/svg11.dtd">
<!-- Generated by graphviz version 2.38.0 (20140413.2041)
 -->
<!-- Title: bsp Pages: 1 -->
<svg width="694pt" height="111pt"
 viewBox="0.00 0.00 694.00 111.00" xmlns="http://www.w3.org/2000/svg" xmlns:xlink="http://www.w3.org/1999/xlink">
<g id="graph0" class="graph" transform="scale(1 1) rotate(0) translate(4 107)">
<title>bsp</title>
<polygon fill="white" stroke="none" points="-4,4 -4,-107 690,-107 690,4 -4,4"/>
<g id="clust1" class="cluster"><title>clusterdir_4dfb01492e0c443a0ae756094d557dde</title>
<g id="a_clust1"><a xlink:href="dir_4dfb01492e0c443a0ae756094d557dde.html" target="_top" xlink:title="sources">
<polygon fill="#ddddee" stroke="black" points="8,-8 8,-95 678,-95 678,-8 8,-8"/>
<text text-anchor="middle" x="343" y="-83" font-family="Helvetica,sans-Serif" font-size="10.00">sources</text>
</a>
</g>
</g>
<g id="clust2" class="cluster"><title>clusterdir_f6deee7cf9d2ed43a9490e4f565a362b</title>
<g id="a_clust2"><a xlink:href="dir_f6deee7cf9d2ed43a9490e4f565a362b.html" target="_top">
<polygon fill="#eeeeff" stroke="black" points="16,-16 16,-68 670,-68 670,-16 16,-16"/>
</a>
</g>
</g>
<!-- dir_f6deee7cf9d2ed43a9490e4f565a362b -->
<g id="node1" class="node"><title>dir_f6deee7cf9d2ed43a9490e4f565a362b</title>
<text text-anchor="middle" x="635" y="-39.5" font-family="Helvetica,sans-Serif" font-size="10.00">bsp</text>
</g>
<!-- dir_dc9ea9d90eeeeac2976db2431bc948a2 -->
<g id="node2" class="node"><title>dir_dc9ea9d90eeeeac2976db2431bc948a2</title>
<g id="a_node2"><a xlink:href="dir_dc9ea9d90eeeeac2976db2431bc948a2.html" target="_top" xlink:title="frdmkl25z">
<polygon fill="white" stroke="black" points="589.5,-60 530.5,-60 530.5,-24 589.5,-24 589.5,-60"/>
<text text-anchor="middle" x="560" y="-39.5" font-family="Helvetica,sans-Serif" font-size="10.00">frdmkl25z</text>
</a>
</g>
</g>
<!-- dir_fb1257acce058dec4511330cc58ccde6 -->
<g id="node3" class="node"><title>dir_fb1257acce058dec4511330cc58ccde6</title>
<g id="a_node3"><a xlink:href="dir_fb1257acce058dec4511330cc58ccde6.html" target="_top" xlink:title="mk22f">
<polygon fill="white" stroke="black" points="512,-60 458,-60 458,-24 512,-24 512,-60"/>
<text text-anchor="middle" x="485" y="-39.5" font-family="Helvetica,sans-Serif" font-size="10.00">mk22f</text>
</a>
</g>
</g>
<!-- dir_a512d66ffdd6b28e24e0a064b2881f56 -->
<g id="node4" class="node"><title>dir_a512d66ffdd6b28e24e0a064b2881f56</title>
<g id="a_node4"><a xlink:href="dir_a512d66ffdd6b28e24e0a064b2881f56.html" target="_top" xlink:title="mk64f120m">
<polygon fill="white" stroke="black" points="439.5,-60 372.5,-60 372.5,-24 439.5,-24 439.5,-60"/>
<text text-anchor="middle" x="406" y="-39.5" font-family="Helvetica,sans-Serif" font-size="10.00">mk64f120m</text>
</a>
</g>
</g>
<!-- dir_76a18242f68dcc1f061dbd0ac54494a0 -->
<g id="node5" class="node"><title>dir_76a18242f68dcc1f061dbd0ac54494a0</title>
<g id="a_node5"><a xlink:href="dir_76a18242f68dcc1f061dbd0ac54494a0.html" target="_top" xlink:title="mk80f150m">
<polygon fill="white" stroke="black" points="354.5,-60 287.5,-60 287.5,-24 354.5,-24 354.5,-60"/>
<text text-anchor="middle" x="321" y="-39.5" font-family="Helvetica,sans-Serif" font-size="10.00">mk80f150m</text>
</a>
</g>
</g>
<!-- dir_22a6e9c4aac8e797467e6d2ef5127ee8 -->
<g id="node6" class="node"><title>dir_22a6e9c4aac8e797467e6d2ef5127ee8</title>
<g id="a_node6"><a xlink:href="dir_22a6e9c4aac8e797467e6d2ef5127ee8.html" target="_top" xlink:title="mkl80z72m">
<polygon fill="white" stroke="black" points="269.5,-60 202.5,-60 202.5,-24 269.5,-24 269.5,-60"/>
<text text-anchor="middle" x="236" y="-39.5" font-family="Helvetica,sans-Serif" font-size="10.00">mkl80z72m</text>
</a>
</g>
</g>
<!-- dir_20cd1b72c11432a760444a6add347b85 -->
<g id="node7" class="node"><title>dir_20cd1b72c11432a760444a6add347b85</title>
<g id="a_node7"><a xlink:href="dir_20cd1b72c11432a760444a6add347b85.html" target="_top" xlink:title="twrk65f180m">
<polygon fill="white" stroke="black" points="184.5,-60 113.5,-60 113.5,-24 184.5,-24 184.5,-60"/>
<text text-anchor="middle" x="149" y="-39.5" font-family="Helvetica,sans-Serif" font-size="10.00">twrk65f180m</text>
</a>
</g>
</g>
<!-- dir_31a33cb5d51dba0f55203ac8d048da82 -->
<g id="node8" class="node"><title>dir_31a33cb5d51dba0f55203ac8d048da82</title>
<g id="a_node8"><a xlink:href="dir_31a33cb5d51dba0f55203ac8d048da82.html" target="_top" xlink:title="twrkl25z48m">
<polygon fill="white" stroke="black" points="95.5,-60 24.5,-60 24.5,-24 95.5,-24 95.5,-60"/>
<text text-anchor="middle" x="60" y="-39.5" font-family="Helvetica,sans-Serif" font-size="10.00">twrkl25z48m</text>
</a>
</g>
</g>
</g>
</svg>
