<?xml version="1.0" encoding="UTF-8" standalone="no"?>
<!DOCTYPE svg PUBLIC "-//W3C//DTD SVG 1.1//EN"
 "http://www.w3.org/Graphics/SVG/1.1/DTD/svg11.dtd">
<!-- Generated by graphviz version 2.38.0 (20140413.2041)
 -->
<!-- Title: bsp Pages: 1 -->
<svg width="605pt" height="111pt"
 viewBox="0.00 0.00 605.00 111.00" xmlns="http://www.w3.org/2000/svg" xmlns:xlink="http://www.w3.org/1999/xlink">
<g id="graph0" class="graph" transform="scale(1 1) rotate(0) translate(4 107)">
<title>bsp</title>
<polygon fill="white" stroke="none" points="-4,4 -4,-107 601,-107 601,4 -4,4"/>
<g id="clust1" class="cluster"><title>clusterdir_70d3b41cbdbe6a3c0219091a1843aba1</title>
<g id="a_clust1"><a xlink:href="dir_70d3b41cbdbe6a3c0219091a1843aba1.html" target="_top" xlink:title="platform">
<polygon fill="#ddddee" stroke="black" points="8,-8 8,-95 589,-95 589,-8 8,-8"/>
<text text-anchor="middle" x="298.5" y="-83" font-family="Helvetica,sans-Serif" font-size="10.00">platform</text>
</a>
</g>
</g>
<g id="clust2" class="cluster"><title>clusterdir_90d83665dc866d89da569e7f9ef9b57c</title>
<g id="a_clust2"><a xlink:href="dir_90d83665dc866d89da569e7f9ef9b57c.html" target="_top">
<polygon fill="#eeeeff" stroke="black" points="16,-16 16,-68 581,-68 581,-16 16,-16"/>
</a>
</g>
</g>
<!-- dir_90d83665dc866d89da569e7f9ef9b57c -->
<g id="node1" class="node"><title>dir_90d83665dc866d89da569e7f9ef9b57c</title>
<text text-anchor="middle" x="546" y="-39.5" font-family="Helvetica,sans-Serif" font-size="10.00">bsp</text>
</g>
<!-- dir_26a185fa238ba8ea66cd20e4fcca9524 -->
<g id="node2" class="node"><title>dir_26a185fa238ba8ea66cd20e4fcca9524</title>
<g id="a_node2"><a xlink:href="dir_26a185fa238ba8ea66cd20e4fcca9524.html" target="_top" xlink:title="frdmkl25z">
<polygon fill="white" stroke="black" points="500.5,-60 441.5,-60 441.5,-24 500.5,-24 500.5,-60"/>
<text text-anchor="middle" x="471" y="-39.5" font-family="Helvetica,sans-Serif" font-size="10.00">frdmkl25z</text>
</a>
</g>
</g>
<!-- dir_0124dfd70656a1178ace11c2c4fe2235 -->
<g id="node3" class="node"><title>dir_0124dfd70656a1178ace11c2c4fe2235</title>
<g id="a_node3"><a xlink:href="dir_0124dfd70656a1178ace11c2c4fe2235.html" target="_top" xlink:title="mk22f">
<polygon fill="white" stroke="black" points="423,-60 369,-60 369,-24 423,-24 423,-60"/>
<text text-anchor="middle" x="396" y="-39.5" font-family="Helvetica,sans-Serif" font-size="10.00">mk22f</text>
</a>
</g>
</g>
<!-- dir_38a026fb8227b8ef656a573f35b9ee0b -->
<g id="node4" class="node"><title>dir_38a026fb8227b8ef656a573f35b9ee0b</title>
<g id="a_node4"><a xlink:href="dir_38a026fb8227b8ef656a573f35b9ee0b.html" target="_top" xlink:title="mk64f120m">
<polygon fill="white" stroke="black" points="350.5,-60 283.5,-60 283.5,-24 350.5,-24 350.5,-60"/>
<text text-anchor="middle" x="317" y="-39.5" font-family="Helvetica,sans-Serif" font-size="10.00">mk64f120m</text>
</a>
</g>
</g>
<!-- dir_c04d473f0d65c19d90178967d28587bb -->
<g id="node5" class="node"><title>dir_c04d473f0d65c19d90178967d28587bb</title>
<g id="a_node5"><a xlink:href="dir_c04d473f0d65c19d90178967d28587bb.html" target="_top" xlink:title="mk80f150m">
<polygon fill="white" stroke="black" points="265.5,-60 198.5,-60 198.5,-24 265.5,-24 265.5,-60"/>
<text text-anchor="middle" x="232" y="-39.5" font-family="Helvetica,sans-Serif" font-size="10.00">mk80f150m</text>
</a>
</g>
</g>
<!-- dir_656d95bbf2fbb0de562735e3ccc03ba5 -->
<g id="node6" class="node"><title>dir_656d95bbf2fbb0de562735e3ccc03ba5</title>
<g id="a_node6"><a xlink:href="dir_656d95bbf2fbb0de562735e3ccc03ba5.html" target="_top" xlink:title="mkl80z72m">
<polygon fill="white" stroke="black" points="180.5,-60 113.5,-60 113.5,-24 180.5,-24 180.5,-60"/>
<text text-anchor="middle" x="147" y="-39.5" font-family="Helvetica,sans-Serif" font-size="10.00">mkl80z72m</text>
</a>
</g>
</g>
<!-- dir_b281274849d60324d3676b30bf721826 -->
<g id="node7" class="node"><title>dir_b281274849d60324d3676b30bf721826</title>
<g id="a_node7"><a xlink:href="dir_b281274849d60324d3676b30bf721826.html" target="_top" xlink:title="twrk65f180m">
<polygon fill="white" stroke="black" points="95.5,-60 24.5,-60 24.5,-24 95.5,-24 95.5,-60"/>
<text text-anchor="middle" x="60" y="-39.5" font-family="Helvetica,sans-Serif" font-size="10.00">twrk65f180m</text>
</a>
</g>
</g>
</g>
</svg>
