<?xml version="1.0" encoding="UTF-8" standalone="no"?>
<!DOCTYPE svg PUBLIC "-//W3C//DTD SVG 1.1//EN"
 "http://www.w3.org/Graphics/SVG/1.1/DTD/svg11.dtd">
<!-- Generated by graphviz version 2.38.0 (20140413.2041)
 -->
<!-- Title: device Pages: 1 -->
<svg width="254pt" height="111pt"
 viewBox="0.00 0.00 254.00 111.00" xmlns="http://www.w3.org/2000/svg" xmlns:xlink="http://www.w3.org/1999/xlink">
<g id="graph0" class="graph" transform="scale(1 1) rotate(0) translate(4 107)">
<title>device</title>
<polygon fill="white" stroke="none" points="-4,4 -4,-107 250,-107 250,4 -4,4"/>
<g id="clust1" class="cluster"><title>clusterdir_6a153a7300ea9b8c6ef7c7fb33465da5</title>
<g id="a_clust1"><a xlink:href="dir_6a153a7300ea9b8c6ef7c7fb33465da5.html" target="_top" xlink:title="usb_core">
<polygon fill="#ddddee" stroke="black" points="8,-8 8,-95 238,-95 238,-8 8,-8"/>
<text text-anchor="middle" x="123" y="-83" font-family="Helvetica,sans-Serif" font-size="10.00">usb_core</text>
</a>
</g>
</g>
<g id="clust2" class="cluster"><title>clusterdir_115df66c6e11547bb9b094eddb581a6e</title>
<g id="a_clust2"><a xlink:href="dir_115df66c6e11547bb9b094eddb581a6e.html" target="_top">
<polygon fill="#eeeeff" stroke="black" points="16,-16 16,-68 230,-68 230,-16 16,-16"/>
</a>
</g>
</g>
<!-- dir_115df66c6e11547bb9b094eddb581a6e -->
<g id="node1" class="node"><title>dir_115df66c6e11547bb9b094eddb581a6e</title>
<text text-anchor="middle" x="195" y="-39.5" font-family="Helvetica,sans-Serif" font-size="10.00">device</text>
</g>
<!-- dir_e9561d3932f7c6f98cdf2f7245b13206 -->
<g id="node2" class="node"><title>dir_e9561d3932f7c6f98cdf2f7245b13206</title>
<g id="a_node2"><a xlink:href="dir_e9561d3932f7c6f98cdf2f7245b13206.html" target="_top" xlink:title="include">
<polygon fill="white" stroke="red" points="150,-60 96,-60 96,-24 150,-24 150,-60"/>
<text text-anchor="middle" x="123" y="-39.5" font-family="Helvetica,sans-Serif" font-size="10.00">include</text>
</a>
</g>
</g>
<!-- dir_4dfb01492e0c443a0ae756094d557dde -->
<g id="node3" class="node"><title>dir_4dfb01492e0c443a0ae756094d557dde</title>
<g id="a_node3"><a xlink:href="dir_4dfb01492e0c443a0ae756094d557dde.html" target="_top" xlink:title="sources">
<polygon fill="white" stroke="red" points="78,-60 24,-60 24,-24 78,-24 78,-60"/>
<text text-anchor="middle" x="51" y="-39.5" font-family="Helvetica,sans-Serif" font-size="10.00">sources</text>
</a>
</g>
</g>
</g>
</svg>
