<?xml version="1.0" encoding="UTF-8" standalone="no"?>
<!DOCTYPE svg PUBLIC "-//W3C//DTD SVG 1.1//EN"
 "http://www.w3.org/Graphics/SVG/1.1/DTD/svg11.dtd">
<!-- Generated by graphviz version 2.38.0 (20140413.2041)
 -->
<!-- Title: usb_stack Pages: 1 -->
<svg width="472pt" height="76pt"
 viewBox="0.00 0.00 472.00 76.00" xmlns="http://www.w3.org/2000/svg" xmlns:xlink="http://www.w3.org/1999/xlink">
<g id="graph0" class="graph" transform="scale(1 1) rotate(0) translate(4 72)">
<title>usb_stack</title>
<polygon fill="white" stroke="none" points="-4,4 -4,-72 468,-72 468,4 -4,4"/>
<g id="clust1" class="cluster"><title>clusterdir_981f8fd0449d984842bfc1fd3b3eaaca</title>
<g id="a_clust1"><a xlink:href="dir_981f8fd0449d984842bfc1fd3b3eaaca.html" target="_top">
<polygon fill="#eeeeff" stroke="black" points="8,-8 8,-60 456,-60 456,-8 8,-8"/>
</a>
</g>
</g>
<!-- dir_981f8fd0449d984842bfc1fd3b3eaaca -->
<g id="node1" class="node"><title>dir_981f8fd0449d984842bfc1fd3b3eaaca</title>
<text text-anchor="middle" x="417" y="-31.5" font-family="Helvetica,sans-Serif" font-size="10.00">usb_stack</text>
</g>
<!-- dir_738436c538b2de3fa4bc5b6be1d517b8 -->
<g id="node2" class="node"><title>dir_738436c538b2de3fa4bc5b6be1d517b8</title>
<g id="a_node2"><a xlink:href="dir_738436c538b2de3fa4bc5b6be1d517b8.html" target="_top" xlink:title="adapter">
<polygon fill="white" stroke="red" points="368,-52 314,-52 314,-16 368,-16 368,-52"/>
<text text-anchor="middle" x="341" y="-31.5" font-family="Helvetica,sans-Serif" font-size="10.00">adapter</text>
</a>
</g>
</g>
<!-- dir_7ddbb4720326cac08fe50b41de3cfee5 -->
<g id="node3" class="node"><title>dir_7ddbb4720326cac08fe50b41de3cfee5</title>
<g id="a_node3"><a xlink:href="dir_7ddbb4720326cac08fe50b41de3cfee5.html" target="_top" xlink:title="hid_device">
<polygon fill="white" stroke="black" points="296,-52 234,-52 234,-16 296,-16 296,-52"/>
<text text-anchor="middle" x="265" y="-31.5" font-family="Helvetica,sans-Serif" font-size="10.00">hid_device</text>
</a>
</g>
</g>
<!-- dir_8de10d0de4de125eb1083de19e9d90d3 -->
<g id="node4" class="node"><title>dir_8de10d0de4de125eb1083de19e9d90d3</title>
<g id="a_node4"><a xlink:href="dir_8de10d0de4de125eb1083de19e9d90d3.html" target="_top" xlink:title="os">
<polygon fill="white" stroke="red" points="216,-52 162,-52 162,-16 216,-16 216,-52"/>
<text text-anchor="middle" x="189" y="-31.5" font-family="Helvetica,sans-Serif" font-size="10.00">os</text>
</a>
</g>
</g>
<!-- dir_70d3b41cbdbe6a3c0219091a1843aba1 -->
<g id="node5" class="node"><title>dir_70d3b41cbdbe6a3c0219091a1843aba1</title>
<g id="a_node5"><a xlink:href="dir_70d3b41cbdbe6a3c0219091a1843aba1.html" target="_top" xlink:title="platform">
<polygon fill="white" stroke="red" points="144,-52 90,-52 90,-16 144,-16 144,-52"/>
<text text-anchor="middle" x="117" y="-31.5" font-family="Helvetica,sans-Serif" font-size="10.00">platform</text>
</a>
</g>
</g>
<!-- dir_6a153a7300ea9b8c6ef7c7fb33465da5 -->
<g id="node6" class="node"><title>dir_6a153a7300ea9b8c6ef7c7fb33465da5</title>
<g id="a_node6"><a xlink:href="dir_6a153a7300ea9b8c6ef7c7fb33465da5.html" target="_top" xlink:title="usb_core">
<polygon fill="white" stroke="red" points="72,-52 16,-52 16,-16 72,-16 72,-52"/>
<text text-anchor="middle" x="44" y="-31.5" font-family="Helvetica,sans-Serif" font-size="10.00">usb_core</text>
</a>
</g>
</g>
</g>
</svg>
