<?xml version="1.0" encoding="UTF-8" standalone="no"?>
<!DOCTYPE svg PUBLIC "-//W3C//DTD SVG 1.1//EN"
 "http://www.w3.org/Graphics/SVG/1.1/DTD/svg11.dtd">
<!-- Generated by graphviz version 2.38.0 (20140413.2041)
 -->
<!-- Title: controller Pages: 1 -->
<svg width="256pt" height="111pt"
 viewBox="0.00 0.00 256.00 111.00" xmlns="http://www.w3.org/2000/svg" xmlns:xlink="http://www.w3.org/1999/xlink">
<g id="graph0" class="graph" transform="scale(1 1) rotate(0) translate(4 107)">
<title>controller</title>
<polygon fill="white" stroke="none" points="-4,4 -4,-107 252,-107 252,4 -4,4"/>
<g id="clust1" class="cluster"><title>clusterdir_4dfb01492e0c443a0ae756094d557dde</title>
<g id="a_clust1"><a xlink:href="dir_4dfb01492e0c443a0ae756094d557dde.html" target="_top" xlink:title="sources">
<polygon fill="#ddddee" stroke="black" points="8,-8 8,-95 240,-95 240,-8 8,-8"/>
<text text-anchor="middle" x="124" y="-83" font-family="Helvetica,sans-Serif" font-size="10.00">sources</text>
</a>
</g>
</g>
<g id="clust2" class="cluster"><title>clusterdir_348b0d9bdcfad088ea9b4acaeae44421</title>
<g id="a_clust2"><a xlink:href="dir_348b0d9bdcfad088ea9b4acaeae44421.html" target="_top">
<polygon fill="#eeeeff" stroke="black" points="16,-16 16,-68 232,-68 232,-16 16,-16"/>
</a>
</g>
</g>
<!-- dir_348b0d9bdcfad088ea9b4acaeae44421 -->
<g id="node1" class="node"><title>dir_348b0d9bdcfad088ea9b4acaeae44421</title>
<text text-anchor="middle" x="196" y="-39.5" font-family="Helvetica,sans-Serif" font-size="10.00">controller</text>
</g>
<!-- dir_1887bb41575a580e1c98135087119637 -->
<g id="node2" class="node"><title>dir_1887bb41575a580e1c98135087119637</title>
<g id="a_node2"><a xlink:href="dir_1887bb41575a580e1c98135087119637.html" target="_top" xlink:title="ehci">
<polygon fill="white" stroke="black" points="150,-60 96,-60 96,-24 150,-24 150,-60"/>
<text text-anchor="middle" x="123" y="-39.5" font-family="Helvetica,sans-Serif" font-size="10.00">ehci</text>
</a>
</g>
</g>
<!-- dir_f52632296d0aa160422af3a1afae64f7 -->
<g id="node3" class="node"><title>dir_f52632296d0aa160422af3a1afae64f7</title>
<g id="a_node3"><a xlink:href="dir_f52632296d0aa160422af3a1afae64f7.html" target="_top" xlink:title="khci">
<polygon fill="white" stroke="black" points="78,-60 24,-60 24,-24 78,-24 78,-60"/>
<text text-anchor="middle" x="51" y="-39.5" font-family="Helvetica,sans-Serif" font-size="10.00">khci</text>
</a>
</g>
</g>
</g>
</svg>
