<?xml version="1.0" encoding="UTF-8" standalone="no"?>
<!DOCTYPE svg PUBLIC "-//W3C//DTD SVG 1.1//EN"
 "http://www.w3.org/Graphics/SVG/1.1/DTD/svg11.dtd">
<!-- Generated by graphviz version 2.38.0 (20140413.2041)
 -->
<!-- Title: usb_core Pages: 1 -->
<svg width="328pt" height="111pt"
 viewBox="0.00 0.00 328.00 111.00" xmlns="http://www.w3.org/2000/svg" xmlns:xlink="http://www.w3.org/1999/xlink">
<g id="graph0" class="graph" transform="scale(1 1) rotate(0) translate(4 107)">
<title>usb_core</title>
<polygon fill="white" stroke="none" points="-4,4 -4,-107 324,-107 324,4 -4,4"/>
<g id="clust1" class="cluster"><title>clusterdir_981f8fd0449d984842bfc1fd3b3eaaca</title>
<g id="a_clust1"><a xlink:href="dir_981f8fd0449d984842bfc1fd3b3eaaca.html" target="_top" xlink:title="usb_stack">
<polygon fill="#ddddee" stroke="black" points="8,-8 8,-95 312,-95 312,-8 8,-8"/>
<text text-anchor="middle" x="160" y="-83" font-family="Helvetica,sans-Serif" font-size="10.00">usb_stack</text>
</a>
</g>
</g>
<g id="clust2" class="cluster"><title>clusterdir_6a153a7300ea9b8c6ef7c7fb33465da5</title>
<g id="a_clust2"><a xlink:href="dir_6a153a7300ea9b8c6ef7c7fb33465da5.html" target="_top">
<polygon fill="#eeeeff" stroke="black" points="16,-16 16,-68 304,-68 304,-16 16,-16"/>
</a>
</g>
</g>
<!-- dir_6a153a7300ea9b8c6ef7c7fb33465da5 -->
<g id="node1" class="node"><title>dir_6a153a7300ea9b8c6ef7c7fb33465da5</title>
<text text-anchor="middle" x="268" y="-39.5" font-family="Helvetica,sans-Serif" font-size="10.00">usb_core</text>
</g>
<!-- dir_115df66c6e11547bb9b094eddb581a6e -->
<g id="node2" class="node"><title>dir_115df66c6e11547bb9b094eddb581a6e</title>
<g id="a_node2"><a xlink:href="dir_115df66c6e11547bb9b094eddb581a6e.html" target="_top" xlink:title="device">
<polygon fill="white" stroke="red" points="222,-60 168,-60 168,-24 222,-24 222,-60"/>
<text text-anchor="middle" x="195" y="-39.5" font-family="Helvetica,sans-Serif" font-size="10.00">device</text>
</a>
</g>
</g>
<!-- dir_9e6cd3bf3619f33fd257763fe9ffb4c6 -->
<g id="node3" class="node"><title>dir_9e6cd3bf3619f33fd257763fe9ffb4c6</title>
<g id="a_node3"><a xlink:href="dir_9e6cd3bf3619f33fd257763fe9ffb4c6.html" target="_top" xlink:title="hal">
<polygon fill="white" stroke="black" points="150,-60 96,-60 96,-24 150,-24 150,-60"/>
<text text-anchor="middle" x="123" y="-39.5" font-family="Helvetica,sans-Serif" font-size="10.00">hal</text>
</a>
</g>
</g>
<!-- dir_ad805fea7c01c9c0598e37b60b8a63b1 -->
<g id="node4" class="node"><title>dir_ad805fea7c01c9c0598e37b60b8a63b1</title>
<g id="a_node4"><a xlink:href="dir_ad805fea7c01c9c0598e37b60b8a63b1.html" target="_top" xlink:title="include">
<polygon fill="white" stroke="black" points="78,-60 24,-60 24,-24 78,-24 78,-60"/>
<text text-anchor="middle" x="51" y="-39.5" font-family="Helvetica,sans-Serif" font-size="10.00">include</text>
</a>
</g>
</g>
</g>
</svg>
