<?xml version="1.0" encoding="UTF-8" standalone="no"?>
<!DOCTYPE svg PUBLIC "-//W3C//DTD SVG 1.1//EN"
 "http://www.w3.org/Graphics/SVG/1.1/DTD/svg11.dtd">
<!-- Generated by graphviz version 2.38.0 (20140413.2041)
 -->
<!-- Title: soc Pages: 1 -->
<svg width="614pt" height="111pt"
 viewBox="0.00 0.00 614.00 111.00" xmlns="http://www.w3.org/2000/svg" xmlns:xlink="http://www.w3.org/1999/xlink">
<g id="graph0" class="graph" transform="scale(1 1) rotate(0) translate(4 107)">
<title>soc</title>
<polygon fill="white" stroke="none" points="-4,4 -4,-107 610,-107 610,4 -4,4"/>
<g id="clust1" class="cluster"><title>clusterdir_70d3b41cbdbe6a3c0219091a1843aba1</title>
<g id="a_clust1"><a xlink:href="dir_70d3b41cbdbe6a3c0219091a1843aba1.html" target="_top" xlink:title="platform">
<polygon fill="#ddddee" stroke="black" points="8,-8 8,-95 598,-95 598,-8 8,-8"/>
<text text-anchor="middle" x="303" y="-83" font-family="Helvetica,sans-Serif" font-size="10.00">platform</text>
</a>
</g>
</g>
<g id="clust2" class="cluster"><title>clusterdir_c1524543f292681de5cedbe609719715</title>
<g id="a_clust2"><a xlink:href="dir_c1524543f292681de5cedbe609719715.html" target="_top">
<polygon fill="#eeeeff" stroke="black" points="16,-16 16,-68 590,-68 590,-16 16,-16"/>
</a>
</g>
</g>
<!-- dir_c1524543f292681de5cedbe609719715 -->
<g id="node1" class="node"><title>dir_c1524543f292681de5cedbe609719715</title>
<text text-anchor="middle" x="555" y="-39.5" font-family="Helvetica,sans-Serif" font-size="10.00">soc</text>
</g>
<!-- dir_8e5a9ae31e47691ca6eb791826901252 -->
<g id="node2" class="node"><title>dir_8e5a9ae31e47691ca6eb791826901252</title>
<g id="a_node2"><a xlink:href="dir_8e5a9ae31e47691ca6eb791826901252.html" target="_top" xlink:title="MK22F">
<polygon fill="white" stroke="black" points="510,-60 456,-60 456,-24 510,-24 510,-60"/>
<text text-anchor="middle" x="483" y="-39.5" font-family="Helvetica,sans-Serif" font-size="10.00">MK22F</text>
</a>
</g>
</g>
<!-- dir_9ad7090b3787477e1645b6d2233aa363 -->
<g id="node3" class="node"><title>dir_9ad7090b3787477e1645b6d2233aa363</title>
<g id="a_node3"><a xlink:href="dir_9ad7090b3787477e1645b6d2233aa363.html" target="_top" xlink:title="MK64F120M">
<polygon fill="white" stroke="black" points="438,-60 366,-60 366,-24 438,-24 438,-60"/>
<text text-anchor="middle" x="402" y="-39.5" font-family="Helvetica,sans-Serif" font-size="10.00">MK64F120M</text>
</a>
</g>
</g>
<!-- dir_a9a3b6edf9de1b8247dacbc4f24f6176 -->
<g id="node4" class="node"><title>dir_a9a3b6edf9de1b8247dacbc4f24f6176</title>
<g id="a_node4"><a xlink:href="dir_a9a3b6edf9de1b8247dacbc4f24f6176.html" target="_top" xlink:title="MK65FN2M018">
<polygon fill="white" stroke="black" points="348,-60 264,-60 264,-24 348,-24 348,-60"/>
<text text-anchor="middle" x="306" y="-39.5" font-family="Helvetica,sans-Serif" font-size="10.00">MK65FN2M018</text>
</a>
</g>
</g>
<!-- dir_146298c55975d123482e701b54c1d62b -->
<g id="node5" class="node"><title>dir_146298c55975d123482e701b54c1d62b</title>
<g id="a_node5"><a xlink:href="dir_146298c55975d123482e701b54c1d62b.html" target="_top" xlink:title="MK80F25615">
<polygon fill="white" stroke="black" points="246,-60 172,-60 172,-24 246,-24 246,-60"/>
<text text-anchor="middle" x="209" y="-39.5" font-family="Helvetica,sans-Serif" font-size="10.00">MK80F25615</text>
</a>
</g>
</g>
<!-- dir_a5dcb1c1d06ab115d9ebcc06be57928e -->
<g id="node6" class="node"><title>dir_a5dcb1c1d06ab115d9ebcc06be57928e</title>
<g id="a_node6"><a xlink:href="dir_a5dcb1c1d06ab115d9ebcc06be57928e.html" target="_top" xlink:title="MKL25Z">
<polygon fill="white" stroke="black" points="154,-60 100,-60 100,-24 154,-24 154,-60"/>
<text text-anchor="middle" x="127" y="-39.5" font-family="Helvetica,sans-Serif" font-size="10.00">MKL25Z</text>
</a>
</g>
</g>
<!-- dir_a33fae7ea695c89d38b6ca2f5ed1703a -->
<g id="node7" class="node"><title>dir_a33fae7ea695c89d38b6ca2f5ed1703a</title>
<g id="a_node7"><a xlink:href="dir_a33fae7ea695c89d38b6ca2f5ed1703a.html" target="_top" xlink:title="MKL80Z7">
<polygon fill="white" stroke="black" points="82,-60 24,-60 24,-24 82,-24 82,-60"/>
<text text-anchor="middle" x="53" y="-39.5" font-family="Helvetica,sans-Serif" font-size="10.00">MKL80Z7</text>
</a>
</g>
</g>
</g>
</svg>
