<?xml version="1.0" encoding="UTF-8" standalone="no"?>
<!DOCTYPE svg PUBLIC "-//W3C//DTD SVG 1.1//EN"
 "http://www.w3.org/Graphics/SVG/1.1/DTD/svg11.dtd">
<!-- Generated by graphviz version 2.38.0 (20140413.2041)
 -->
<!-- Title: master Pages: 1 -->
<svg width="254pt" height="111pt"
 viewBox="0.00 0.00 254.00 111.00" xmlns="http://www.w3.org/2000/svg" xmlns:xlink="http://www.w3.org/1999/xlink">
<g id="graph0" class="graph" transform="scale(1 1) rotate(0) translate(4 107)">
<title>master</title>
<polygon fill="white" stroke="none" points="-4,4 -4,-107 250,-107 250,4 -4,4"/>
<g id="clust1" class="cluster"><title>clusterdir_1a9cf053ac1d69d6ddcd7645735bf97e</title>
<g id="a_clust1"><a xlink:href="dir_1a9cf053ac1d69d6ddcd7645735bf97e.html" target="_top" xlink:title="i2c">
<polygon fill="#ddddee" stroke="black" points="8,-8 8,-95 238,-95 238,-8 8,-8"/>
<text text-anchor="middle" x="123" y="-83" font-family="Helvetica,sans-Serif" font-size="10.00">i2c</text>
</a>
</g>
</g>
<g id="clust2" class="cluster"><title>clusterdir_aaeabeb7f8fa37d8356693b30b5f41a3</title>
<g id="a_clust2"><a xlink:href="dir_aaeabeb7f8fa37d8356693b30b5f41a3.html" target="_top">
<polygon fill="#eeeeff" stroke="black" points="16,-16 16,-68 230,-68 230,-16 16,-16"/>
</a>
</g>
</g>
<!-- dir_aaeabeb7f8fa37d8356693b30b5f41a3 -->
<g id="node1" class="node"><title>dir_aaeabeb7f8fa37d8356693b30b5f41a3</title>
<text text-anchor="middle" x="195" y="-39.5" font-family="Helvetica,sans-Serif" font-size="10.00">master</text>
</g>
<!-- dir_2a657d17103b1fd8233ec7df9713537f -->
<g id="node2" class="node"><title>dir_2a657d17103b1fd8233ec7df9713537f</title>
<g id="a_node2"><a xlink:href="dir_2a657d17103b1fd8233ec7df9713537f.html" target="_top" xlink:title="hal">
<polygon fill="white" stroke="black" points="150,-60 96,-60 96,-24 150,-24 150,-60"/>
<text text-anchor="middle" x="123" y="-39.5" font-family="Helvetica,sans-Serif" font-size="10.00">hal</text>
</a>
</g>
</g>
<!-- dir_c4f95a2ae7800137b4c1b6ab54addaef -->
<g id="node3" class="node"><title>dir_c4f95a2ae7800137b4c1b6ab54addaef</title>
<g id="a_node3"><a xlink:href="dir_c4f95a2ae7800137b4c1b6ab54addaef.html" target="_top" xlink:title="src">
<polygon fill="white" stroke="black" points="78,-60 24,-60 24,-24 78,-24 78,-60"/>
<text text-anchor="middle" x="51" y="-39.5" font-family="Helvetica,sans-Serif" font-size="10.00">src</text>
</a>
</g>
</g>
</g>
</svg>
