<?xml version="1.0" encoding="UTF-8" standalone="no"?>
<!DOCTYPE svg PUBLIC "-//W3C//DTD SVG 1.1//EN"
 "http://www.w3.org/Graphics/SVG/1.1/DTD/svg11.dtd">
<!-- Generated by graphviz version 2.38.0 (20140413.2041)
 -->
<!-- Title: flash_driver_api Pages: 1 -->
<svg width="536pt" height="111pt"
 viewBox="0.00 0.00 536.00 111.00" xmlns="http://www.w3.org/2000/svg" xmlns:xlink="http://www.w3.org/1999/xlink">
<g id="graph0" class="graph" transform="scale(1 1) rotate(0) translate(4 107)">
<title>flash_driver_api</title>
<polygon fill="white" stroke="none" points="-4,4 -4,-107 532,-107 532,4 -4,4"/>
<g id="clust1" class="cluster"><title>clusterdir_916438c29c6e23d7352ccc50acb19127</title>
<g id="a_clust1"><a xlink:href="dir_916438c29c6e23d7352ccc50acb19127.html" target="_top" xlink:title="apps">
<polygon fill="#ddddee" stroke="black" points="8,-8 8,-95 520,-95 520,-8 8,-8"/>
<text text-anchor="middle" x="264" y="-83" font-family="Helvetica,sans-Serif" font-size="10.00">apps</text>
</a>
</g>
</g>
<g id="clust2" class="cluster"><title>clusterdir_1171d9c8400a33c22b807cbc4436b75a</title>
<g id="a_clust2"><a xlink:href="dir_1171d9c8400a33c22b807cbc4436b75a.html" target="_top">
<polygon fill="#eeeeff" stroke="black" points="16,-16 16,-68 512,-68 512,-16 16,-16"/>
</a>
</g>
</g>
<!-- dir_1171d9c8400a33c22b807cbc4436b75a -->
<g id="node1" class="node"><title>dir_1171d9c8400a33c22b807cbc4436b75a</title>
<text text-anchor="middle" x="462" y="-39.5" font-family="Helvetica,sans-Serif" font-size="10.00">flash_driver_api</text>
</g>
<!-- dir_6c1fefdc866fbced6829cc3d2b977f78 -->
<g id="node2" class="node"><title>dir_6c1fefdc866fbced6829cc3d2b977f78</title>
<g id="a_node2"><a xlink:href="dir_6c1fefdc866fbced6829cc3d2b977f78.html" target="_top" xlink:title="MKL03Z4">
<polygon fill="white" stroke="red" points="402,-60 344,-60 344,-24 402,-24 402,-60"/>
<text text-anchor="middle" x="373" y="-39.5" font-family="Helvetica,sans-Serif" font-size="10.00">MKL03Z4</text>
</a>
</g>
</g>
<!-- dir_2571eebc0a5dcc061385def2a94e060f -->
<g id="node3" class="node"><title>dir_2571eebc0a5dcc061385def2a94e060f</title>
<g id="a_node3"><a xlink:href="dir_2571eebc0a5dcc061385def2a94e060f.html" target="_top" xlink:title="MKL27Z644">
<polygon fill="white" stroke="red" points="326,-60 258,-60 258,-24 326,-24 326,-60"/>
<text text-anchor="middle" x="292" y="-39.5" font-family="Helvetica,sans-Serif" font-size="10.00">MKL27Z644</text>
</a>
</g>
</g>
<!-- dir_77936731a3a315c8c7fe2579dcbade51 -->
<g id="node4" class="node"><title>dir_77936731a3a315c8c7fe2579dcbade51</title>
<g id="a_node4"><a xlink:href="dir_77936731a3a315c8c7fe2579dcbade51.html" target="_top" xlink:title="MKL33Z644">
<polygon fill="white" stroke="red" points="240,-60 172,-60 172,-24 240,-24 240,-60"/>
<text text-anchor="middle" x="206" y="-39.5" font-family="Helvetica,sans-Serif" font-size="10.00">MKL33Z644</text>
</a>
</g>
</g>
<!-- dir_2e9b3ca252e6d2766f91d8290da6683f -->
<g id="node5" class="node"><title>dir_2e9b3ca252e6d2766f91d8290da6683f</title>
<g id="a_node5"><a xlink:href="dir_2e9b3ca252e6d2766f91d8290da6683f.html" target="_top" xlink:title="MKL43Z4">
<polygon fill="white" stroke="red" points="154,-60 96,-60 96,-24 154,-24 154,-60"/>
<text text-anchor="middle" x="125" y="-39.5" font-family="Helvetica,sans-Serif" font-size="10.00">MKL43Z4</text>
</a>
</g>
</g>
<!-- dir_81339ab14850b612c9bd959c3a23cf34 -->
<g id="node6" class="node"><title>dir_81339ab14850b612c9bd959c3a23cf34</title>
<g id="a_node6"><a xlink:href="dir_81339ab14850b612c9bd959c3a23cf34.html" target="_top" xlink:title="src">
<polygon fill="white" stroke="black" points="78,-60 24,-60 24,-24 78,-24 78,-60"/>
<text text-anchor="middle" x="51" y="-39.5" font-family="Helvetica,sans-Serif" font-size="10.00">src</text>
</a>
</g>
</g>
</g>
</svg>
