<?xml version="1.0" encoding="UTF-8" standalone="no"?>
<!DOCTYPE svg PUBLIC "-//W3C//DTD SVG 1.1//EN"
 "http://www.w3.org/Graphics/SVG/1.1/DTD/svg11.dtd">
<!-- Generated by graphviz version 2.38.0 (20140413.2041)
 -->
<!-- Title: drivers Pages: 1 -->
<svg width="986pt" height="76pt"
 viewBox="0.00 0.00 986.00 76.00" xmlns="http://www.w3.org/2000/svg" xmlns:xlink="http://www.w3.org/1999/xlink">
<g id="graph0" class="graph" transform="scale(1 1) rotate(0) translate(4 72)">
<title>drivers</title>
<polygon fill="white" stroke="none" points="-4,4 -4,-72 982,-72 982,4 -4,4"/>
<g id="clust1" class="cluster"><title>clusterdir_27a2dc3b98b533564dd071c2586f4e5f</title>
<g id="a_clust1"><a xlink:href="dir_27a2dc3b98b533564dd071c2586f4e5f.html" target="_top">
<polygon fill="#eeeeff" stroke="black" points="8,-8 8,-60 970,-60 970,-8 8,-8"/>
</a>
</g>
</g>
<!-- dir_27a2dc3b98b533564dd071c2586f4e5f -->
<g id="node1" class="node"><title>dir_27a2dc3b98b533564dd071c2586f4e5f</title>
<text text-anchor="middle" x="935" y="-31.5" font-family="Helvetica,sans-Serif" font-size="10.00">drivers</text>
</g>
<!-- dir_5b3960edb37531203e0bce6778212ef9 -->
<g id="node2" class="node"><title>dir_5b3960edb37531203e0bce6778212ef9</title>
<g id="a_node2"><a xlink:href="dir_5b3960edb37531203e0bce6778212ef9.html" target="_top" xlink:title="crc">
<polygon fill="white" stroke="red" points="890,-52 836,-52 836,-16 890,-16 890,-52"/>
<text text-anchor="middle" x="863" y="-31.5" font-family="Helvetica,sans-Serif" font-size="10.00">crc</text>
</a>
</g>
</g>
<!-- dir_8fd73e1245d372b0a45573c3638cbd1e -->
<g id="node3" class="node"><title>dir_8fd73e1245d372b0a45573c3638cbd1e</title>
<g id="a_node3"><a xlink:href="dir_8fd73e1245d372b0a45573c3638cbd1e.html" target="_top" xlink:title="dspi">
<polygon fill="white" stroke="red" points="818,-52 764,-52 764,-16 818,-16 818,-52"/>
<text text-anchor="middle" x="791" y="-31.5" font-family="Helvetica,sans-Serif" font-size="10.00">dspi</text>
</a>
</g>
</g>
<!-- dir_09668c751cd7010e8d69cb4460a4f254 -->
<g id="node4" class="node"><title>dir_09668c751cd7010e8d69cb4460a4f254</title>
<g id="a_node4"><a xlink:href="dir_09668c751cd7010e8d69cb4460a4f254.html" target="_top" xlink:title="flash">
<polygon fill="white" stroke="red" points="746,-52 692,-52 692,-16 746,-16 746,-52"/>
<text text-anchor="middle" x="719" y="-31.5" font-family="Helvetica,sans-Serif" font-size="10.00">flash</text>
</a>
</g>
</g>
<!-- dir_fff26c0084796fb46e0d7b12cb079251 -->
<g id="node5" class="node"><title>dir_fff26c0084796fb46e0d7b12cb079251</title>
<g id="a_node5"><a xlink:href="dir_fff26c0084796fb46e0d7b12cb079251.html" target="_top" xlink:title="flexcan">
<polygon fill="white" stroke="red" points="674,-52 620,-52 620,-16 674,-16 674,-52"/>
<text text-anchor="middle" x="647" y="-31.5" font-family="Helvetica,sans-Serif" font-size="10.00">flexcan</text>
</a>
</g>
</g>
<!-- dir_1a9cf053ac1d69d6ddcd7645735bf97e -->
<g id="node6" class="node"><title>dir_1a9cf053ac1d69d6ddcd7645735bf97e</title>
<g id="a_node6"><a xlink:href="dir_1a9cf053ac1d69d6ddcd7645735bf97e.html" target="_top" xlink:title="i2c">
<polygon fill="white" stroke="red" points="602,-52 548,-52 548,-16 602,-16 602,-52"/>
<text text-anchor="middle" x="575" y="-31.5" font-family="Helvetica,sans-Serif" font-size="10.00">i2c</text>
</a>
</g>
</g>
<!-- dir_ec165028d741d3d4e4ee6897056735ce -->
<g id="node7" class="node"><title>dir_ec165028d741d3d4e4ee6897056735ce</title>
<g id="a_node7"><a xlink:href="dir_ec165028d741d3d4e4ee6897056735ce.html" target="_top" xlink:title="lpuart">
<polygon fill="white" stroke="red" points="530,-52 476,-52 476,-16 530,-16 530,-52"/>
<text text-anchor="middle" x="503" y="-31.5" font-family="Helvetica,sans-Serif" font-size="10.00">lpuart</text>
</a>
</g>
</g>
<!-- dir_44c46ad8a20e6435d12ebd0153d1dfb5 -->
<g id="node8" class="node"><title>dir_44c46ad8a20e6435d12ebd0153d1dfb5</title>
<g id="a_node8"><a xlink:href="dir_44c46ad8a20e6435d12ebd0153d1dfb5.html" target="_top" xlink:title="microseconds">
<polygon fill="white" stroke="red" points="457.5,-52 380.5,-52 380.5,-16 457.5,-16 457.5,-52"/>
<text text-anchor="middle" x="419" y="-31.5" font-family="Helvetica,sans-Serif" font-size="10.00">microseconds</text>
</a>
</g>
</g>
<!-- dir_63d0a1051be4ca2a58b18663f7a8b0cf -->
<g id="node9" class="node"><title>dir_63d0a1051be4ca2a58b18663f7a8b0cf</title>
<g id="a_node9"><a xlink:href="dir_63d0a1051be4ca2a58b18663f7a8b0cf.html" target="_top" xlink:title="smc">
<polygon fill="white" stroke="black" points="362,-52 308,-52 308,-16 362,-16 362,-52"/>
<text text-anchor="middle" x="335" y="-31.5" font-family="Helvetica,sans-Serif" font-size="10.00">smc</text>
</a>
</g>
</g>
<!-- dir_c6b86e7bc8a7c4d5f6ba6e607d0caca7 -->
<g id="node10" class="node"><title>dir_c6b86e7bc8a7c4d5f6ba6e607d0caca7</title>
<g id="a_node10"><a xlink:href="dir_c6b86e7bc8a7c4d5f6ba6e607d0caca7.html" target="_top" xlink:title="spi">
<polygon fill="white" stroke="red" points="290,-52 236,-52 236,-16 290,-16 290,-52"/>
<text text-anchor="middle" x="263" y="-31.5" font-family="Helvetica,sans-Serif" font-size="10.00">spi</text>
</a>
</g>
</g>
<!-- dir_0dd567bcb3b3eaf301c877aff6ef288c -->
<g id="node11" class="node"><title>dir_0dd567bcb3b3eaf301c877aff6ef288c</title>
<g id="a_node11"><a xlink:href="dir_0dd567bcb3b3eaf301c877aff6ef288c.html" target="_top" xlink:title="systick">
<polygon fill="white" stroke="red" points="218,-52 164,-52 164,-16 218,-16 218,-52"/>
<text text-anchor="middle" x="191" y="-31.5" font-family="Helvetica,sans-Serif" font-size="10.00">systick</text>
</a>
</g>
</g>
<!-- dir_ab47b97ae5c1117c65c0e71653facfd1 -->
<g id="node12" class="node"><title>dir_ab47b97ae5c1117c65c0e71653facfd1</title>
<g id="a_node12"><a xlink:href="dir_ab47b97ae5c1117c65c0e71653facfd1.html" target="_top" xlink:title="uart">
<polygon fill="white" stroke="black" points="146,-52 92,-52 92,-16 146,-16 146,-52"/>
<text text-anchor="middle" x="119" y="-31.5" font-family="Helvetica,sans-Serif" font-size="10.00">uart</text>
</a>
</g>
</g>
<!-- dir_86db39100d12c2a3ae11f2acdf07bfd8 -->
<g id="node13" class="node"><title>dir_86db39100d12c2a3ae11f2acdf07bfd8</title>
<g id="a_node13"><a xlink:href="dir_86db39100d12c2a3ae11f2acdf07bfd8.html" target="_top" xlink:title="watchdog">
<polygon fill="white" stroke="red" points="74,-52 16,-52 16,-16 74,-16 74,-52"/>
<text text-anchor="middle" x="45" y="-31.5" font-family="Helvetica,sans-Serif" font-size="10.00">watchdog</text>
</a>
</g>
</g>
</g>
</svg>
