<?xml version="1.0" encoding="UTF-8" standalone="no"?>
<!DOCTYPE svg PUBLIC "-//W3C//DTD SVG 1.1//EN"
 "http://www.w3.org/Graphics/SVG/1.1/DTD/svg11.dtd">
<!-- Generated by graphviz version 2.38.0 (20140413.2041)
 -->
<!-- Title: UARTs Pages: 1 -->
<svg width="287pt" height="142pt"
 viewBox="0.00 0.00 287.00 142.00" xmlns="http://www.w3.org/2000/svg" xmlns:xlink="http://www.w3.org/1999/xlink">
<g id="graph0" class="graph" transform="scale(1 1) rotate(0) translate(4 138)">
<title>UARTs</title>
<polygon fill="white" stroke="none" points="-4,4 -4,-138 283,-138 283,4 -4,4"/>
<!-- Node2 -->
<g id="node1" class="node"><title>Node2</title>
<g id="a_node1"><a xlink:href="group__uart__driver.html" target="_top" xlink:title="UART Driver. ">
<polygon fill="white" stroke="black" points="203,-114.5 203,-133.5 272,-133.5 272,-114.5 203,-114.5"/>
<text text-anchor="middle" x="237.5" y="-121.5" font-family="Helvetica,sans-Serif" font-size="10.00">UART Driver</text>
</a>
</g>
</g>
<!-- Node1 -->
<g id="node2" class="node"><title>Node1</title>
<g id="a_node2"><a xlink:href="group__drivers.html" target="_top" xlink:title="IP device drivers. ">
<polygon fill="white" stroke="black" points="0,-57.5 0,-76.5 77,-76.5 77,-57.5 0,-57.5"/>
<text text-anchor="middle" x="38.5" y="-64.5" font-family="Helvetica,sans-Serif" font-size="10.00">Device Drivers</text>
</a>
</g>
</g>
<!-- Node0 -->
<g id="node6" class="node"><title>Node0</title>
<polygon fill="#bfbfbf" stroke="black" points="113,-57.5 113,-76.5 160,-76.5 160,-57.5 113,-57.5"/>
<text text-anchor="middle" x="136.5" y="-64.5" font-family="Helvetica,sans-Serif" font-size="10.00">UARTs</text>
</g>
<!-- Node1&#45;&gt;Node0 -->
<g id="edge1" class="edge"><title>Node1&#45;&gt;Node0</title>
<path fill="none" stroke="black" d="M87.216,-67C96.1812,-67 105.16,-67 112.9,-67"/>
<polygon fill="black" stroke="black" points="87.1662,-63.5001 77.1662,-67 87.1662,-70.5001 87.1662,-63.5001"/>
</g>
<!-- Node4 -->
<g id="node3" class="node"><title>Node4</title>
<g id="a_node3"><a xlink:href="group__uart0__driver.html" target="_top" xlink:title="UART0 Driver. ">
<polygon fill="white" stroke="black" points="200.5,-76.5 200.5,-95.5 274.5,-95.5 274.5,-76.5 200.5,-76.5"/>
<text text-anchor="middle" x="237.5" y="-83.5" font-family="Helvetica,sans-Serif" font-size="10.00">UART0 Driver</text>
</a>
</g>
</g>
<!-- Node3 -->
<g id="node4" class="node"><title>Node3</title>
<g id="a_node4"><a xlink:href="group__scuart__driver.html" target="_top" xlink:title="SCUART Driver. ">
<polygon fill="white" stroke="black" points="196,-38.5 196,-57.5 279,-57.5 279,-38.5 196,-38.5"/>
<text text-anchor="middle" x="237.5" y="-45.5" font-family="Helvetica,sans-Serif" font-size="10.00">SCUART Driver</text>
</a>
</g>
</g>
<!-- Node5 -->
<g id="node5" class="node"><title>Node5</title>
<g id="a_node5"><a xlink:href="group__lpuart__driver.html" target="_top" xlink:title="LPUART driver. ">
<polygon fill="white" stroke="black" points="197.5,-0.5 197.5,-19.5 277.5,-19.5 277.5,-0.5 197.5,-0.5"/>
<text text-anchor="middle" x="237.5" y="-7.5" font-family="Helvetica,sans-Serif" font-size="10.00">LPUART driver</text>
</a>
</g>
</g>
<!-- Node0&#45;&gt;Node2 -->
<g id="edge2" class="edge"><title>Node0&#45;&gt;Node2</title>
<path fill="none" stroke="black" d="M159.506,-82.3193C170.289,-89.559 183.595,-98.1043 196,-105 201.974,-108.321 208.626,-111.604 214.785,-114.482"/>
<polygon fill="black" stroke="black" points="161.353,-79.3427 151.117,-76.6099 157.415,-85.1297 161.353,-79.3427"/>
</g>
<!-- Node0&#45;&gt;Node4 -->
<g id="edge4" class="edge"><title>Node0&#45;&gt;Node4</title>
<path fill="none" stroke="black" d="M170.461,-73.3259C180.093,-75.1744 190.668,-77.204 200.479,-79.0868"/>
<polygon fill="black" stroke="black" points="170.942,-69.8543 160.461,-71.4067 169.622,-76.7289 170.942,-69.8543"/>
</g>
<!-- Node0&#45;&gt;Node3 -->
<g id="edge3" class="edge"><title>Node0&#45;&gt;Node3</title>
<path fill="none" stroke="black" d="M170.343,-60.6968C178.494,-59.1324 187.327,-57.4372 195.804,-55.8103"/>
<polygon fill="black" stroke="black" points="169.622,-57.2711 160.461,-62.5933 170.942,-64.1457 169.622,-57.2711"/>
</g>
<!-- Node0&#45;&gt;Node5 -->
<g id="edge5" class="edge"><title>Node0&#45;&gt;Node5</title>
<path fill="none" stroke="black" d="M159.506,-51.6807C170.289,-44.441 183.595,-35.8957 196,-29 201.974,-25.6793 208.626,-22.3964 214.785,-19.5178"/>
<polygon fill="black" stroke="black" points="157.415,-48.8703 151.117,-57.3901 161.353,-54.6573 157.415,-48.8703"/>
</g>
</g>
</svg>
