<?xml version="1.0" encoding="UTF-8" standalone="no"?>
<!DOCTYPE svg PUBLIC "-//W3C//DTD SVG 1.1//EN"
 "http://www.w3.org/Graphics/SVG/1.1/DTD/svg11.dtd">
<!-- Generated by graphviz version 2.38.0 (20140413.2041)
 -->
<!-- Title: Flash operations Pages: 1 -->
<svg width="392pt" height="29pt"
 viewBox="0.00 0.00 392.00 29.00" xmlns="http://www.w3.org/2000/svg" xmlns:xlink="http://www.w3.org/1999/xlink">
<g id="graph0" class="graph" transform="scale(1 1) rotate(0) translate(4 25)">
<title>Flash operations</title>
<polygon fill="white" stroke="none" points="-4,4 -4,-25 388,-25 388,4 -4,4"/>
<!-- Node0 -->
<g id="node1" class="node"><title>Node0</title>
<polygon fill="#bfbfbf" stroke="black" points="116,-0.5 116,-19.5 205,-19.5 205,-0.5 116,-0.5"/>
<text text-anchor="middle" x="160.5" y="-7.5" font-family="Helvetica,sans-Serif" font-size="10.00">Flash operations</text>
</g>
<!-- Node2 -->
<g id="node3" class="node"><title>Node2</title>
<g id="a_node3"><a xlink:href="group__flash__api.html" target="_top" xlink:title="Flash Driver APIs. ">
<polygon fill="white" stroke="black" points="298,-0.5 298,-19.5 384,-19.5 384,-0.5 298,-0.5"/>
<text text-anchor="middle" x="341" y="-7.5" font-family="Helvetica,sans-Serif" font-size="10.00">Flash Driver API</text>
</a>
</g>
</g>
<!-- Node0&#45;&gt;Node2 -->
<g id="edge2" class="edge"><title>Node0&#45;&gt;Node2</title>
<path fill="none" stroke="orange" stroke-dasharray="5,2" d="M205.166,-10C233.343,-10 269.806,-10 297.708,-10"/>
<text text-anchor="middle" x="251.5" y="-13" font-family="Helvetica,sans-Serif" font-size="10.00">flash_driver_t</text>
</g>
<!-- Node1 -->
<g id="node2" class="node"><title>Node1</title>
<g id="a_node2"><a xlink:href="group__flash__driver.html" target="_top" xlink:title="IP driver for C90TFS flash module. ">
<polygon fill="white" stroke="black" points="0,-0.5 0,-19.5 79,-19.5 79,-0.5 0,-0.5"/>
<text text-anchor="middle" x="39.5" y="-7.5" font-family="Helvetica,sans-Serif" font-size="10.00">C90TFS Flash</text>
</a>
</g>
</g>
<!-- Node1&#45;&gt;Node0 -->
<g id="edge1" class="edge"><title>Node1&#45;&gt;Node0</title>
<path fill="none" stroke="black" d="M89.2284,-10C97.9924,-10 107.079,-10 115.693,-10"/>
<polygon fill="black" stroke="black" points="89.1359,-6.5001 79.1359,-10 89.1359,-13.5001 89.1359,-6.5001"/>
</g>
</g>
</svg>
