<?xml version="1.0" encoding="UTF-8" standalone="no"?>
<!DOCTYPE svg PUBLIC "-//W3C//DTD SVG 1.1//EN"
 "http://www.w3.org/Graphics/SVG/1.1/DTD/svg11.dtd">
<!-- Generated by graphviz version 2.38.0 (20140413.2041)
 -->
<!-- Title: Device Drivers Pages: 1 -->
<svg width="200pt" height="370pt"
 viewBox="0.00 0.00 200.00 370.00" xmlns="http://www.w3.org/2000/svg" xmlns:xlink="http://www.w3.org/1999/xlink">
<g id="graph0" class="graph" transform="scale(1 1) rotate(0) translate(4 366)">
<title>Device Drivers</title>
<polygon fill="white" stroke="none" points="-4,4 -4,-366 196,-366 196,4 -4,4"/>
<!-- Node3 -->
<g id="node1" class="node"><title>Node3</title>
<g id="a_node1"><a xlink:href="group__spi.html" target="_top" xlink:title="SPI driver. ">
<polygon fill="white" stroke="black" points="136.5,-342.5 136.5,-361.5 168.5,-361.5 168.5,-342.5 136.5,-342.5"/>
<text text-anchor="middle" x="152.5" y="-349.5" font-family="Helvetica,sans-Serif" font-size="10.00">SPI</text>
</a>
</g>
</g>
<!-- Node0 -->
<g id="node2" class="node"><title>Node0</title>
<polygon fill="#bfbfbf" stroke="black" points="0,-171.5 0,-190.5 77,-190.5 77,-171.5 0,-171.5"/>
<text text-anchor="middle" x="38.5" y="-178.5" font-family="Helvetica,sans-Serif" font-size="10.00">Device Drivers</text>
</g>
<!-- Node0&#45;&gt;Node3 -->
<g id="edge3" class="edge"><title>Node0&#45;&gt;Node3</title>
<path fill="none" stroke="black" d="M44.4878,-200.62C53.3935,-232.153 74.7751,-294.467 113,-333 119.404,-339.456 128.448,-344.074 136.161,-347.139"/>
<polygon fill="black" stroke="black" points="47.8334,-199.584 41.8509,-190.84 41.0748,-201.406 47.8334,-199.584"/>
</g>
<!-- Node8 -->
<g id="node3" class="node"><title>Node8</title>
<g id="a_node3"><a xlink:href="group__crc__driver.html" target="_top" xlink:title="CRC Driver. ">
<polygon fill="white" stroke="black" points="120.5,-304.5 120.5,-323.5 184.5,-323.5 184.5,-304.5 120.5,-304.5"/>
<text text-anchor="middle" x="152.5" y="-311.5" font-family="Helvetica,sans-Serif" font-size="10.00">CRC Driver</text>
</a>
</g>
</g>
<!-- Node0&#45;&gt;Node8 -->
<g id="edge8" class="edge"><title>Node0&#45;&gt;Node8</title>
<path fill="none" stroke="black" d="M47.8548,-200.149C59.4215,-224.802 82.398,-267.708 113,-295 117.116,-298.671 122.07,-301.808 127.033,-304.412"/>
<polygon fill="black" stroke="black" points="50.9302,-198.456 43.6073,-190.799 44.557,-201.351 50.9302,-198.456"/>
</g>
<!-- Node1 -->
<g id="node4" class="node"><title>Node1</title>
<g id="a_node4"><a xlink:href="group__flash__driver.html" target="_top" xlink:title="IP driver for C90TFS flash module. ">
<polygon fill="white" stroke="black" points="113,-266.5 113,-285.5 192,-285.5 192,-266.5 113,-266.5"/>
<text text-anchor="middle" x="152.5" y="-273.5" font-family="Helvetica,sans-Serif" font-size="10.00">C90TFS Flash</text>
</a>
</g>
</g>
<!-- Node0&#45;&gt;Node1 -->
<g id="edge1" class="edge"><title>Node0&#45;&gt;Node1</title>
<path fill="none" stroke="black" d="M53.6119,-198.786C67.4383,-215.377 89.7653,-240.049 113,-257 117.817,-260.514 123.383,-263.688 128.76,-266.39"/>
<polygon fill="black" stroke="black" points="56.2328,-196.462 47.1967,-190.93 50.8109,-200.889 56.2328,-196.462"/>
</g>
<!-- Node7 -->
<g id="node5" class="node"><title>Node7</title>
<g id="a_node5"><a xlink:href="group__usb__hal.html" target="_top" xlink:title="USB HAL. ">
<polygon fill="white" stroke="black" points="123,-228.5 123,-247.5 182,-247.5 182,-228.5 123,-228.5"/>
<text text-anchor="middle" x="152.5" y="-235.5" font-family="Helvetica,sans-Serif" font-size="10.00">USB HAL</text>
</a>
</g>
</g>
<!-- Node0&#45;&gt;Node7 -->
<g id="edge7" class="edge"><title>Node0&#45;&gt;Node7</title>
<path fill="none" stroke="black" d="M66.8587,-195.299C80.6629,-202.474 97.6862,-211.263 113,-219 119.121,-222.092 125.814,-225.416 131.879,-228.405"/>
<polygon fill="black" stroke="black" points="68.3628,-192.136 57.8768,-190.622 65.1298,-198.345 68.3628,-192.136"/>
</g>
<!-- Node2 -->
<g id="node6" class="node"><title>Node2</title>
<g id="a_node6"><a xlink:href="group__i2c__driver.html" target="_top" xlink:title="I2C driver. ">
<polygon fill="white" stroke="black" points="137,-190.5 137,-209.5 168,-209.5 168,-190.5 137,-190.5"/>
<text text-anchor="middle" x="152.5" y="-197.5" font-family="Helvetica,sans-Serif" font-size="10.00">I2C</text>
</a>
</g>
</g>
<!-- Node0&#45;&gt;Node2 -->
<g id="edge2" class="edge"><title>Node0&#45;&gt;Node2</title>
<path fill="none" stroke="black" d="M87.1691,-189.087C105.072,-192.124 124.137,-195.358 136.823,-197.51"/>
<polygon fill="black" stroke="black" points="87.5505,-185.601 77.1059,-187.38 86.3797,-192.503 87.5505,-185.601"/>
</g>
<!-- Node6 -->
<g id="node7" class="node"><title>Node6</title>
<g id="a_node7"><a xlink:href="group__flexcan.html" target="_top" xlink:title="FlexCAN">
<polygon fill="white" stroke="black" points="124.5,-152.5 124.5,-171.5 180.5,-171.5 180.5,-152.5 124.5,-152.5"/>
<text text-anchor="middle" x="152.5" y="-159.5" font-family="Helvetica,sans-Serif" font-size="10.00">FlexCAN</text>
</a>
</g>
</g>
<!-- Node0&#45;&gt;Node6 -->
<g id="edge6" class="edge"><title>Node0&#45;&gt;Node6</title>
<path fill="none" stroke="black" d="M87.1489,-172.917C99.8942,-170.755 113.23,-168.492 124.435,-166.591"/>
<polygon fill="black" stroke="black" points="86.3797,-169.497 77.1059,-174.62 87.5505,-176.399 86.3797,-169.497"/>
</g>
<!-- Node10 -->
<g id="node8" class="node"><title>Node10</title>
<g id="a_node8"><a xlink:href="group__systick__driver.html" target="_top" xlink:title="Systick driver. ">
<polygon fill="white" stroke="black" points="127.5,-114.5 127.5,-133.5 177.5,-133.5 177.5,-114.5 127.5,-114.5"/>
<text text-anchor="middle" x="152.5" y="-121.5" font-family="Helvetica,sans-Serif" font-size="10.00">Systick</text>
</a>
</g>
</g>
<!-- Node0&#45;&gt;Node10 -->
<g id="edge10" class="edge"><title>Node0&#45;&gt;Node10</title>
<path fill="none" stroke="black" d="M66.8587,-166.701C80.6629,-159.526 97.6862,-150.737 113,-143 119.121,-139.908 125.814,-136.584 131.879,-133.595"/>
<polygon fill="black" stroke="black" points="65.1298,-163.655 57.8768,-171.378 68.3628,-169.864 65.1298,-163.655"/>
</g>
<!-- Node5 -->
<g id="node9" class="node"><title>Node5</title>
<g id="a_node9"><a xlink:href="group__dspi__driver.html" target="_top" xlink:title="DSPI driver. ">
<polygon fill="white" stroke="black" points="133,-76.5 133,-95.5 172,-95.5 172,-76.5 133,-76.5"/>
<text text-anchor="middle" x="152.5" y="-83.5" font-family="Helvetica,sans-Serif" font-size="10.00">DSPI</text>
</a>
</g>
</g>
<!-- Node0&#45;&gt;Node5 -->
<g id="edge5" class="edge"><title>Node0&#45;&gt;Node5</title>
<path fill="none" stroke="black" d="M53.6119,-163.214C67.4383,-146.623 89.7653,-121.951 113,-105 119.022,-100.607 126.213,-96.7469 132.742,-93.6736"/>
<polygon fill="black" stroke="black" points="50.8109,-161.111 47.1967,-171.07 56.2328,-165.538 50.8109,-161.111"/>
</g>
<!-- Node9 -->
<g id="node10" class="node"><title>Node9</title>
<g id="a_node10"><a xlink:href="group__crc__hal.html" target="_top" xlink:title="CRC HAL. ">
<polygon fill="white" stroke="black" points="123,-38.5 123,-57.5 182,-57.5 182,-38.5 123,-38.5"/>
<text text-anchor="middle" x="152.5" y="-45.5" font-family="Helvetica,sans-Serif" font-size="10.00">CRC HAL</text>
</a>
</g>
</g>
<!-- Node0&#45;&gt;Node9 -->
<g id="edge9" class="edge"><title>Node0&#45;&gt;Node9</title>
<path fill="none" stroke="black" d="M47.8548,-161.851C59.4215,-137.198 82.398,-94.2919 113,-67 117.116,-63.3288 122.07,-60.1924 127.033,-57.5884"/>
<polygon fill="black" stroke="black" points="44.557,-160.649 43.6073,-171.201 50.9302,-163.544 44.557,-160.649"/>
</g>
<!-- Node4 -->
<g id="node11" class="node"><title>Node4</title>
<g id="a_node11"><a xlink:href="group__uarts.html" target="_top" xlink:title="UART Driver Summary. ">
<polygon fill="white" stroke="black" points="129,-0.5 129,-19.5 176,-19.5 176,-0.5 129,-0.5"/>
<text text-anchor="middle" x="152.5" y="-7.5" font-family="Helvetica,sans-Serif" font-size="10.00">UARTs</text>
</a>
</g>
</g>
<!-- Node0&#45;&gt;Node4 -->
<g id="edge4" class="edge"><title>Node0&#45;&gt;Node4</title>
<path fill="none" stroke="black" d="M44.4878,-161.38C53.3935,-129.847 74.7751,-67.5333 113,-29 117.409,-24.555 123.07,-20.9814 128.687,-18.1859"/>
<polygon fill="black" stroke="black" points="41.0748,-160.594 41.8509,-171.16 47.8334,-162.416 41.0748,-160.594"/>
</g>
</g>
</svg>
