<?xml version="1.0" encoding="UTF-8" standalone="no"?>
<!DOCTYPE svg PUBLIC "-//W3C//DTD SVG 1.1//EN"
 "http://www.w3.org/Graphics/SVG/1.1/DTD/svg11.dtd">
<!-- Generated by graphviz version 2.38.0 (20140413.2041)
 -->
<!-- Title: LPUART driver Pages: 1 -->
<svg width="310pt" height="66pt"
 viewBox="0.00 0.00 310.00 66.00" xmlns="http://www.w3.org/2000/svg" xmlns:xlink="http://www.w3.org/1999/xlink">
<g id="graph0" class="graph" transform="scale(1 1) rotate(0) translate(4 62)">
<title>LPUART driver</title>
<polygon fill="white" stroke="none" points="-4,4 -4,-62 306,-62 306,4 -4,4"/>
<!-- Node2 -->
<g id="node1" class="node"><title>Node2</title>
<g id="a_node1"><a xlink:href="group__lpuart__types.html" target="_top" xlink:title="LPUART Types. ">
<polygon fill="white" stroke="black" points="209,-38.5 209,-57.5 292,-57.5 292,-38.5 209,-38.5"/>
<text text-anchor="middle" x="250.5" y="-45.5" font-family="Helvetica,sans-Serif" font-size="10.00">LPUART Types</text>
</a>
</g>
</g>
<!-- Node3 -->
<g id="node2" class="node"><title>Node3</title>
<g id="a_node2"><a xlink:href="group__lpuart__hal.html" target="_top" xlink:title="LPUART peripheral HAL. ">
<polygon fill="white" stroke="black" points="199,-0.5 199,-19.5 302,-19.5 302,-0.5 199,-0.5"/>
<text text-anchor="middle" x="250.5" y="-7.5" font-family="Helvetica,sans-Serif" font-size="10.00">LPUART HAL Driver</text>
</a>
</g>
</g>
<!-- Node0 -->
<g id="node3" class="node"><title>Node0</title>
<polygon fill="#bfbfbf" stroke="black" points="83,-19.5 83,-38.5 163,-38.5 163,-19.5 83,-19.5"/>
<text text-anchor="middle" x="123" y="-26.5" font-family="Helvetica,sans-Serif" font-size="10.00">LPUART driver</text>
</g>
<!-- Node0&#45;&gt;Node2 -->
<g id="edge2" class="edge"><title>Node0&#45;&gt;Node2</title>
<path fill="none" stroke="black" d="M173.162,-36.4429C184.95,-38.2275 197.41,-40.1138 208.767,-41.8333"/>
<polygon fill="black" stroke="black" points="173.432,-32.944 163.021,-34.9076 172.384,-39.8651 173.432,-32.944"/>
</g>
<!-- Node0&#45;&gt;Node3 -->
<g id="edge3" class="edge"><title>Node0&#45;&gt;Node3</title>
<path fill="none" stroke="black" d="M173.141,-21.5603C181.616,-20.2773 190.438,-18.9417 198.949,-17.6532"/>
<polygon fill="black" stroke="black" points="172.384,-18.1349 163.021,-23.0924 173.432,-25.056 172.384,-18.1349"/>
</g>
<!-- Node1 -->
<g id="node4" class="node"><title>Node1</title>
<g id="a_node4"><a xlink:href="group__uarts.html" target="_top" xlink:title="UART Driver Summary. ">
<polygon fill="white" stroke="black" points="0,-19.5 0,-38.5 47,-38.5 47,-19.5 0,-19.5"/>
<text text-anchor="middle" x="23.5" y="-26.5" font-family="Helvetica,sans-Serif" font-size="10.00">UARTs</text>
</a>
</g>
</g>
<!-- Node1&#45;&gt;Node0 -->
<g id="edge1" class="edge"><title>Node1&#45;&gt;Node0</title>
<path fill="none" stroke="black" d="M57.3408,-29C65.4791,-29 74.2817,-29 82.6943,-29"/>
<polygon fill="black" stroke="black" points="57.1136,-25.5001 47.1135,-29 57.1135,-32.5001 57.1136,-25.5001"/>
</g>
</g>
</svg>
