<?xml version="1.0" encoding="UTF-8" standalone="no"?>
<!DOCTYPE svg PUBLIC "-//W3C//DTD SVG 1.1//EN"
 "http://www.w3.org/Graphics/SVG/1.1/DTD/svg11.dtd">
<!-- Generated by graphviz version 2.38.0 (20140413.2041)
 -->
<!-- Title: DSPI Pages: 1 -->
<svg width="315pt" height="180pt"
 viewBox="0.00 0.00 315.00 180.00" xmlns="http://www.w3.org/2000/svg" xmlns:xlink="http://www.w3.org/1999/xlink">
<g id="graph0" class="graph" transform="scale(1 1) rotate(0) translate(4 176)">
<title>DSPI</title>
<polygon fill="white" stroke="none" points="-4,4 -4,-176 311,-176 311,4 -4,4"/>
<!-- Node6 -->
<g id="node1" class="node"><title>Node6</title>
<g id="a_node1"><a xlink:href="group__dspi__types.html" target="_top" xlink:title="Shared types for DSPI drivers. ">
<polygon fill="white" stroke="black" points="196.5,-152.5 196.5,-171.5 298.5,-171.5 298.5,-152.5 196.5,-152.5"/>
<text text-anchor="middle" x="247.5" y="-159.5" font-family="Helvetica,sans-Serif" font-size="10.00">Shared DSPI Types</text>
</a>
</g>
</g>
<!-- Node3 -->
<g id="node2" class="node"><title>Node3</title>
<g id="a_node2"><a xlink:href="group__dspi__master__driver.html" target="_top" xlink:title="DSPI master mode peripheral driver. ">
<polygon fill="white" stroke="black" points="198,-114.5 198,-133.5 297,-133.5 297,-114.5 198,-114.5"/>
<text text-anchor="middle" x="247.5" y="-121.5" font-family="Helvetica,sans-Serif" font-size="10.00">DSPI Master Driver</text>
</a>
</g>
</g>
<!-- Node5 -->
<g id="node3" class="node"><title>Node5</title>
<g id="a_node3"><a xlink:href="group__dspi__shared__irq.html" target="_top" xlink:title="DSPI shared IRQ driver for master and slave drivers. ">
<polygon fill="white" stroke="black" points="188,-76.5 188,-95.5 307,-95.5 307,-76.5 188,-76.5"/>
<text text-anchor="middle" x="247.5" y="-83.5" font-family="Helvetica,sans-Serif" font-size="10.00">DSPI Shared IRQ Driver</text>
</a>
</g>
</g>
<!-- Node1 -->
<g id="node4" class="node"><title>Node1</title>
<g id="a_node4"><a xlink:href="group__drivers.html" target="_top" xlink:title="IP device drivers. ">
<polygon fill="white" stroke="black" points="0,-76.5 0,-95.5 77,-95.5 77,-76.5 0,-76.5"/>
<text text-anchor="middle" x="38.5" y="-83.5" font-family="Helvetica,sans-Serif" font-size="10.00">Device Drivers</text>
</a>
</g>
</g>
<!-- Node0 -->
<g id="node6" class="node"><title>Node0</title>
<polygon fill="#bfbfbf" stroke="black" points="113,-76.5 113,-95.5 152,-95.5 152,-76.5 113,-76.5"/>
<text text-anchor="middle" x="132.5" y="-83.5" font-family="Helvetica,sans-Serif" font-size="10.00">DSPI</text>
</g>
<!-- Node1&#45;&gt;Node0 -->
<g id="edge1" class="edge"><title>Node1&#45;&gt;Node0</title>
<path fill="none" stroke="black" d="M87.3895,-86C96.4572,-86 105.427,-86 112.886,-86"/>
<polygon fill="black" stroke="black" points="87.1854,-82.5001 77.1854,-86 87.1853,-89.5001 87.1854,-82.5001"/>
</g>
<!-- Node4 -->
<g id="node5" class="node"><title>Node4</title>
<g id="a_node5"><a xlink:href="group__dspi__slave__driver.html" target="_top" xlink:title="DSPI slave mode peripheral driver. ">
<polygon fill="white" stroke="black" points="201.5,-38.5 201.5,-57.5 293.5,-57.5 293.5,-38.5 201.5,-38.5"/>
<text text-anchor="middle" x="247.5" y="-45.5" font-family="Helvetica,sans-Serif" font-size="10.00">DSPI Slave Driver</text>
</a>
</g>
</g>
<!-- Node0&#45;&gt;Node6 -->
<g id="edge6" class="edge"><title>Node0&#45;&gt;Node6</title>
<path fill="none" stroke="black" d="M146.637,-103.856C156.701,-116.395 171.61,-132.703 188,-143 194.058,-146.806 200.952,-149.921 207.83,-152.447"/>
<polygon fill="black" stroke="black" points="149.369,-101.668 140.484,-95.8973 143.831,-105.95 149.369,-101.668"/>
</g>
<!-- Node0&#45;&gt;Node3 -->
<g id="edge3" class="edge"><title>Node0&#45;&gt;Node3</title>
<path fill="none" stroke="black" d="M161.589,-95.9214C170.064,-98.88 179.4,-102.105 188,-105 197.311,-108.135 207.485,-111.47 216.699,-114.457"/>
<polygon fill="black" stroke="black" points="162.727,-92.6114 152.132,-92.6062 160.411,-99.2173 162.727,-92.6114"/>
</g>
<!-- Node0&#45;&gt;Node5 -->
<g id="edge5" class="edge"><title>Node0&#45;&gt;Node5</title>
<path fill="none" stroke="black" d="M162.203,-86C170.064,-86 178.881,-86 187.771,-86"/>
<polygon fill="black" stroke="black" points="162.16,-82.5001 152.16,-86 162.16,-89.5001 162.16,-82.5001"/>
</g>
<!-- Node0&#45;&gt;Node4 -->
<g id="edge4" class="edge"><title>Node0&#45;&gt;Node4</title>
<path fill="none" stroke="black" d="M161.589,-76.0786C170.064,-73.12 179.4,-69.8954 188,-67 197.311,-63.8654 207.485,-60.53 216.699,-57.5429"/>
<polygon fill="black" stroke="black" points="160.411,-72.7827 152.132,-79.3938 162.727,-79.3886 160.411,-72.7827"/>
</g>
<!-- Node2 -->
<g id="node7" class="node"><title>Node2</title>
<g id="a_node7"><a xlink:href="group__dspi__hal.html" target="_top" xlink:title="DSPI peripheral HAL. ">
<polygon fill="white" stroke="black" points="217,-0.5 217,-19.5 278,-19.5 278,-0.5 217,-0.5"/>
<text text-anchor="middle" x="247.5" y="-7.5" font-family="Helvetica,sans-Serif" font-size="10.00">DSPI HAL</text>
</a>
</g>
</g>
<!-- Node0&#45;&gt;Node2 -->
<g id="edge2" class="edge"><title>Node0&#45;&gt;Node2</title>
<path fill="none" stroke="black" d="M146.637,-68.1439C156.701,-55.6046 171.61,-39.2969 188,-29 196.771,-23.4898 207.294,-19.4274 216.982,-16.5069"/>
<polygon fill="black" stroke="black" points="143.831,-66.0505 140.484,-76.1027 149.369,-70.3318 143.831,-66.0505"/>
</g>
</g>
</svg>
