<?xml version="1.0" encoding="UTF-8" standalone="no"?>
<!DOCTYPE svg PUBLIC "-//W3C//DTD SVG 1.1//EN"
 "http://www.w3.org/Graphics/SVG/1.1/DTD/svg11.dtd">
<!-- Generated by graphviz version 2.38.0 (20140413.2041)
 -->
<!-- Title: Utilities Pages: 1 -->
<svg width="182pt" height="218pt"
 viewBox="0.00 0.00 182.00 218.00" xmlns="http://www.w3.org/2000/svg" xmlns:xlink="http://www.w3.org/1999/xlink">
<g id="graph0" class="graph" transform="scale(1 1) rotate(0) translate(4 214)">
<title>Utilities</title>
<polygon fill="white" stroke="none" points="-4,4 -4,-214 178,-214 178,4 -4,4"/>
<!-- Node3 -->
<g id="node1" class="node"><title>Node3</title>
<g id="a_node1"><a xlink:href="group__platform__status.html" target="_top" xlink:title="Status and error definitions. ">
<polygon fill="white" stroke="black" points="107,-190.5 107,-209.5 152,-209.5 152,-190.5 107,-190.5"/>
<text text-anchor="middle" x="129.5" y="-197.5" font-family="Helvetica,sans-Serif" font-size="10.00">Status</text>
</a>
</g>
</g>
<!-- Node2 -->
<g id="node2" class="node"><title>Node2</title>
<g id="a_node2"><a xlink:href="group__irq__lock.html" target="_top" xlink:title="Global interrupt lock. ">
<polygon fill="white" stroke="black" points="91.5,-152.5 91.5,-171.5 167.5,-171.5 167.5,-152.5 91.5,-152.5"/>
<text text-anchor="middle" x="129.5" y="-159.5" font-family="Helvetica,sans-Serif" font-size="10.00">Interrupt Lock</text>
</a>
</g>
</g>
<!-- Node0 -->
<g id="node3" class="node"><title>Node0</title>
<polygon fill="#bfbfbf" stroke="black" points="0,-95.5 0,-114.5 49,-114.5 49,-95.5 0,-95.5"/>
<text text-anchor="middle" x="24.5" y="-102.5" font-family="Helvetica,sans-Serif" font-size="10.00">Utilities</text>
</g>
<!-- Node0&#45;&gt;Node3 -->
<g id="edge3" class="edge"><title>Node0&#45;&gt;Node3</title>
<path fill="none" stroke="black" d="M36.2898,-123.569C46.8777,-140.433 64.4041,-165.042 85,-181 91.5145,-186.047 99.5771,-190.051 106.984,-193.055"/>
<polygon fill="black" stroke="black" points="39.0644,-121.394 30.8868,-114.658 33.0788,-125.023 39.0644,-121.394"/>
</g>
<!-- Node0&#45;&gt;Node2 -->
<g id="edge2" class="edge"><title>Node0&#45;&gt;Node2</title>
<path fill="none" stroke="black" d="M47.8325,-120.438C58.7886,-127.705 72.3272,-136.239 85,-143 91.2531,-146.336 98.214,-149.575 104.702,-152.405"/>
<polygon fill="black" stroke="black" points="49.5615,-117.383 39.3124,-114.699 45.6506,-123.189 49.5615,-117.383"/>
</g>
<!-- Node6 -->
<g id="node4" class="node"><title>Node6</title>
<g id="a_node4"><a xlink:href="group__vector__table__info.html" target="_top" xlink:title="Definitions related to default vector table. ">
<polygon fill="white" stroke="black" points="85,-114.5 85,-133.5 174,-133.5 174,-114.5 85,-114.5"/>
<text text-anchor="middle" x="129.5" y="-121.5" font-family="Helvetica,sans-Serif" font-size="10.00">Vector Table Info</text>
</a>
</g>
</g>
<!-- Node0&#45;&gt;Node6 -->
<g id="edge6" class="edge"><title>Node0&#45;&gt;Node6</title>
<path fill="none" stroke="black" d="M59.0645,-111.192C67.2582,-112.703 76.144,-114.342 84.7359,-115.927"/>
<polygon fill="black" stroke="black" points="59.5993,-107.731 49.1303,-109.359 58.3294,-114.615 59.5993,-107.731"/>
</g>
<!-- Node4 -->
<g id="node5" class="node"><title>Node4</title>
<g id="a_node5"><a xlink:href="group__ring__buffer.html" target="_top" xlink:title="Ring buffer manager. ">
<polygon fill="white" stroke="black" points="97.5,-76.5 97.5,-95.5 161.5,-95.5 161.5,-76.5 97.5,-76.5"/>
<text text-anchor="middle" x="129.5" y="-83.5" font-family="Helvetica,sans-Serif" font-size="10.00">Ring Buffer</text>
</a>
</g>
</g>
<!-- Node0&#45;&gt;Node4 -->
<g id="edge4" class="edge"><title>Node0&#45;&gt;Node4</title>
<path fill="none" stroke="black" d="M58.997,-98.8209C71.2665,-96.5576 85.0955,-94.0067 97.1683,-91.7796"/>
<polygon fill="black" stroke="black" points="58.3294,-95.385 49.1303,-100.641 59.5993,-102.269 58.3294,-95.385"/>
</g>
<!-- Node1 -->
<g id="node6" class="node"><title>Node1</title>
<g id="a_node6"><a xlink:href="group__rtos__irq__sync.html" target="_top" xlink:title="Synchronization resource. ">
<polygon fill="white" stroke="black" points="86.5,-38.5 86.5,-57.5 172.5,-57.5 172.5,-38.5 86.5,-38.5"/>
<text text-anchor="middle" x="129.5" y="-45.5" font-family="Helvetica,sans-Serif" font-size="10.00">Synchronization</text>
</a>
</g>
</g>
<!-- Node0&#45;&gt;Node1 -->
<g id="edge1" class="edge"><title>Node0&#45;&gt;Node1</title>
<path fill="none" stroke="black" d="M47.8325,-89.5617C58.7886,-82.2948 72.3272,-73.7609 85,-67 91.2531,-63.664 98.214,-60.4252 104.702,-57.5947"/>
<polygon fill="black" stroke="black" points="45.6506,-86.8114 39.3124,-95.3013 49.5615,-92.617 45.6506,-86.8114"/>
</g>
<!-- Node5 -->
<g id="node7" class="node"><title>Node5</title>
<g id="a_node7"><a xlink:href="group__fsl__assert.html" target="_top" xlink:title="Assert function. ">
<polygon fill="white" stroke="black" points="86.5,-0.5 86.5,-19.5 172.5,-19.5 172.5,-0.5 86.5,-0.5"/>
<text text-anchor="middle" x="129.5" y="-7.5" font-family="Helvetica,sans-Serif" font-size="10.00">Assert Function</text>
</a>
</g>
</g>
<!-- Node0&#45;&gt;Node5 -->
<g id="edge5" class="edge"><title>Node0&#45;&gt;Node5</title>
<path fill="none" stroke="black" d="M36.2898,-86.4315C46.8777,-69.5668 64.4041,-44.9579 85,-29 89.6904,-25.3658 95.1834,-22.273 100.656,-19.7044"/>
<polygon fill="black" stroke="black" points="33.0788,-84.9767 30.8868,-95.3423 39.0644,-88.6061 33.0788,-84.9767"/>
</g>
</g>
</svg>
