<?xml version="1.0" encoding="UTF-8" standalone="no"?>
<!DOCTYPE svg PUBLIC "-//W3C//DTD SVG 1.1//EN"
 "http://www.w3.org/Graphics/SVG/1.1/DTD/svg11.dtd">
<!-- Generated by graphviz version 2.38.0 (20140413.2041)
 -->
<!-- Title: I2C Pages: 1 -->
<svg width="279pt" height="142pt"
 viewBox="0.00 0.00 279.00 142.00" xmlns="http://www.w3.org/2000/svg" xmlns:xlink="http://www.w3.org/1999/xlink">
<g id="graph0" class="graph" transform="scale(1 1) rotate(0) translate(4 138)">
<title>I2C</title>
<polygon fill="white" stroke="none" points="-4,4 -4,-138 275,-138 275,4 -4,4"/>
<!-- Node5 -->
<g id="node1" class="node"><title>Node5</title>
<g id="a_node1"><a xlink:href="group__i2c__hal.html" target="_top" xlink:title="I2C HAL peripheral driver. ">
<polygon fill="white" stroke="black" points="185.5,-114.5 185.5,-133.5 265.5,-133.5 265.5,-114.5 185.5,-114.5"/>
<text text-anchor="middle" x="225.5" y="-121.5" font-family="Helvetica,sans-Serif" font-size="10.00">I2C HAL Driver</text>
</a>
</g>
</g>
<!-- Node1 -->
<g id="node2" class="node"><title>Node1</title>
<g id="a_node2"><a xlink:href="group__drivers.html" target="_top" xlink:title="IP device drivers. ">
<polygon fill="white" stroke="black" points="0,-57.5 0,-76.5 77,-76.5 77,-57.5 0,-57.5"/>
<text text-anchor="middle" x="38.5" y="-64.5" font-family="Helvetica,sans-Serif" font-size="10.00">Device Drivers</text>
</a>
</g>
</g>
<!-- Node0 -->
<g id="node5" class="node"><title>Node0</title>
<polygon fill="#bfbfbf" stroke="black" points="113,-57.5 113,-76.5 144,-76.5 144,-57.5 113,-57.5"/>
<text text-anchor="middle" x="128.5" y="-64.5" font-family="Helvetica,sans-Serif" font-size="10.00">I2C</text>
</g>
<!-- Node1&#45;&gt;Node0 -->
<g id="edge1" class="edge"><title>Node1&#45;&gt;Node0</title>
<path fill="none" stroke="black" d="M87.1237,-67C96.3783,-67 105.418,-67 112.589,-67"/>
<polygon fill="black" stroke="black" points="87.0752,-63.5001 77.0752,-67 87.0751,-70.5001 87.0752,-63.5001"/>
</g>
<!-- Node3 -->
<g id="node3" class="node"><title>Node3</title>
<g id="a_node3"><a xlink:href="group__i2c__slave.html" target="_top" xlink:title="I2C slave mode peripheral driver. ">
<polygon fill="white" stroke="black" points="183.5,-76.5 183.5,-95.5 267.5,-95.5 267.5,-76.5 183.5,-76.5"/>
<text text-anchor="middle" x="225.5" y="-83.5" font-family="Helvetica,sans-Serif" font-size="10.00">I2C Slave Driver</text>
</a>
</g>
</g>
<!-- Node4 -->
<g id="node4" class="node"><title>Node4</title>
<g id="a_node4"><a xlink:href="group__i2c__master.html" target="_top" xlink:title="I2C master mode peripheral driver. ">
<polygon fill="white" stroke="black" points="180,-38.5 180,-57.5 271,-57.5 271,-38.5 180,-38.5"/>
<text text-anchor="middle" x="225.5" y="-45.5" font-family="Helvetica,sans-Serif" font-size="10.00">I2C Master Driver</text>
</a>
</g>
</g>
<!-- Node0&#45;&gt;Node5 -->
<g id="edge5" class="edge"><title>Node0&#45;&gt;Node5</title>
<path fill="none" stroke="black" d="M148.598,-83.1004C157.74,-90.3462 169.059,-98.6729 180,-105 185.963,-108.448 192.672,-111.637 199.037,-114.379"/>
<polygon fill="black" stroke="black" points="150.551,-80.1773 140.583,-76.5851 146.135,-85.6089 150.551,-80.1773"/>
</g>
<!-- Node0&#45;&gt;Node3 -->
<g id="edge3" class="edge"><title>Node0&#45;&gt;Node3</title>
<path fill="none" stroke="black" d="M154.301,-71.9602C163.113,-73.7226 173.288,-75.7575 183.108,-77.7216"/>
<polygon fill="black" stroke="black" points="154.836,-68.498 144.344,-69.9688 153.463,-75.362 154.836,-68.498"/>
</g>
<!-- Node0&#45;&gt;Node4 -->
<g id="edge4" class="edge"><title>Node0&#45;&gt;Node4</title>
<path fill="none" stroke="black" d="M154.243,-62.0514C162.077,-60.4845 170.993,-58.7013 179.782,-56.9436"/>
<polygon fill="black" stroke="black" points="153.463,-58.638 144.344,-64.0313 154.836,-65.502 153.463,-58.638"/>
</g>
<!-- Node2 -->
<g id="node6" class="node"><title>Node2</title>
<g id="a_node6"><a xlink:href="group__i2c__irq.html" target="_top" xlink:title="I2C driver IRQ functions. ">
<polygon fill="white" stroke="black" points="200.5,-0.5 200.5,-19.5 250.5,-19.5 250.5,-0.5 200.5,-0.5"/>
<text text-anchor="middle" x="225.5" y="-7.5" font-family="Helvetica,sans-Serif" font-size="10.00">I2C IRQ</text>
</a>
</g>
</g>
<!-- Node0&#45;&gt;Node2 -->
<g id="edge2" class="edge"><title>Node0&#45;&gt;Node2</title>
<path fill="none" stroke="black" d="M148.598,-50.8996C157.74,-43.6538 169.059,-35.3271 180,-29 186.399,-25.2993 193.657,-21.8977 200.428,-19.0268"/>
<polygon fill="black" stroke="black" points="146.135,-48.3911 140.583,-57.4149 150.551,-53.8227 146.135,-48.3911"/>
</g>
</g>
</svg>
