<?xml version="1.0" encoding="UTF-8" standalone="no"?>
<!DOCTYPE svg PUBLIC "-//W3C//DTD SVG 1.1//EN"
 "http://www.w3.org/Graphics/SVG/1.1/DTD/svg11.dtd">
<!-- Generated by graphviz version 2.38.0 (20140413.2041)
 -->
<!-- Title: Flash Driver API Pages: 1 -->
<svg width="318pt" height="140pt"
 viewBox="0.00 0.00 318.00 140.00" xmlns="http://www.w3.org/2000/svg" xmlns:xlink="http://www.w3.org/1999/xlink">
<g id="graph0" class="graph" transform="scale(1 1) rotate(0) translate(4 136)">
<title>Flash Driver API</title>
<polygon fill="white" stroke="none" points="-4,4 -4,-136 314,-136 314,4 -4,4"/>
<!-- Node1 -->
<g id="node1" class="node"><title>Node1</title>
<g id="a_node1"><a xlink:href="group__flash.html" target="_top" xlink:title="Definitions and functions for flash operations. ">
<polygon fill="white" stroke="black" points="221,-112.5 221,-131.5 310,-131.5 310,-112.5 221,-112.5"/>
<text text-anchor="middle" x="265.5" y="-119.5" font-family="Helvetica,sans-Serif" font-size="10.00">Flash operations</text>
</a>
</g>
</g>
<!-- Node0 -->
<g id="node2" class="node"><title>Node0</title>
<polygon fill="#bfbfbf" stroke="black" points="0,-67.5 0,-86.5 86,-86.5 86,-67.5 0,-67.5"/>
<text text-anchor="middle" x="43" y="-74.5" font-family="Helvetica,sans-Serif" font-size="10.00">Flash Driver API</text>
</g>
<!-- Node0&#45;&gt;Node1 -->
<g id="edge1" class="edge"><title>Node0&#45;&gt;Node1</title>
<path fill="none" stroke="orange" stroke-dasharray="5,2" d="M65.2718,-86.528C76.5722,-91.2357 90.8169,-96.6178 104,-100 142.821,-109.96 188.154,-115.648 220.721,-118.734"/>
<text text-anchor="middle" x="153.5" y="-119" font-family="Helvetica,sans-Serif" font-size="10.00">flash_driver_t</text>
</g>
<!-- Node3 -->
<g id="node3" class="node"><title>Node3</title>
<g id="a_node3"><a xlink:href="group__context.html" target="_top" xlink:title="Bootloader context and API structures. ">
<polygon fill="white" stroke="black" points="240.5,-67.5 240.5,-86.5 290.5,-86.5 290.5,-67.5 240.5,-67.5"/>
<text text-anchor="middle" x="265.5" y="-74.5" font-family="Helvetica,sans-Serif" font-size="10.00">Context</text>
</a>
</g>
</g>
<!-- Node0&#45;&gt;Node3 -->
<g id="edge3" class="edge"><title>Node0&#45;&gt;Node3</title>
<path fill="none" stroke="orange" stroke-dasharray="5,2" d="M86.2537,-77C132.022,-77 203.44,-77 240.449,-77"/>
<text text-anchor="middle" x="153.5" y="-91" font-family="Helvetica,sans-Serif" font-size="10.00">flash_driver_interface_t</text>
<text text-anchor="middle" x="153.5" y="-80" font-family="Helvetica,sans-Serif" font-size="10.00">bootloader_tree_t</text>
</g>
<!-- Node2 -->
<g id="node4" class="node"><title>Node2</title>
<g id="a_node4"><a xlink:href="group__bl__core.html" target="_top" xlink:title="Core bootloader functionality. ">
<polygon fill="white" stroke="black" points="222.5,-0.5 222.5,-19.5 308.5,-19.5 308.5,-0.5 222.5,-0.5"/>
<text text-anchor="middle" x="265.5" y="-7.5" font-family="Helvetica,sans-Serif" font-size="10.00">Bootloader Core</text>
</a>
</g>
</g>
<!-- Node0&#45;&gt;Node2 -->
<g id="edge2" class="edge"><title>Node0&#45;&gt;Node2</title>
<path fill="none" stroke="orange" stroke-dasharray="5,2" d="M52.6815,-67.3522C63.4855,-56.0482 83.0798,-37.7535 104,-29 141.921,-13.133 189.002,-9.20403 222.34,-8.74587"/>
<text text-anchor="middle" x="153.5" y="-65" font-family="Helvetica,sans-Serif" font-size="10.00">standard_version_t</text>
<text text-anchor="start" x="108" y="-54" font-family="Helvetica,sans-Serif" font-size="10.00">standard_version_t.</text>
<text text-anchor="middle" x="153.5" y="-43" font-family="Helvetica,sans-Serif" font-size="10.00">__unnamed__</text>
<text text-anchor="middle" x="153.5" y="-32" font-family="Helvetica,sans-Serif" font-size="10.00">standard_version_t.B</text>
</g>
</g>
</svg>
