<?xml version="1.0" encoding="UTF-8" standalone="no"?>
<!DOCTYPE svg PUBLIC "-//W3C//DTD SVG 1.1//EN"
 "http://www.w3.org/Graphics/SVG/1.1/DTD/svg11.dtd">
<!-- Generated by graphviz version 2.38.0 (20140413.2041)
 -->
<!-- Title: UART Peripheral Pages: 1 -->
<svg width="437pt" height="415pt"
 viewBox="0.00 0.00 437.00 415.00" xmlns="http://www.w3.org/2000/svg" xmlns:xlink="http://www.w3.org/1999/xlink">
<g id="graph0" class="graph" transform="scale(1 1) rotate(0) translate(4 411)">
<title>UART Peripheral</title>
<polygon fill="white" stroke="none" points="-4,4 -4,-411 433,-411 433,4 -4,4"/>
<!-- Node1 -->
<g id="node1" class="node"><title>Node1</title>
<g id="a_node1"><a xlink:href="group__peripherals.html" target="_top" xlink:title="Peripheral interfaces. ">
<polygon fill="white" stroke="black" points="0,-209.5 0,-228.5 108,-228.5 108,-209.5 0,-209.5"/>
<text text-anchor="middle" x="54" y="-216.5" font-family="Helvetica,sans-Serif" font-size="10.00">Peripheral Definitions</text>
</a>
</g>
</g>
<!-- Node0 -->
<g id="node2" class="node"><title>Node0</title>
<polygon fill="#bfbfbf" stroke="black" points="145,-209.5 145,-228.5 234,-228.5 234,-209.5 145,-209.5"/>
<text text-anchor="middle" x="189.5" y="-216.5" font-family="Helvetica,sans-Serif" font-size="10.00">UART Peripheral</text>
</g>
<!-- Node1&#45;&gt;Node0 -->
<g id="edge1" class="edge"><title>Node1&#45;&gt;Node0</title>
<path fill="none" stroke="black" d="M118.274,-219C127.308,-219 136.426,-219 144.966,-219"/>
<polygon fill="black" stroke="black" points="118.146,-215.5 108.146,-219 118.146,-222.5 118.146,-215.5"/>
</g>
<!-- Node2 -->
<g id="node3" class="node"><title>Node2</title>
<g id="a_node3"><a xlink:href="group__host__peripherals.html" target="_top" xlink:title="Peripheral support. ">
<polygon fill="white" stroke="black" points="328,-387.5 328,-406.5 393,-406.5 393,-387.5 328,-387.5"/>
<text text-anchor="middle" x="360.5" y="-394.5" font-family="Helvetica,sans-Serif" font-size="10.00">Peripherals</text>
</a>
</g>
</g>
<!-- Node0&#45;&gt;Node2 -->
<g id="edge8" class="edge"><title>Node0&#45;&gt;Node2</title>
<path fill="none" stroke="blueviolet" stroke-dasharray="5,2" d="M191.956,-228.852C196.251,-254.433 211.229,-323.576 252,-361 272.88,-380.165 304.283,-389.16 327.765,-393.363"/>
<text text-anchor="middle" x="263" y="-378" font-family="Helvetica,sans-Serif" font-size="10.00">blfwk</text>
</g>
<!-- Node5 -->
<g id="node4" class="node"><title>Node5</title>
<g id="a_node4"><a xlink:href="group__bus__pal__peripheral.html" target="_top" xlink:title="Bus Pal Peripheral. ">
<polygon fill="white" stroke="black" points="311.5,-342.5 311.5,-361.5 409.5,-361.5 409.5,-342.5 311.5,-342.5"/>
<text text-anchor="middle" x="360.5" y="-349.5" font-family="Helvetica,sans-Serif" font-size="10.00">Bus Pal Peripheral</text>
</a>
</g>
</g>
<!-- Node0&#45;&gt;Node5 -->
<g id="edge5" class="edge"><title>Node0&#45;&gt;Node5</title>
<path fill="none" stroke="blueviolet" stroke-dasharray="5,2" d="M195.812,-228.764C208.795,-251.551 244.572,-308.182 292,-333 299.227,-336.782 307.295,-339.885 315.268,-342.407"/>
<text text-anchor="middle" x="263" y="-322" font-family="Helvetica,sans-Serif" font-size="10.00">blfwk</text>
</g>
<!-- Node4 -->
<g id="node5" class="node"><title>Node4</title>
<g id="a_node5"><a xlink:href="group__bus__pal.html" target="_top" xlink:title="Bus Pal transport support. ">
<polygon fill="white" stroke="black" points="313,-304.5 313,-323.5 408,-323.5 408,-304.5 313,-304.5"/>
<text text-anchor="middle" x="360.5" y="-311.5" font-family="Helvetica,sans-Serif" font-size="10.00">Bus Pal Transport</text>
</a>
</g>
</g>
<!-- Node0&#45;&gt;Node4 -->
<g id="edge4" class="edge"><title>Node0&#45;&gt;Node4</title>
<path fill="none" stroke="blueviolet" stroke-dasharray="5,2" d="M200.601,-228.616C217.943,-244.625 255.087,-276.778 292,-295 299.642,-298.772 308.151,-301.902 316.482,-304.459"/>
<text text-anchor="middle" x="263" y="-288" font-family="Helvetica,sans-Serif" font-size="10.00">blfwk</text>
</g>
<!-- Node10 -->
<g id="node6" class="node"><title>Node10</title>
<g id="a_node6"><a xlink:href="group__host__usb__hid__peripheral.html" target="_top" xlink:title="USB&#45;HID Peripheral. ">
<polygon fill="white" stroke="black" points="309.5,-266.5 309.5,-285.5 411.5,-285.5 411.5,-266.5 309.5,-266.5"/>
<text text-anchor="middle" x="360.5" y="-273.5" font-family="Helvetica,sans-Serif" font-size="10.00">USB&#45;HID Peripheral</text>
</a>
</g>
</g>
<!-- Node0&#45;&gt;Node10 -->
<g id="edge11" class="edge"><title>Node0&#45;&gt;Node10</title>
<path fill="none" stroke="blueviolet" stroke-dasharray="5,2" d="M214.498,-228.634C234.939,-236.683 265.176,-248.221 292,-257 302.182,-260.332 313.34,-263.619 323.599,-266.497"/>
<text text-anchor="middle" x="263" y="-253" font-family="Helvetica,sans-Serif" font-size="10.00">blfwk</text>
</g>
<!-- Node12 -->
<g id="node7" class="node"><title>Node12</title>
<g id="a_node7"><a xlink:href="group__host__updater.html" target="_top" xlink:title="Updater application support. ">
<polygon fill="white" stroke="black" points="335.5,-228.5 335.5,-247.5 385.5,-247.5 385.5,-228.5 335.5,-228.5"/>
<text text-anchor="middle" x="360.5" y="-235.5" font-family="Helvetica,sans-Serif" font-size="10.00">Updater</text>
</a>
</g>
</g>
<!-- Node0&#45;&gt;Node12 -->
<g id="edge13" class="edge"><title>Node0&#45;&gt;Node12</title>
<path fill="none" stroke="blueviolet" stroke-dasharray="5,2" d="M234.022,-223.893C266.296,-227.521 309.093,-232.333 335.441,-235.295"/>
<text text-anchor="middle" x="263" y="-230" font-family="Helvetica,sans-Serif" font-size="10.00">blfwk</text>
</g>
<!-- Node9 -->
<g id="node8" class="node"><title>Node9</title>
<g id="a_node8"><a xlink:href="group__usb__hid__packetizer.html" target="_top" xlink:title="USB&#45;HID Packet creation. ">
<polygon fill="white" stroke="black" points="308,-190.5 308,-209.5 413,-209.5 413,-190.5 308,-190.5"/>
<text text-anchor="middle" x="360.5" y="-197.5" font-family="Helvetica,sans-Serif" font-size="10.00">USB&#45;HID Packetizer</text>
</a>
</g>
</g>
<!-- Node0&#45;&gt;Node9 -->
<g id="edge10" class="edge"><title>Node0&#45;&gt;Node9</title>
<path fill="none" stroke="blueviolet" stroke-dasharray="5,2" d="M227.38,-209.489C235.445,-207.722 243.971,-206.092 252,-205 270.143,-202.533 290.149,-201.222 307.932,-200.544"/>
<text text-anchor="middle" x="263" y="-208" font-family="Helvetica,sans-Serif" font-size="10.00">blfwk</text>
</g>
<!-- Node3 -->
<g id="node9" class="node"><title>Node3</title>
<g id="a_node9"><a xlink:href="group__blfwk.html" target="_top" xlink:title="Host Bootloader components. ">
<polygon fill="white" stroke="black" points="292,-152.5 292,-171.5 429,-171.5 429,-152.5 292,-152.5"/>
<text text-anchor="middle" x="360.5" y="-159.5" font-family="Helvetica,sans-Serif" font-size="10.00">Host Bootloader Framework</text>
</a>
</g>
</g>
<!-- Node0&#45;&gt;Node3 -->
<g id="edge3" class="edge"><title>Node0&#45;&gt;Node3</title>
<path fill="none" stroke="blueviolet" stroke-dasharray="5,2" d="M206.18,-209.436C218.317,-202.384 235.744,-193.01 252,-187 269.343,-180.588 288.886,-175.457 306.506,-171.554"/>
<text text-anchor="middle" x="263" y="-190" font-family="Helvetica,sans-Serif" font-size="10.00">blfwk</text>
</g>
<!-- Node11 -->
<g id="node10" class="node"><title>Node11</title>
<g id="a_node10"><a xlink:href="group__host__error.html" target="_top" xlink:title="Errors. ">
<polygon fill="white" stroke="black" points="341.5,-114.5 341.5,-133.5 379.5,-133.5 379.5,-114.5 341.5,-114.5"/>
<text text-anchor="middle" x="360.5" y="-121.5" font-family="Helvetica,sans-Serif" font-size="10.00">Error</text>
</a>
</g>
</g>
<!-- Node0&#45;&gt;Node11 -->
<g id="edge12" class="edge"><title>Node0&#45;&gt;Node11</title>
<path fill="none" stroke="blueviolet" stroke-dasharray="5,2" d="M200.378,-209.104C212.079,-197.68 232.458,-178.708 252,-165 268.61,-153.349 273.224,-150.688 292,-143 308.224,-136.358 327.553,-131.176 341.361,-127.914"/>
<text text-anchor="middle" x="263" y="-168" font-family="Helvetica,sans-Serif" font-size="10.00">blfwk</text>
</g>
<!-- Node6 -->
<g id="node11" class="node"><title>Node6</title>
<g id="a_node11"><a xlink:href="group__host__commands.html" target="_top" xlink:title="Command support. ">
<polygon fill="white" stroke="black" points="327.5,-76.5 327.5,-95.5 393.5,-95.5 393.5,-76.5 327.5,-76.5"/>
<text text-anchor="middle" x="360.5" y="-83.5" font-family="Helvetica,sans-Serif" font-size="10.00">Commands</text>
</a>
</g>
</g>
<!-- Node0&#45;&gt;Node6 -->
<g id="edge6" class="edge"><title>Node0&#45;&gt;Node6</title>
<path fill="none" stroke="blueviolet" stroke-dasharray="5,2" d="M195.573,-209.478C208.286,-186.708 243.962,-129.211 292,-105 302.98,-99.466 315.803,-95.3412 327.305,-92.3751"/>
<text text-anchor="middle" x="263" y="-137" font-family="Helvetica,sans-Serif" font-size="10.00">blfwk</text>
</g>
<!-- Node7 -->
<g id="node12" class="node"><title>Node7</title>
<g id="a_node12"><a xlink:href="group__host__packetizers.html" target="_top" xlink:title="Packet creation. ">
<polygon fill="white" stroke="black" points="326.5,-38.5 326.5,-57.5 394.5,-57.5 394.5,-38.5 326.5,-38.5"/>
<text text-anchor="middle" x="360.5" y="-45.5" font-family="Helvetica,sans-Serif" font-size="10.00">Packetizers</text>
</a>
</g>
</g>
<!-- Node0&#45;&gt;Node7 -->
<g id="edge7" class="edge"><title>Node0&#45;&gt;Node7</title>
<path fill="none" stroke="blueviolet" stroke-dasharray="5,2" d="M193.501,-209.155C202.725,-180.839 233.637,-99.1574 292,-67 302.556,-61.1837 315.042,-57.0245 326.387,-54.1106"/>
<text text-anchor="middle" x="263" y="-100" font-family="Helvetica,sans-Serif" font-size="10.00">blfwk</text>
</g>
<!-- Node8 -->
<g id="node13" class="node"><title>Node8</title>
<g id="a_node13"><a xlink:href="group__serial__packetizer.html" target="_top" xlink:title="Serial Packet creation. ">
<polygon fill="white" stroke="black" points="315,-0.5 315,-19.5 406,-19.5 406,-0.5 315,-0.5"/>
<text text-anchor="middle" x="360.5" y="-7.5" font-family="Helvetica,sans-Serif" font-size="10.00">Serial Packetizer</text>
</a>
</g>
</g>
<!-- Node0&#45;&gt;Node8 -->
<g id="edge9" class="edge"><title>Node0&#45;&gt;Node8</title>
<path fill="none" stroke="blueviolet" stroke-dasharray="5,2" d="M192.739,-209.238C198.926,-183.72 218.076,-113.645 252,-65 265.681,-45.3818 271.052,-40.5421 292,-29 299.037,-25.1225 306.933,-21.9815 314.776,-19.4549"/>
<text text-anchor="middle" x="263" y="-68" font-family="Helvetica,sans-Serif" font-size="10.00">blfwk</text>
</g>
<!-- Node2&#45;&gt;Node0 -->
<g id="edge2" class="edge"><title>Node2&#45;&gt;Node0</title>
<path fill="none" stroke="black" d="M318.203,-383.947C309.254,-380.346 300.063,-376.022 292,-371 235.438,-335.77 203.373,-256.056 193.675,-228.547"/>
<polygon fill="black" stroke="black" points="317.162,-387.295 327.753,-387.568 319.644,-380.75 317.162,-387.295"/>
</g>
</g>
</svg>
