<?xml version="1.0" encoding="UTF-8" standalone="no"?>
<!DOCTYPE svg PUBLIC "-//W3C//DTD SVG 1.1//EN"
 "http://www.w3.org/Graphics/SVG/1.1/DTD/svg11.dtd">
<!-- Generated by graphviz version 2.38.0 (20140413.2041)
 -->
<!-- Title: FlexCAN Pages: 1 -->
<svg width="316pt" height="66pt"
 viewBox="0.00 0.00 316.00 66.00" xmlns="http://www.w3.org/2000/svg" xmlns:xlink="http://www.w3.org/1999/xlink">
<g id="graph0" class="graph" transform="scale(1 1) rotate(0) translate(4 62)">
<title>FlexCAN</title>
<polygon fill="white" stroke="none" points="-4,4 -4,-62 312,-62 312,4 -4,4"/>
<!-- Node1 -->
<g id="node1" class="node"><title>Node1</title>
<g id="a_node1"><a xlink:href="group__drivers.html" target="_top" xlink:title="IP device drivers. ">
<polygon fill="white" stroke="black" points="0,-19.5 0,-38.5 77,-38.5 77,-19.5 0,-19.5"/>
<text text-anchor="middle" x="38.5" y="-26.5" font-family="Helvetica,sans-Serif" font-size="10.00">Device Drivers</text>
</a>
</g>
</g>
<!-- Node0 -->
<g id="node3" class="node"><title>Node0</title>
<polygon fill="#bfbfbf" stroke="black" points="113,-19.5 113,-38.5 169,-38.5 169,-19.5 113,-19.5"/>
<text text-anchor="middle" x="141" y="-26.5" font-family="Helvetica,sans-Serif" font-size="10.00">FlexCAN</text>
</g>
<!-- Node1&#45;&gt;Node0 -->
<g id="edge1" class="edge"><title>Node1&#45;&gt;Node0</title>
<path fill="none" stroke="black" d="M87.3424,-29C96.0668,-29 104.888,-29 112.751,-29"/>
<polygon fill="black" stroke="black" points="87.2085,-25.5001 77.2084,-29 87.2084,-32.5001 87.2085,-25.5001"/>
</g>
<!-- Node3 -->
<g id="node2" class="node"><title>Node3</title>
<g id="a_node2"><a xlink:href="group__flexcan__driver.html" target="_top" xlink:title="FlexCAN Driver">
<polygon fill="white" stroke="black" points="215,-38.5 215,-57.5 298,-57.5 298,-38.5 215,-38.5"/>
<text text-anchor="middle" x="256.5" y="-45.5" font-family="Helvetica,sans-Serif" font-size="10.00">FlexCAN Driver</text>
</a>
</g>
</g>
<!-- Node0&#45;&gt;Node3 -->
<g id="edge3" class="edge"><title>Node0&#45;&gt;Node3</title>
<path fill="none" stroke="black" d="M179.236,-35.2334C190.612,-37.1378 203.179,-39.2415 214.774,-41.1825"/>
<polygon fill="black" stroke="black" points="179.627,-31.7501 169.186,-33.551 178.471,-38.6541 179.627,-31.7501"/>
</g>
<!-- Node2 -->
<g id="node4" class="node"><title>Node2</title>
<g id="a_node4"><a xlink:href="group__flexcan__hal.html" target="_top" xlink:title="FlexCAN HAL driver">
<polygon fill="white" stroke="black" points="205,-0.5 205,-19.5 308,-19.5 308,-0.5 205,-0.5"/>
<text text-anchor="middle" x="256.5" y="-7.5" font-family="Helvetica,sans-Serif" font-size="10.00">FlexCAN HAL driver</text>
</a>
</g>
</g>
<!-- Node0&#45;&gt;Node2 -->
<g id="edge2" class="edge"><title>Node0&#45;&gt;Node2</title>
<path fill="none" stroke="black" d="M179.223,-22.7688C187.46,-21.39 196.321,-19.9066 204.987,-18.456"/>
<polygon fill="black" stroke="black" points="178.471,-19.3459 169.186,-24.449 179.627,-26.2499 178.471,-19.3459"/>
</g>
</g>
</svg>
