<?xml version="1.0" encoding="UTF-8" standalone="no"?>
<!DOCTYPE svg PUBLIC "-//W3C//DTD SVG 1.1//EN"
 "http://www.w3.org/Graphics/SVG/1.1/DTD/svg11.dtd">
<!-- Generated by graphviz version 2.38.0 (20140413.2041)
 -->
<!-- Title: C90TFS Flash Pages: 1 -->
<svg width="325pt" height="104pt"
 viewBox="0.00 0.00 325.00 104.00" xmlns="http://www.w3.org/2000/svg" xmlns:xlink="http://www.w3.org/1999/xlink">
<g id="graph0" class="graph" transform="scale(1 1) rotate(0) translate(4 100)">
<title>C90TFS Flash</title>
<polygon fill="white" stroke="none" points="-4,4 -4,-100 321,-100 321,4 -4,4"/>
<!-- Node4 -->
<g id="node1" class="node"><title>Node4</title>
<g id="a_node1"><a xlink:href="group__flash.html" target="_top" xlink:title="Definitions and functions for flash operations. ">
<polygon fill="white" stroke="black" points="228,-76.5 228,-95.5 317,-95.5 317,-76.5 228,-76.5"/>
<text text-anchor="middle" x="272.5" y="-83.5" font-family="Helvetica,sans-Serif" font-size="10.00">Flash operations</text>
</a>
</g>
</g>
<!-- Node1 -->
<g id="node2" class="node"><title>Node1</title>
<g id="a_node2"><a xlink:href="group__drivers.html" target="_top" xlink:title="IP device drivers. ">
<polygon fill="white" stroke="black" points="0,-38.5 0,-57.5 77,-57.5 77,-38.5 0,-38.5"/>
<text text-anchor="middle" x="38.5" y="-45.5" font-family="Helvetica,sans-Serif" font-size="10.00">Device Drivers</text>
</a>
</g>
</g>
<!-- Node0 -->
<g id="node3" class="node"><title>Node0</title>
<polygon fill="#bfbfbf" stroke="black" points="113,-38.5 113,-57.5 192,-57.5 192,-38.5 113,-38.5"/>
<text text-anchor="middle" x="152.5" y="-45.5" font-family="Helvetica,sans-Serif" font-size="10.00">C90TFS Flash</text>
</g>
<!-- Node1&#45;&gt;Node0 -->
<g id="edge1" class="edge"><title>Node1&#45;&gt;Node0</title>
<path fill="none" stroke="black" d="M87.2606,-48C95.7343,-48 104.465,-48 112.654,-48"/>
<polygon fill="black" stroke="black" points="87.106,-44.5001 77.1059,-48 87.1059,-51.5001 87.106,-44.5001"/>
</g>
<!-- Node0&#45;&gt;Node4 -->
<g id="edge4" class="edge"><title>Node0&#45;&gt;Node4</title>
<path fill="none" stroke="black" d="M192.876,-60.6804C208.82,-65.8148 226.921,-71.6441 241.733,-76.4141"/>
<polygon fill="black" stroke="black" points="193.868,-57.3229 183.276,-57.589 191.722,-63.9859 193.868,-57.3229"/>
</g>
<!-- Node2 -->
<g id="node4" class="node"><title>Node2</title>
<g id="a_node4"><a xlink:href="group__flash__densities.html" target="_top" xlink:title="Definitions of flash densities. ">
<polygon fill="white" stroke="black" points="231,-38.5 231,-57.5 314,-57.5 314,-38.5 231,-38.5"/>
<text text-anchor="middle" x="272.5" y="-45.5" font-family="Helvetica,sans-Serif" font-size="10.00">Flash densities</text>
</a>
</g>
</g>
<!-- Node0&#45;&gt;Node2 -->
<g id="edge2" class="edge"><title>Node0&#45;&gt;Node2</title>
<path fill="none" stroke="black" d="M202.233,-48C211.712,-48 221.557,-48 230.747,-48"/>
<polygon fill="black" stroke="black" points="202.138,-44.5001 192.138,-48 202.138,-51.5001 202.138,-44.5001"/>
</g>
<!-- Node3 -->
<g id="node5" class="node"><title>Node3</title>
<g id="a_node5"><a xlink:href="group___s_s_d___f_t_fx___common.html" target="_top" xlink:title="Common definitions for flash access. ">
<polygon fill="white" stroke="black" points="232,-0.5 232,-19.5 313,-19.5 313,-0.5 232,-0.5"/>
<text text-anchor="middle" x="272.5" y="-7.5" font-family="Helvetica,sans-Serif" font-size="10.00">Flash common</text>
</a>
</g>
</g>
<!-- Node0&#45;&gt;Node3 -->
<g id="edge3" class="edge"><title>Node0&#45;&gt;Node3</title>
<path fill="none" stroke="black" d="M192.876,-35.3196C208.82,-30.1852 226.921,-24.3559 241.733,-19.5859"/>
<polygon fill="black" stroke="black" points="191.722,-32.0141 183.276,-38.411 193.868,-38.6771 191.722,-32.0141"/>
</g>
</g>
</svg>
