<?xml version="1.0" encoding="UTF-8" standalone="no"?>
<!DOCTYPE svg PUBLIC "-//W3C//DTD SVG 1.1//EN"
 "http://www.w3.org/Graphics/SVG/1.1/DTD/svg11.dtd">
<!-- Generated by graphviz version 2.38.0 (20140413.2041)
 -->
<!-- Title: SPI Pages: 1 -->
<svg width="284pt" height="142pt"
 viewBox="0.00 0.00 284.00 142.00" xmlns="http://www.w3.org/2000/svg" xmlns:xlink="http://www.w3.org/1999/xlink">
<g id="graph0" class="graph" transform="scale(1 1) rotate(0) translate(4 138)">
<title>SPI</title>
<polygon fill="white" stroke="none" points="-4,4 -4,-138 280,-138 280,4 -4,4"/>
<!-- Node4 -->
<g id="node1" class="node"><title>Node4</title>
<g id="a_node1"><a xlink:href="group__spi__slave__driver.html" target="_top" xlink:title="SPI slave mode peripheral driver. ">
<polygon fill="white" stroke="black" points="185.5,-114.5 185.5,-133.5 271.5,-133.5 271.5,-114.5 185.5,-114.5"/>
<text text-anchor="middle" x="228.5" y="-121.5" font-family="Helvetica,sans-Serif" font-size="10.00">SPI Slave Driver</text>
</a>
</g>
</g>
<!-- Node0 -->
<g id="node2" class="node"><title>Node0</title>
<polygon fill="#bfbfbf" stroke="black" points="113,-57.5 113,-76.5 145,-76.5 145,-57.5 113,-57.5"/>
<text text-anchor="middle" x="129" y="-64.5" font-family="Helvetica,sans-Serif" font-size="10.00">SPI</text>
</g>
<!-- Node0&#45;&gt;Node4 -->
<g id="edge4" class="edge"><title>Node0&#45;&gt;Node4</title>
<path fill="none" stroke="black" d="M148.979,-82.9419C158.256,-90.2541 169.811,-98.6808 181,-105 187.227,-108.517 194.235,-111.73 200.886,-114.473"/>
<polygon fill="black" stroke="black" points="151.153,-80.1986 141.177,-76.6323 146.752,-85.6417 151.153,-80.1986"/>
</g>
<!-- Node2 -->
<g id="node3" class="node"><title>Node2</title>
<g id="a_node3"><a xlink:href="group__spi__hal.html" target="_top" xlink:title="SPI peripheral HAL. ">
<polygon fill="white" stroke="black" points="201.5,-76.5 201.5,-95.5 255.5,-95.5 255.5,-76.5 201.5,-76.5"/>
<text text-anchor="middle" x="228.5" y="-83.5" font-family="Helvetica,sans-Serif" font-size="10.00">SPI HAL</text>
</a>
</g>
</g>
<!-- Node0&#45;&gt;Node2 -->
<g id="edge2" class="edge"><title>Node0&#45;&gt;Node2</title>
<path fill="none" stroke="black" d="M155.275,-71.9254C169.438,-74.6853 187.073,-78.1219 201.372,-80.9083"/>
<polygon fill="black" stroke="black" points="155.719,-68.4462 145.234,-69.9688 154.38,-75.3169 155.719,-68.4462"/>
</g>
<!-- Node3 -->
<g id="node5" class="node"><title>Node3</title>
<g id="a_node5"><a xlink:href="group__spi__master__driver.html" target="_top" xlink:title="SPI master mode peripheral driver. ">
<polygon fill="white" stroke="black" points="182.5,-38.5 182.5,-57.5 274.5,-57.5 274.5,-38.5 182.5,-38.5"/>
<text text-anchor="middle" x="228.5" y="-45.5" font-family="Helvetica,sans-Serif" font-size="10.00">SPI Master Driver</text>
</a>
</g>
</g>
<!-- Node0&#45;&gt;Node3 -->
<g id="edge3" class="edge"><title>Node0&#45;&gt;Node3</title>
<path fill="none" stroke="black" d="M155.073,-62.114C163.444,-60.4827 173.045,-58.6118 182.46,-56.777"/>
<polygon fill="black" stroke="black" points="154.38,-58.6831 145.234,-64.0313 155.719,-65.5538 154.38,-58.6831"/>
</g>
<!-- Node5 -->
<g id="node6" class="node"><title>Node5</title>
<g id="a_node6"><a xlink:href="group__spi__types.html" target="_top" xlink:title="Shared types for SPI drivers. ">
<polygon fill="white" stroke="black" points="181,-0.5 181,-19.5 276,-19.5 276,-0.5 181,-0.5"/>
<text text-anchor="middle" x="228.5" y="-7.5" font-family="Helvetica,sans-Serif" font-size="10.00">Shared SPI Types</text>
</a>
</g>
</g>
<!-- Node0&#45;&gt;Node5 -->
<g id="edge5" class="edge"><title>Node0&#45;&gt;Node5</title>
<path fill="none" stroke="black" d="M148.979,-51.0581C158.256,-43.7459 169.811,-35.3192 181,-29 187.227,-25.4833 194.235,-22.27 200.886,-19.5267"/>
<polygon fill="black" stroke="black" points="146.752,-48.3583 141.177,-57.3677 151.153,-53.8014 146.752,-48.3583"/>
</g>
<!-- Node1 -->
<g id="node4" class="node"><title>Node1</title>
<g id="a_node4"><a xlink:href="group__drivers.html" target="_top" xlink:title="IP device drivers. ">
<polygon fill="white" stroke="black" points="0,-57.5 0,-76.5 77,-76.5 77,-57.5 0,-57.5"/>
<text text-anchor="middle" x="38.5" y="-64.5" font-family="Helvetica,sans-Serif" font-size="10.00">Device Drivers</text>
</a>
</g>
</g>
<!-- Node1&#45;&gt;Node0 -->
<g id="edge1" class="edge"><title>Node1&#45;&gt;Node0</title>
<path fill="none" stroke="black" d="M87.1717,-67C96.5154,-67 105.654,-67 112.909,-67"/>
<polygon fill="black" stroke="black" points="87.032,-63.5001 77.032,-67 87.0319,-70.5001 87.032,-63.5001"/>
</g>
</g>
</svg>
