<?xml version="1.0" encoding="UTF-8" standalone="no"?>
<!DOCTYPE svg PUBLIC "-//W3C//DTD SVG 1.1//EN"
 "http://www.w3.org/Graphics/SVG/1.1/DTD/svg11.dtd">
<!-- Generated by graphviz version 2.38.0 (20140413.2041)
 -->
<!-- Title: CRC Pages: 1 -->
<svg width="128pt" height="66pt"
 viewBox="0.00 0.00 128.00 66.00" xmlns="http://www.w3.org/2000/svg" xmlns:xlink="http://www.w3.org/1999/xlink">
<g id="graph0" class="graph" transform="scale(1 1) rotate(0) translate(4 62)">
<title>CRC</title>
<polygon fill="white" stroke="none" points="-4,4 -4,-62 124,-62 124,4 -4,4"/>
<!-- Node0 -->
<g id="node1" class="node"><title>Node0</title>
<polygon fill="#bfbfbf" stroke="black" points="0,-19.5 0,-38.5 37,-38.5 37,-19.5 0,-19.5"/>
<text text-anchor="middle" x="18.5" y="-26.5" font-family="Helvetica,sans-Serif" font-size="10.00">CRC</text>
</g>
<!-- Node1 -->
<g id="node2" class="node"><title>Node1</title>
<g id="a_node2"><a xlink:href="group__crc16.html" target="_top" xlink:title="16&#45;bit CRC ">
<polygon fill="white" stroke="black" points="73,-38.5 73,-57.5 120,-57.5 120,-38.5 73,-38.5"/>
<text text-anchor="middle" x="96.5" y="-45.5" font-family="Helvetica,sans-Serif" font-size="10.00">CRC16</text>
</a>
</g>
</g>
<!-- Node0&#45;&gt;Node1 -->
<g id="edge1" class="edge"><title>Node0&#45;&gt;Node1</title>
<path fill="none" stroke="black" d="M46.9577,-35.8644C55.429,-37.9822 64.6594,-40.2898 72.7747,-42.3187"/>
<polygon fill="black" stroke="black" points="47.6773,-32.4367 37.127,-33.4067 45.9795,-39.2277 47.6773,-32.4367"/>
</g>
<!-- Node2 -->
<g id="node3" class="node"><title>Node2</title>
<g id="a_node3"><a xlink:href="group__crc32.html" target="_top" xlink:title="32&#45;bit CRC ">
<polygon fill="white" stroke="black" points="73,-0.5 73,-19.5 120,-19.5 120,-0.5 73,-0.5"/>
<text text-anchor="middle" x="96.5" y="-7.5" font-family="Helvetica,sans-Serif" font-size="10.00">CRC32</text>
</a>
</g>
</g>
<!-- Node0&#45;&gt;Node2 -->
<g id="edge2" class="edge"><title>Node0&#45;&gt;Node2</title>
<path fill="none" stroke="black" d="M46.9577,-22.1356C55.429,-20.0178 64.6594,-17.7102 72.7747,-15.6813"/>
<polygon fill="black" stroke="black" points="45.9795,-18.7723 37.127,-24.5933 47.6773,-25.5633 45.9795,-18.7723"/>
</g>
</g>
</svg>
