<?xml version="1.0" encoding="UTF-8" standalone="no"?>
<!DOCTYPE svg PUBLIC "-//W3C//DTD SVG 1.1//EN"
 "http://www.w3.org/Graphics/SVG/1.1/DTD/svg11.dtd">
<!-- Generated by graphviz version 2.38.0 (20140413.2041)
 -->
<!-- Title: Graphical Class Hierarchy Pages: 1 -->
<svg width="424pt" height="66pt"
 viewBox="0.00 0.00 424.00 66.00" xmlns="http://www.w3.org/2000/svg" xmlns:xlink="http://www.w3.org/1999/xlink">
<g id="graph0" class="graph" transform="scale(1 1) rotate(0) translate(4 62)">
<title>Graphical Class Hierarchy</title>
<polygon fill="white" stroke="none" points="-4,4 -4,-62 420,-62 420,4 -4,4"/>
<!-- Node1 -->
<g id="node1" class="node"><title>Node1</title>
<g id="a_node1"><a xlink:href="group__host__peripherals.html#classblfwk_1_1_peripheral" target="_top" xlink:title="Represents a peripheral. ">
<polygon fill="white" stroke="black" points="0,-19.5 0,-38.5 88,-38.5 88,-19.5 0,-19.5"/>
<text text-anchor="middle" x="44" y="-26.5" font-family="Helvetica,sans-Serif" font-size="10.00">blfwk::Peripheral</text>
</a>
</g>
</g>
<!-- Node2 -->
<g id="node2" class="node"><title>Node2</title>
<g id="a_node2"><a xlink:href="group__uart__peripheral.html#classblfwk_1_1_uart_peripheral" target="_top" xlink:title="Peripheral that talks to the target device over COM port hardware. ">
<polygon fill="white" stroke="black" points="130.5,-38.5 130.5,-57.5 236.5,-57.5 236.5,-38.5 130.5,-38.5"/>
<text text-anchor="middle" x="183.5" y="-45.5" font-family="Helvetica,sans-Serif" font-size="10.00">blfwk::UartPeripheral</text>
</a>
</g>
</g>
<!-- Node1&#45;&gt;Node2 -->
<g id="edge1" class="edge"><title>Node1&#45;&gt;Node2</title>
<path fill="none" stroke="midnightblue" d="M98.0875,-36.3357C108.679,-37.7993 119.794,-39.3352 130.353,-40.7943"/>
<polygon fill="midnightblue" stroke="midnightblue" points="98.5136,-32.8614 88.1286,-34.9596 97.5554,-39.7955 98.5136,-32.8614"/>
</g>
<!-- Node4 -->
<g id="node4" class="node"><title>Node4</title>
<g id="a_node4"><a xlink:href="group__host__usb__hid__peripheral.html#classblfwk_1_1_usb_hid_peripheral" target="_top" xlink:title="Represents a USB HID peripheral. ">
<polygon fill="white" stroke="black" points="124,-0.5 124,-19.5 243,-19.5 243,-0.5 124,-0.5"/>
<text text-anchor="middle" x="183.5" y="-7.5" font-family="Helvetica,sans-Serif" font-size="10.00">blfwk::UsbHidPeripheral</text>
</a>
</g>
</g>
<!-- Node1&#45;&gt;Node4 -->
<g id="edge3" class="edge"><title>Node1&#45;&gt;Node4</title>
<path fill="none" stroke="midnightblue" d="M98.1992,-21.6488C106.619,-20.4854 115.367,-19.2766 123.901,-18.0973"/>
<polygon fill="midnightblue" stroke="midnightblue" points="97.5554,-18.2045 88.1286,-23.0404 98.5136,-25.1386 97.5554,-18.2045"/>
</g>
<!-- Node3 -->
<g id="node3" class="node"><title>Node3</title>
<g id="a_node3"><a xlink:href="group__bus__pal__peripheral.html#classblfwk_1_1_bus_pal_uart_peripheral" target="_top" xlink:title="Peripheral that talks to the target device over BusPal UART hardware. ">
<polygon fill="white" stroke="black" points="279,-38.5 279,-57.5 416,-57.5 416,-38.5 279,-38.5"/>
<text text-anchor="middle" x="347.5" y="-45.5" font-family="Helvetica,sans-Serif" font-size="10.00">blfwk::BusPalUartPeripheral</text>
</a>
</g>
</g>
<!-- Node2&#45;&gt;Node3 -->
<g id="edge2" class="edge"><title>Node2&#45;&gt;Node3</title>
<path fill="none" stroke="midnightblue" d="M246.908,-48C257.34,-48 268.206,-48 278.764,-48"/>
<polygon fill="midnightblue" stroke="midnightblue" points="246.65,-44.5001 236.65,-48 246.65,-51.5001 246.65,-44.5001"/>
</g>
</g>
</svg>
