<?xml version="1.0" encoding="UTF-8" standalone="no"?>
<!DOCTYPE svg PUBLIC "-//W3C//DTD SVG 1.1//EN"
 "http://www.w3.org/Graphics/SVG/1.1/DTD/svg11.dtd">
<!-- Generated by graphviz version 2.38.0 (20140413.2041)
 -->
<!-- Title: Graphical Class Hierarchy Pages: 1 -->
<svg width="257pt" height="66pt"
 viewBox="0.00 0.00 257.00 66.00" xmlns="http://www.w3.org/2000/svg" xmlns:xlink="http://www.w3.org/1999/xlink">
<g id="graph0" class="graph" transform="scale(1 1) rotate(0) translate(4 62)">
<title>Graphical Class Hierarchy</title>
<polygon fill="white" stroke="none" points="-4,4 -4,-62 253,-62 253,4 -4,4"/>
<!-- Node1 -->
<g id="node1" class="node"><title>Node1</title>
<g id="a_node1"><a xlink:href="group__host__packetizers.html#classblfwk_1_1_packetizer" target="_top" xlink:title="Interface class for packetization of commands and data. ">
<polygon fill="white" stroke="black" points="0,-19.5 0,-38.5 91,-38.5 91,-19.5 0,-19.5"/>
<text text-anchor="middle" x="45.5" y="-26.5" font-family="Helvetica,sans-Serif" font-size="10.00">blfwk::Packetizer</text>
</a>
</g>
</g>
<!-- Node2 -->
<g id="node2" class="node"><title>Node2</title>
<g id="a_node2"><a xlink:href="group__serial__packetizer.html#classblfwk_1_1_serial_packetizer" target="_top" xlink:title="Provides source and sink for packets that go over the serial peripherals. ">
<polygon fill="white" stroke="black" points="130,-38.5 130,-57.5 246,-57.5 246,-38.5 130,-38.5"/>
<text text-anchor="middle" x="188" y="-45.5" font-family="Helvetica,sans-Serif" font-size="10.00">blfwk::SerialPacketizer</text>
</a>
</g>
</g>
<!-- Node1&#45;&gt;Node2 -->
<g id="edge1" class="edge"><title>Node1&#45;&gt;Node2</title>
<path fill="none" stroke="midnightblue" d="M101.353,-36.4178C110.75,-37.6886 120.533,-39.0116 129.985,-40.2898"/>
<polygon fill="midnightblue" stroke="midnightblue" points="101.72,-32.9357 91.3414,-35.064 100.782,-39.8726 101.72,-32.9357"/>
</g>
<!-- Node3 -->
<g id="node3" class="node"><title>Node3</title>
<g id="a_node3"><a xlink:href="group__usb__hid__packetizer.html#classblfwk_1_1_usb_hid_packetizer" target="_top" xlink:title="Provides source and sink for packets that go over USB HID class. ">
<polygon fill="white" stroke="black" points="127,-0.5 127,-19.5 249,-19.5 249,-0.5 127,-0.5"/>
<text text-anchor="middle" x="188" y="-7.5" font-family="Helvetica,sans-Serif" font-size="10.00">blfwk::UsbHidPacketizer</text>
</a>
</g>
</g>
<!-- Node1&#45;&gt;Node3 -->
<g id="edge2" class="edge"><title>Node1&#45;&gt;Node3</title>
<path fill="none" stroke="midnightblue" d="M101.382,-21.5782C109.766,-20.4444 118.458,-19.269 126.946,-18.1211"/>
<polygon fill="midnightblue" stroke="midnightblue" points="100.782,-18.1274 91.3414,-22.936 101.72,-25.0643 100.782,-18.1274"/>
</g>
</g>
</svg>
