<?xml version="1.0" encoding="UTF-8" standalone="no"?>
<!DOCTYPE svg PUBLIC "-//W3C//DTD SVG 1.1//EN"
 "http://www.w3.org/Graphics/SVG/1.1/DTD/svg11.dtd">
<!-- Generated by graphviz version 2.38.0 (20140413.2041)
 -->
<!-- Title: usb_composite_info_struct_t Pages: 1 -->
<svg width="126pt" height="374pt"
 viewBox="0.00 0.00 126.00 374.00" xmlns="http://www.w3.org/2000/svg" xmlns:xlink="http://www.w3.org/1999/xlink">
<g id="graph0" class="graph" transform="scale(1 1) rotate(0) translate(4 370)">
<title>usb_composite_info_struct_t</title>
<polygon fill="white" stroke="none" points="-4,4 -4,-370 122,-370 122,4 -4,4"/>
<!-- Node1 -->
<g id="node1" class="node"><title>Node1</title>
<polygon fill="#bfbfbf" stroke="black" points="7.5,-0.5 7.5,-30.5 110.5,-30.5 110.5,-0.5 7.5,-0.5"/>
<text text-anchor="start" x="15.5" y="-18.5" font-family="Helvetica,sans-Serif" font-size="10.00">usb_composite_info</text>
<text text-anchor="middle" x="59" y="-7.5" font-family="Helvetica,sans-Serif" font-size="10.00">_struct_t</text>
</g>
<!-- Node2 -->
<g id="node2" class="node"><title>Node2</title>
<g id="a_node2"><a xlink:href="structusb__class__struct__t.html" target="_top" xlink:title="Obtains the class data structure. ">
<polygon fill="white" stroke="black" points="9.5,-78.5 9.5,-97.5 108.5,-97.5 108.5,-78.5 9.5,-78.5"/>
<text text-anchor="middle" x="59" y="-85.5" font-family="Helvetica,sans-Serif" font-size="10.00">usb_class_struct_t</text>
</a>
</g>
</g>
<!-- Node2&#45;&gt;Node1 -->
<g id="edge1" class="edge"><title>Node2&#45;&gt;Node1</title>
<path fill="none" stroke="#9a32cd" stroke-dasharray="5,2" d="M59,-68.2362C59,-56.4079 59,-41.3829 59,-30.5762"/>
<polygon fill="#9a32cd" stroke="#9a32cd" points="55.5001,-68.3553 59,-78.3553 62.5001,-68.3554 55.5001,-68.3553"/>
<text text-anchor="middle" x="72.5" y="-52" font-family="Helvetica,sans-Serif" font-size="10.00"> class</text>
</g>
<!-- Node3 -->
<g id="node3" class="node"><title>Node3</title>
<g id="a_node3"><a xlink:href="structusb__interfaces__struct__t.html" target="_top" xlink:title="Obtains the interface group. ">
<polygon fill="white" stroke="black" points="0,-145.5 0,-164.5 118,-164.5 118,-145.5 0,-145.5"/>
<text text-anchor="middle" x="59" y="-152.5" font-family="Helvetica,sans-Serif" font-size="10.00">usb_interfaces_struct_t</text>
</a>
</g>
</g>
<!-- Node3&#45;&gt;Node2 -->
<g id="edge2" class="edge"><title>Node3&#45;&gt;Node2</title>
<path fill="none" stroke="#9a32cd" stroke-dasharray="5,2" d="M59,-135.037C59,-122.67 59,-107.12 59,-97.6273"/>
<polygon fill="#9a32cd" stroke="#9a32cd" points="55.5001,-135.234 59,-145.234 62.5001,-135.234 55.5001,-135.234"/>
<text text-anchor="middle" x="82" y="-119" font-family="Helvetica,sans-Serif" font-size="10.00"> interfaces</text>
</g>
<!-- Node4 -->
<g id="node4" class="node"><title>Node4</title>
<g id="a_node4"><a xlink:href="structusb__if__struct__t.html" target="_top" xlink:title="Obtains the interface data structure. ">
<polygon fill="white" stroke="black" points="19,-212.5 19,-231.5 99,-231.5 99,-212.5 19,-212.5"/>
<text text-anchor="middle" x="59" y="-219.5" font-family="Helvetica,sans-Serif" font-size="10.00">usb_if_struct_t</text>
</a>
</g>
</g>
<!-- Node4&#45;&gt;Node3 -->
<g id="edge3" class="edge"><title>Node4&#45;&gt;Node3</title>
<path fill="none" stroke="#9a32cd" stroke-dasharray="5,2" d="M59,-202.037C59,-189.67 59,-174.12 59,-164.627"/>
<polygon fill="#9a32cd" stroke="#9a32cd" points="55.5001,-202.234 59,-212.234 62.5001,-202.234 55.5001,-202.234"/>
<text text-anchor="middle" x="79" y="-186" font-family="Helvetica,sans-Serif" font-size="10.00"> interface</text>
</g>
<!-- Node5 -->
<g id="node5" class="node"><title>Node5</title>
<g id="a_node5"><a xlink:href="structusb__endpoints__t.html" target="_top" xlink:title="Obtains the endpoint group. ">
<polygon fill="white" stroke="black" points="15,-279.5 15,-298.5 103,-298.5 103,-279.5 15,-279.5"/>
<text text-anchor="middle" x="59" y="-286.5" font-family="Helvetica,sans-Serif" font-size="10.00">usb_endpoints_t</text>
</a>
</g>
</g>
<!-- Node5&#45;&gt;Node4 -->
<g id="edge4" class="edge"><title>Node5&#45;&gt;Node4</title>
<path fill="none" stroke="#9a32cd" stroke-dasharray="5,2" d="M59,-269.037C59,-256.67 59,-241.12 59,-231.627"/>
<polygon fill="#9a32cd" stroke="#9a32cd" points="55.5001,-269.234 59,-279.234 62.5001,-269.234 55.5001,-269.234"/>
<text text-anchor="middle" x="82" y="-253" font-family="Helvetica,sans-Serif" font-size="10.00"> endpoints</text>
</g>
<!-- Node6 -->
<g id="node6" class="node"><title>Node6</title>
<g id="a_node6"><a xlink:href="structusb__ep__struct__t.html" target="_top" xlink:title="Obtains the endpoint data structure. ">
<polygon fill="white" stroke="black" points="16,-346.5 16,-365.5 102,-365.5 102,-346.5 16,-346.5"/>
<text text-anchor="middle" x="59" y="-353.5" font-family="Helvetica,sans-Serif" font-size="10.00">usb_ep_struct_t</text>
</a>
</g>
</g>
<!-- Node6&#45;&gt;Node5 -->
<g id="edge5" class="edge"><title>Node6&#45;&gt;Node5</title>
<path fill="none" stroke="#9a32cd" stroke-dasharray="5,2" d="M59,-336.037C59,-323.67 59,-308.12 59,-298.627"/>
<polygon fill="#9a32cd" stroke="#9a32cd" points="55.5001,-336.234 59,-346.234 62.5001,-336.234 55.5001,-336.234"/>
<text text-anchor="middle" x="66" y="-320" font-family="Helvetica,sans-Serif" font-size="10.00"> ep</text>
</g>
</g>
</svg>
