<?xml version="1.0" encoding="UTF-8" standalone="no"?>
<!DOCTYPE svg PUBLIC "-//W3C//DTD SVG 1.1//EN"
 "http://www.w3.org/Graphics/SVG/1.1/DTD/svg11.dtd">
<!-- Generated by graphviz version 2.38.0 (20140413.2041)
 -->
<!-- Title: bootloader_tree_t Pages: 1 -->
<svg width="1102pt" height="429pt"
 viewBox="0.00 0.00 1102.00 429.00" xmlns="http://www.w3.org/2000/svg" xmlns:xlink="http://www.w3.org/1999/xlink">
<g id="graph0" class="graph" transform="scale(1 1) rotate(0) translate(4 425)">
<title>bootloader_tree_t</title>
<polygon fill="white" stroke="none" points="-4,4 -4,-425 1098,-425 1098,4 -4,4"/>
<!-- Node1 -->
<g id="node1" class="node"><title>Node1</title>
<polygon fill="#bfbfbf" stroke="black" points="1002,-320.5 1002,-339.5 1094,-339.5 1094,-320.5 1002,-320.5"/>
<text text-anchor="middle" x="1048" y="-327.5" font-family="Helvetica,sans-Serif" font-size="10.00">bootloader_tree_t</text>
</g>
<!-- Node2 -->
<g id="node2" class="node"><title>Node2</title>
<g id="a_node2"><a xlink:href="group__context.html#structaes__driver__interface__t" target="_top" xlink:title="Interface for AES 128 functions. ">
<polygon fill="white" stroke="black" points="555.5,-336.5 555.5,-355.5 665.5,-355.5 665.5,-336.5 555.5,-336.5"/>
<text text-anchor="middle" x="610.5" y="-343.5" font-family="Helvetica,sans-Serif" font-size="10.00">aes_driver_interface_t</text>
</a>
</g>
</g>
<!-- Node2&#45;&gt;Node1 -->
<g id="edge1" class="edge"><title>Node2&#45;&gt;Node1</title>
<path fill="none" stroke="#9a32cd" stroke-dasharray="5,2" d="M675.796,-344.109C704.873,-343.222 739.67,-342.115 771,-341 852.232,-338.108 946.89,-334.223 1001.58,-331.928"/>
<polygon fill="#9a32cd" stroke="#9a32cd" points="675.654,-340.612 665.764,-344.413 675.866,-347.608 675.654,-340.612"/>
<text text-anchor="middle" x="842.5" y="-344" font-family="Helvetica,sans-Serif" font-size="10.00"> aesDriver</text>
</g>
<!-- Node5 -->
<g id="node5" class="node"><title>Node5</title>
<g id="a_node5"><a xlink:href="group__context.html#structbootloader__context__t" target="_top" xlink:title="Structure of bootloader global context. ">
<polygon fill="white" stroke="black" points="789,-231.5 789,-250.5 896,-250.5 896,-231.5 789,-231.5"/>
<text text-anchor="middle" x="842.5" y="-238.5" font-family="Helvetica,sans-Serif" font-size="10.00">bootloader_context_t</text>
</a>
</g>
</g>
<!-- Node2&#45;&gt;Node5 -->
<g id="edge8" class="edge"><title>Node2&#45;&gt;Node5</title>
<path fill="none" stroke="#9a32cd" stroke-dasharray="5,2" d="M658.223,-333.715C690.803,-324.241 734.755,-309.616 771,-291 777.04,-287.898 809.781,-264.188 828.448,-250.561"/>
<polygon fill="#9a32cd" stroke="#9a32cd" points="657.155,-330.38 648.499,-336.488 659.075,-337.111 657.155,-330.38"/>
<text text-anchor="middle" x="728.5" y="-329" font-family="Helvetica,sans-Serif" font-size="10.00"> aesInterface</text>
</g>
<!-- Node3 -->
<g id="node3" class="node"><title>Node3</title>
<g id="a_node3"><a xlink:href="group__bl__core.html#unionstandard__version__t" target="_top" xlink:title="Structure of version property. ">
<polygon fill="white" stroke="black" points="17,-350.5 17,-369.5 115,-369.5 115,-350.5 17,-350.5"/>
<text text-anchor="middle" x="66" y="-357.5" font-family="Helvetica,sans-Serif" font-size="10.00">standard_version_t</text>
</a>
</g>
</g>
<!-- Node3&#45;&gt;Node1 -->
<g id="edge2" class="edge"><title>Node3&#45;&gt;Node1</title>
<path fill="none" stroke="#9a32cd" stroke-dasharray="5,2" d="M122.557,-371.488C183.116,-382.992 283.011,-399 370,-399 370,-399 370,-399 843.5,-399 916.619,-399 997.062,-358.553 1030.75,-339.594"/>
<polygon fill="#9a32cd" stroke="#9a32cd" points="122.933,-367.996 112.452,-369.54 121.609,-374.87 122.933,-367.996"/>
<text text-anchor="middle" x="610.5" y="-413" font-family="Helvetica,sans-Serif" font-size="10.00"> version</text>
<text text-anchor="middle" x="610.5" y="-402" font-family="Helvetica,sans-Serif" font-size="10.00">bootloader_version</text>
</g>
<!-- Node4 -->
<g id="node4" class="node"><title>Node4</title>
<g id="a_node4"><a xlink:href="group__context.html#structflash__driver__interface__t" target="_top" xlink:title="Interface for the flash driver. ">
<polygon fill="white" stroke="black" points="553,-291.5 553,-310.5 668,-310.5 668,-291.5 553,-291.5"/>
<text text-anchor="middle" x="610.5" y="-298.5" font-family="Helvetica,sans-Serif" font-size="10.00">flash_driver_interface_t</text>
</a>
</g>
</g>
<!-- Node3&#45;&gt;Node4 -->
<g id="edge4" class="edge"><title>Node3&#45;&gt;Node4</title>
<path fill="none" stroke="#9a32cd" stroke-dasharray="5,2" d="M125.245,-357.367C168.77,-355.122 229.696,-351.394 283,-346 377.929,-336.394 487.718,-320.21 552.732,-310.092"/>
<polygon fill="#9a32cd" stroke="#9a32cd" points="124.935,-353.878 115.125,-357.878 125.289,-360.869 124.935,-353.878"/>
<text text-anchor="middle" x="371" y="-347" font-family="Helvetica,sans-Serif" font-size="10.00"> version</text>
</g>
<!-- Node9 -->
<g id="node9" class="node"><title>Node9</title>
<g id="a_node9"><a xlink:href="group__property.html#structproperty__store__t" target="_top" xlink:title="Structure of property store. ">
<polygon fill="white" stroke="black" points="327.5,-234.5 327.5,-253.5 414.5,-253.5 414.5,-234.5 327.5,-234.5"/>
<text text-anchor="middle" x="371" y="-241.5" font-family="Helvetica,sans-Serif" font-size="10.00">property_store_t</text>
</a>
</g>
</g>
<!-- Node3&#45;&gt;Node9 -->
<g id="edge14" class="edge"><title>Node3&#45;&gt;Node9</title>
<path fill="none" stroke="#9a32cd" stroke-dasharray="5,2" d="M89.0826,-344.699C105.25,-334.21 128.101,-320.827 150,-313 206.489,-292.811 226.225,-309.371 283,-290 309.843,-280.842 338.455,-264.219 355.255,-253.663"/>
<polygon fill="#9a32cd" stroke="#9a32cd" points="86.7831,-342.025 80.3933,-350.476 90.6586,-347.854 86.7831,-342.025"/>
<text text-anchor="middle" x="216.5" y="-338" font-family="Helvetica,sans-Serif" font-size="10.00"> targetVersion</text>
<text text-anchor="middle" x="216.5" y="-327" font-family="Helvetica,sans-Serif" font-size="10.00">serialProtocolVersion</text>
<text text-anchor="middle" x="216.5" y="-316" font-family="Helvetica,sans-Serif" font-size="10.00">bootloaderVersion</text>
</g>
<!-- Node4&#45;&gt;Node1 -->
<g id="edge3" class="edge"><title>Node4&#45;&gt;Node1</title>
<path fill="none" stroke="#9a32cd" stroke-dasharray="5,2" d="M678.504,-305.462C768.256,-311.438 925.102,-321.883 1001.96,-327.001"/>
<polygon fill="#9a32cd" stroke="#9a32cd" points="678.645,-301.963 668.434,-304.791 678.179,-308.948 678.645,-301.963"/>
<text text-anchor="middle" x="842.5" y="-323" font-family="Helvetica,sans-Serif" font-size="10.00"> flashDriver</text>
</g>
<!-- Node4&#45;&gt;Node5 -->
<g id="edge17" class="edge"><title>Node4&#45;&gt;Node5</title>
<path fill="none" stroke="#9a32cd" stroke-dasharray="5,2" d="M647.611,-288.054C659.73,-283.932 673.374,-279.529 686,-276 721.578,-266.055 762.337,-256.964 793.198,-250.541"/>
<polygon fill="#9a32cd" stroke="#9a32cd" points="646.155,-284.854 637.845,-291.426 648.44,-291.471 646.155,-284.854"/>
<text text-anchor="middle" x="728.5" y="-279" font-family="Helvetica,sans-Serif" font-size="10.00"> flashDriverInterface</text>
</g>
<!-- Node5&#45;&gt;Node1 -->
<g id="edge5" class="edge"><title>Node5&#45;&gt;Node1</title>
<path fill="none" stroke="#9a32cd" stroke-dasharray="5,2" d="M906.098,-250.129C931.256,-255.421 959.94,-263.585 984,-276 1006.27,-287.494 1027.37,-308.31 1038.61,-320.466"/>
<polygon fill="#9a32cd" stroke="#9a32cd" points="906.776,-246.695 896.285,-248.17 905.406,-253.56 906.776,-246.695"/>
<text text-anchor="middle" x="949" y="-279" font-family="Helvetica,sans-Serif" font-size="10.00"> runtimeContext</text>
</g>
<!-- Node6 -->
<g id="node6" class="node"><title>Node6</title>
<g id="a_node6"><a xlink:href="group__memif.html#structmemory__map__entry__t" target="_top" xlink:title="Structure of a memory map entry. ">
<polygon fill="white" stroke="black" points="555,-24.5 555,-43.5 666,-43.5 666,-24.5 555,-24.5"/>
<text text-anchor="middle" x="610.5" y="-31.5" font-family="Helvetica,sans-Serif" font-size="10.00">memory_map_entry_t</text>
</a>
</g>
</g>
<!-- Node6&#45;&gt;Node5 -->
<g id="edge6" class="edge"><title>Node6&#45;&gt;Node5</title>
<path fill="none" stroke="#9a32cd" stroke-dasharray="5,2" d="M639.128,-48.3985C672.798,-66.8246 730.233,-101.168 771,-141 800.475,-169.8 825.764,-212.378 836.284,-231.312"/>
<polygon fill="#9a32cd" stroke="#9a32cd" points="640.758,-45.3009 630.295,-43.6321 637.434,-51.4612 640.758,-45.3009"/>
<text text-anchor="middle" x="728.5" y="-144" font-family="Helvetica,sans-Serif" font-size="10.00"> memoryMap</text>
</g>
<!-- Node7 -->
<g id="node7" class="node"><title>Node7</title>
<g id="a_node7"><a xlink:href="group__memif.html#structmemory__region__interface__t" target="_top" xlink:title="Interface to memory operations for one region of memory. ">
<polygon fill="white" stroke="black" points="304,-0.5 304,-19.5 438,-19.5 438,-0.5 304,-0.5"/>
<text text-anchor="middle" x="371" y="-7.5" font-family="Helvetica,sans-Serif" font-size="10.00">memory_region_interface_t</text>
</a>
</g>
</g>
<!-- Node7&#45;&gt;Node6 -->
<g id="edge7" class="edge"><title>Node7&#45;&gt;Node6</title>
<path fill="none" stroke="#9a32cd" stroke-dasharray="5,2" d="M448.262,-17.7065C482.982,-21.2151 523.285,-25.2877 554.91,-28.4836"/>
<polygon fill="#9a32cd" stroke="#9a32cd" points="448.458,-14.2086 438.157,-16.6853 447.754,-21.1731 448.458,-14.2086"/>
<text text-anchor="middle" x="497" y="-30" font-family="Helvetica,sans-Serif" font-size="10.00"> memoryInterface</text>
</g>
<!-- Node8 -->
<g id="node8" class="node"><title>Node8</title>
<g id="a_node8"><a xlink:href="group__property.html#structproperty__interface__t" target="_top" xlink:title="Interface to property operations. ">
<polygon fill="white" stroke="black" points="559.5,-234.5 559.5,-253.5 661.5,-253.5 661.5,-234.5 559.5,-234.5"/>
<text text-anchor="middle" x="610.5" y="-241.5" font-family="Helvetica,sans-Serif" font-size="10.00">property_interface_t</text>
</a>
</g>
</g>
<!-- Node8&#45;&gt;Node5 -->
<g id="edge9" class="edge"><title>Node8&#45;&gt;Node5</title>
<path fill="none" stroke="#9a32cd" stroke-dasharray="5,2" d="M671.588,-242.281C676.463,-242.174 681.314,-242.078 686,-242 720.282,-241.43 758.819,-241.179 788.953,-241.071"/>
<polygon fill="#9a32cd" stroke="#9a32cd" points="671.505,-238.782 661.59,-242.515 671.669,-245.78 671.505,-238.782"/>
<text text-anchor="middle" x="728.5" y="-245" font-family="Helvetica,sans-Serif" font-size="10.00"> propertyInterface</text>
</g>
<!-- Node9&#45;&gt;Node8 -->
<g id="edge10" class="edge"><title>Node9&#45;&gt;Node8</title>
<path fill="none" stroke="#9a32cd" stroke-dasharray="5,2" d="M424.861,-244C464.995,-244 519.819,-244 559.287,-244"/>
<polygon fill="#9a32cd" stroke="#9a32cd" points="424.735,-240.5 414.735,-244 424.735,-247.5 424.735,-240.5"/>
<text text-anchor="middle" x="497" y="-247" font-family="Helvetica,sans-Serif" font-size="10.00"> store</text>
</g>
<!-- Node10 -->
<g id="node10" class="node"><title>Node10</title>
<g id="a_node10"><a xlink:href="group__property.html#structbootloader__configuration__data__t" target="_top" xlink:title="Format of bootloader configuration data on Flash. ">
<polygon fill="white" stroke="black" points="5,-275 5,-305 127,-305 127,-275 5,-275"/>
<text text-anchor="start" x="13" y="-293" font-family="Helvetica,sans-Serif" font-size="10.00">bootloader_configuration</text>
<text text-anchor="middle" x="66" y="-282" font-family="Helvetica,sans-Serif" font-size="10.00">_data_t</text>
</a>
</g>
</g>
<!-- Node10&#45;&gt;Node9 -->
<g id="edge11" class="edge"><title>Node10&#45;&gt;Node9</title>
<path fill="none" stroke="#9a32cd" stroke-dasharray="5,2" d="M137.192,-279.344C196.029,-270.411 278.115,-257.949 327.458,-250.458"/>
<polygon fill="#9a32cd" stroke="#9a32cd" points="136.587,-275.895 127.225,-280.857 137.637,-282.816 136.587,-275.895"/>
<text text-anchor="middle" x="216.5" y="-280" font-family="Helvetica,sans-Serif" font-size="10.00"> configurationData</text>
</g>
<!-- Node11 -->
<g id="node11" class="node"><title>Node11</title>
<g id="a_node11"><a xlink:href="group__property.html#structreserved__region__t" target="_top" xlink:title="Structure of a reserved regions entry. ">
<polygon fill="white" stroke="black" points="20,-236.5 20,-255.5 112,-255.5 112,-236.5 20,-236.5"/>
<text text-anchor="middle" x="66" y="-243.5" font-family="Helvetica,sans-Serif" font-size="10.00">reserved_region_t</text>
</a>
</g>
</g>
<!-- Node11&#45;&gt;Node9 -->
<g id="edge12" class="edge"><title>Node11&#45;&gt;Node9</title>
<path fill="none" stroke="#9a32cd" stroke-dasharray="5,2" d="M122.469,-245.274C131.665,-245.17 141.101,-245.074 150,-245 211.683,-244.488 283.095,-244.224 327.413,-244.099"/>
<polygon fill="#9a32cd" stroke="#9a32cd" points="122.188,-241.777 112.23,-245.394 122.27,-248.776 122.188,-241.777"/>
<text text-anchor="middle" x="216.5" y="-248" font-family="Helvetica,sans-Serif" font-size="10.00"> reservedRegions</text>
</g>
<!-- Node12 -->
<g id="node12" class="node"><title>Node12</title>
<g id="a_node12"><a xlink:href="group__property.html#structunique__device__id__t" target="_top" xlink:title="Structure of a unique device id. ">
<polygon fill="white" stroke="black" points="17,-198.5 17,-217.5 115,-217.5 115,-198.5 17,-198.5"/>
<text text-anchor="middle" x="66" y="-205.5" font-family="Helvetica,sans-Serif" font-size="10.00">unique_device_id_t</text>
</a>
</g>
</g>
<!-- Node12&#45;&gt;Node9 -->
<g id="edge13" class="edge"><title>Node12&#45;&gt;Node9</title>
<path fill="none" stroke="#9a32cd" stroke-dasharray="5,2" d="M125.257,-213.01C168.789,-216.978 229.717,-223.005 283,-230 297.41,-231.892 313.106,-234.307 327.149,-236.598"/>
<polygon fill="#9a32cd" stroke="#9a32cd" points="125.41,-209.51 115.135,-212.096 124.78,-216.482 125.41,-209.51"/>
<text text-anchor="middle" x="216.5" y="-233" font-family="Helvetica,sans-Serif" font-size="10.00"> UniqueDeviceId</text>
</g>
<!-- Node13 -->
<g id="node13" class="node"><title>Node13</title>
<g id="a_node13"><a xlink:href="group__property.html#structexternal__memory__property__store__t" target="_top" xlink:title="Exernal Memory attribute store. ">
<polygon fill="white" stroke="black" points="0,-149 0,-179 132,-179 132,-149 0,-149"/>
<text text-anchor="start" x="8" y="-167" font-family="Helvetica,sans-Serif" font-size="10.00">external_memory_property</text>
<text text-anchor="middle" x="66" y="-156" font-family="Helvetica,sans-Serif" font-size="10.00">_store_t</text>
</a>
</g>
</g>
<!-- Node13&#45;&gt;Node9 -->
<g id="edge15" class="edge"><title>Node13&#45;&gt;Node9</title>
<path fill="none" stroke="#9a32cd" stroke-dasharray="5,2" d="M142.623,-171.514C184.675,-177.036 237.541,-186.22 283,-201 309.117,-209.491 337.246,-224.602 354.237,-234.46"/>
<polygon fill="#9a32cd" stroke="#9a32cd" points="142.813,-168.01 132.452,-170.222 141.931,-174.954 142.813,-168.01"/>
<text text-anchor="middle" x="216.5" y="-204" font-family="Helvetica,sans-Serif" font-size="10.00"> externalMemoryPropertyStore</text>
</g>
<!-- Node14 -->
<g id="node14" class="node"><title>Node14</title>
<g id="a_node14"><a xlink:href="group__memif.html#structmemory__interface__t" target="_top" xlink:title="Interface to memory operations. ">
<polygon fill="white" stroke="black" points="559.5,-196.5 559.5,-215.5 661.5,-215.5 661.5,-196.5 559.5,-196.5"/>
<text text-anchor="middle" x="610.5" y="-203.5" font-family="Helvetica,sans-Serif" font-size="10.00">memory_interface_t</text>
</a>
</g>
</g>
<!-- Node14&#45;&gt;Node5 -->
<g id="edge16" class="edge"><title>Node14&#45;&gt;Node5</title>
<path fill="none" stroke="#9a32cd" stroke-dasharray="5,2" d="M671.831,-213.003C701.729,-216.712 738.337,-221.613 771,-227 779.003,-228.32 787.487,-229.872 795.692,-231.454"/>
<polygon fill="#9a32cd" stroke="#9a32cd" points="671.904,-209.486 661.552,-211.742 671.052,-216.434 671.904,-209.486"/>
<text text-anchor="middle" x="728.5" y="-230" font-family="Helvetica,sans-Serif" font-size="10.00"> memoryInterface</text>
</g>
<!-- Node15 -->
<g id="node15" class="node"><title>Node15</title>
<g id="a_node15"><a xlink:href="group__command.html#structcommand__interface__t" target="_top" xlink:title="Interface to command processor operations. ">
<polygon fill="white" stroke="black" points="555.5,-99.5 555.5,-118.5 665.5,-118.5 665.5,-99.5 555.5,-99.5"/>
<text text-anchor="middle" x="610.5" y="-106.5" font-family="Helvetica,sans-Serif" font-size="10.00">command_interface_t</text>
</a>
</g>
</g>
<!-- Node15&#45;&gt;Node5 -->
<g id="edge18" class="edge"><title>Node15&#45;&gt;Node5</title>
<path fill="none" stroke="#9a32cd" stroke-dasharray="5,2" d="M637.18,-123.738C684.717,-151.02 785.19,-208.683 824.873,-231.458"/>
<polygon fill="#9a32cd" stroke="#9a32cd" points="638.828,-120.648 628.412,-118.706 635.343,-126.72 638.828,-120.648"/>
<text text-anchor="middle" x="728.5" y="-202" font-family="Helvetica,sans-Serif" font-size="10.00"> commandInterface</text>
</g>
<!-- Node16 -->
<g id="node16" class="node"><title>Node16</title>
<g id="a_node16"><a xlink:href="group__command.html#structcommand__processor__data__t" target="_top" xlink:title="Command processor data format. ">
<polygon fill="white" stroke="black" points="301,-99.5 301,-118.5 441,-118.5 441,-99.5 301,-99.5"/>
<text text-anchor="middle" x="371" y="-106.5" font-family="Helvetica,sans-Serif" font-size="10.00">command_processor_data_t</text>
</a>
</g>
</g>
<!-- Node16&#45;&gt;Node15 -->
<g id="edge19" class="edge"><title>Node16&#45;&gt;Node15</title>
<path fill="none" stroke="#9a32cd" stroke-dasharray="5,2" d="M451.446,-109C485.616,-109 524.678,-109 555.421,-109"/>
<polygon fill="#9a32cd" stroke="#9a32cd" points="451.014,-105.5 441.014,-109 451.014,-112.5 451.014,-105.5"/>
<text text-anchor="middle" x="497" y="-112" font-family="Helvetica,sans-Serif" font-size="10.00"> stateData</text>
</g>
<!-- Node17 -->
<g id="node17" class="node"><title>Node17</title>
<g id="a_node17"><a xlink:href="group__command.html#structcommand__handler__entry__t" target="_top" xlink:title="Format of command handler entry. ">
<polygon fill="white" stroke="black" points="0.5,-50.5 0.5,-69.5 131.5,-69.5 131.5,-50.5 0.5,-50.5"/>
<text text-anchor="middle" x="66" y="-57.5" font-family="Helvetica,sans-Serif" font-size="10.00">command_handler_entry_t</text>
</a>
</g>
</g>
<!-- Node17&#45;&gt;Node15 -->
<g id="edge22" class="edge"><title>Node17&#45;&gt;Node15</title>
<path fill="none" stroke="#9a32cd" stroke-dasharray="5,2" d="M142.107,-61.0509C217.786,-62.7587 337.816,-67.2405 441,-79 483.217,-83.8113 530.846,-92.6083 564.668,-99.437"/>
<polygon fill="#9a32cd" stroke="#9a32cd" points="141.802,-57.5437 131.729,-60.8279 141.652,-64.542 141.802,-57.5437"/>
<text text-anchor="middle" x="371" y="-82" font-family="Helvetica,sans-Serif" font-size="10.00"> handlerTable</text>
</g>
<!-- Node17&#45;&gt;Node16 -->
<g id="edge20" class="edge"><title>Node17&#45;&gt;Node16</title>
<path fill="none" stroke="#9a32cd" stroke-dasharray="5,2" d="M135.751,-71.1181C188.624,-79.6686 260.896,-91.3561 311.125,-99.4789"/>
<polygon fill="#9a32cd" stroke="#9a32cd" points="136.211,-67.6472 125.781,-69.5058 135.094,-74.5574 136.211,-67.6472"/>
<text text-anchor="middle" x="216.5" y="-98" font-family="Helvetica,sans-Serif" font-size="10.00"> handlerEntry</text>
</g>
<!-- Node18 -->
<g id="node18" class="node"><title>Node18</title>
<g id="a_node18"><a xlink:href="group__command.html#structcommand__processor__data__t_1_1_data_phase" target="_top" xlink:title="command_processor_data\l_t::DataPhase">
<polygon fill="white" stroke="black" points="0.5,-100 0.5,-130 131.5,-130 131.5,-100 0.5,-100"/>
<text text-anchor="start" x="8.5" y="-118" font-family="Helvetica,sans-Serif" font-size="10.00">command_processor_data</text>
<text text-anchor="middle" x="66" y="-107" font-family="Helvetica,sans-Serif" font-size="10.00">_t::DataPhase</text>
</a>
</g>
</g>
<!-- Node18&#45;&gt;Node16 -->
<g id="edge21" class="edge"><title>Node18&#45;&gt;Node16</title>
<path fill="none" stroke="#9a32cd" stroke-dasharray="5,2" d="M141.789,-113.519C190.471,-112.555 253.508,-111.307 300.991,-110.367"/>
<polygon fill="#9a32cd" stroke="#9a32cd" points="141.558,-110.023 131.629,-113.72 141.697,-117.021 141.558,-110.023"/>
<text text-anchor="middle" x="216.5" y="-117" font-family="Helvetica,sans-Serif" font-size="10.00"> dataPhase</text>
</g>
</g>
</svg>
