<?xml version="1.0" encoding="UTF-8" standalone="no"?>
<!DOCTYPE svg PUBLIC "-//W3C//DTD SVG 1.1//EN"
 "http://www.w3.org/Graphics/SVG/1.1/DTD/svg11.dtd">
<!-- Generated by graphviz version 2.38.0 (20140413.2041)
 -->
<!-- Title: dspi_slave_user_config_t Pages: 1 -->
<svg width="272pt" height="95pt"
 viewBox="0.00 0.00 272.00 95.00" xmlns="http://www.w3.org/2000/svg" xmlns:xlink="http://www.w3.org/1999/xlink">
<g id="graph0" class="graph" transform="scale(1 1) rotate(0) translate(4 91)">
<title>dspi_slave_user_config_t</title>
<polygon fill="white" stroke="none" points="-4,4 -4,-91 268,-91 268,4 -4,4"/>
<!-- Node1 -->
<g id="node1" class="node"><title>Node1</title>
<polygon fill="#bfbfbf" stroke="black" points="72.5,-0.5 72.5,-19.5 197.5,-19.5 197.5,-0.5 72.5,-0.5"/>
<text text-anchor="middle" x="135" y="-7.5" font-family="Helvetica,sans-Serif" font-size="10.00">dspi_slave_user_config_t</text>
</g>
<!-- Node2 -->
<g id="node2" class="node"><title>Node2</title>
<g id="a_node2"><a xlink:href="group__dspi__hal.html#structdspi__data__format__config__t" target="_top" xlink:title="DSPI data format settings configuration structure. ">
<polygon fill="white" stroke="black" points="0,-67.5 0,-86.5 130,-86.5 130,-67.5 0,-67.5"/>
<text text-anchor="middle" x="65" y="-74.5" font-family="Helvetica,sans-Serif" font-size="10.00">dspi_data_format_config_t</text>
</a>
</g>
</g>
<!-- Node2&#45;&gt;Node1 -->
<g id="edge1" class="edge"><title>Node2&#45;&gt;Node1</title>
<path fill="none" stroke="#9a32cd" stroke-dasharray="5,2" d="M81.847,-60.3564C95.6087,-47.5777 114.548,-29.9915 125.709,-19.6273"/>
<polygon fill="#9a32cd" stroke="#9a32cd" points="79.3869,-57.8645 74.4405,-67.2338 84.1501,-62.9941 79.3869,-57.8645"/>
<text text-anchor="middle" x="129.5" y="-41" font-family="Helvetica,sans-Serif" font-size="10.00"> dataConfig</text>
</g>
<!-- Node3 -->
<g id="node3" class="node"><title>Node3</title>
<g id="a_node3"><a xlink:href="group__dspi__slave__driver.html#structdspi__slave__callbacks__t" target="_top" xlink:title="The set of callbacks used for the DSPI slave mode. ">
<polygon fill="white" stroke="black" points="148,-67.5 148,-86.5 264,-86.5 264,-67.5 148,-67.5"/>
<text text-anchor="middle" x="206" y="-74.5" font-family="Helvetica,sans-Serif" font-size="10.00">dspi_slave_callbacks_t</text>
</a>
</g>
</g>
<!-- Node3&#45;&gt;Node1 -->
<g id="edge2" class="edge"><title>Node3&#45;&gt;Node1</title>
<path fill="none" stroke="#9a32cd" stroke-dasharray="5,2" d="M188.912,-60.3564C174.954,-47.5777 155.745,-29.9915 144.424,-19.6273"/>
<polygon fill="#9a32cd" stroke="#9a32cd" points="186.685,-63.0628 196.425,-67.2338 191.412,-57.8997 186.685,-63.0628"/>
<text text-anchor="middle" x="196.5" y="-41" font-family="Helvetica,sans-Serif" font-size="10.00"> callbacks</text>
</g>
</g>
</svg>
