<?xml version="1.0" encoding="UTF-8" standalone="no"?>
<!DOCTYPE svg PUBLIC "-//W3C//DTD SVG 1.1//EN"
 "http://www.w3.org/Graphics/SVG/1.1/DTD/svg11.dtd">
<!-- Generated by graphviz version 2.38.0 (20140413.2041)
 -->
<!-- Title: bm_msgq_struct_t Pages: 1 -->
<svg width="124pt" height="117pt"
 viewBox="0.00 0.00 123.50 117.00" xmlns="http://www.w3.org/2000/svg" xmlns:xlink="http://www.w3.org/1999/xlink">
<g id="graph0" class="graph" transform="scale(1 1) rotate(0) translate(4 113)">
<title>bm_msgq_struct_t</title>
<polygon fill="white" stroke="none" points="-4,4 -4,-113 119.5,-113 119.5,4 -4,4"/>
<!-- Node1 -->
<g id="node1" class="node"><title>Node1</title>
<polygon fill="#bfbfbf" stroke="black" points="4.5,-0.5 4.5,-19.5 102.5,-19.5 102.5,-0.5 4.5,-0.5"/>
<text text-anchor="middle" x="53.5" y="-7.5" font-family="Helvetica,sans-Serif" font-size="10.00">bm_msgq_struct_t</text>
</g>
<!-- Node2 -->
<g id="node2" class="node"><title>Node2</title>
<g id="a_node2"><a xlink:href="structbm__msgq__element__t.html" target="_top" xlink:title="bm_msgq_element_t">
<polygon fill="white" stroke="black" points="0,-89.5 0,-108.5 107,-108.5 107,-89.5 0,-89.5"/>
<text text-anchor="middle" x="53.5" y="-96.5" font-family="Helvetica,sans-Serif" font-size="10.00">bm_msgq_element_t</text>
</a>
</g>
</g>
<!-- Node2&#45;&gt;Node1 -->
<g id="edge1" class="edge"><title>Node2&#45;&gt;Node1</title>
<path fill="none" stroke="#9a32cd" stroke-dasharray="5,2" d="M53.5,-79.1946C53.5,-60.7379 53.5,-33.412 53.5,-19.6249"/>
<polygon fill="#9a32cd" stroke="#9a32cd" points="50.0001,-79.34 53.5,-89.34 57.0001,-79.3401 50.0001,-79.34"/>
<text text-anchor="middle" x="84.5" y="-63" font-family="Helvetica,sans-Serif" font-size="10.00"> head</text>
<text text-anchor="middle" x="84.5" y="-52" font-family="Helvetica,sans-Serif" font-size="10.00">tail</text>
<text text-anchor="middle" x="84.5" y="-41" font-family="Helvetica,sans-Serif" font-size="10.00">element_array</text>
</g>
</g>
</svg>
