<?xml version="1.0" encoding="UTF-8" standalone="no"?>
<!DOCTYPE svg PUBLIC "-//W3C//DTD SVG 1.1//EN"
 "http://www.w3.org/Graphics/SVG/1.1/DTD/svg11.dtd">
<!-- Generated by graphviz version 2.38.0 (20140413.2041)
 -->
<!-- Title: flexcan_transfer_info_t Pages: 1 -->
<svg width="264pt" height="184pt"
 viewBox="0.00 0.00 264.00 184.00" xmlns="http://www.w3.org/2000/svg" xmlns:xlink="http://www.w3.org/1999/xlink">
<g id="graph0" class="graph" transform="scale(1 1) rotate(0) translate(4 180)">
<title>flexcan_transfer_info_t</title>
<polygon fill="white" stroke="none" points="-4,4 -4,-180 260,-180 260,4 -4,4"/>
<!-- Node1 -->
<g id="node1" class="node"><title>Node1</title>
<polygon fill="#bfbfbf" stroke="black" points="34.5,-0.5 34.5,-19.5 147.5,-19.5 147.5,-0.5 34.5,-0.5"/>
<text text-anchor="middle" x="91" y="-7.5" font-family="Helvetica,sans-Serif" font-size="10.00">flexcan_transfer_info_t</text>
</g>
<!-- Node2 -->
<g id="node2" class="node"><title>Node2</title>
<g id="a_node2"><a xlink:href="group__flexcan__driver.html#structflexcan__data__info__t" target="_top" xlink:title="FlexCAN data info from user. ">
<polygon fill="white" stroke="black" points="0,-78.5 0,-97.5 100,-97.5 100,-78.5 0,-78.5"/>
<text text-anchor="middle" x="50" y="-85.5" font-family="Helvetica,sans-Serif" font-size="10.00">flexcan_data_info_t</text>
</a>
</g>
</g>
<!-- Node2&#45;&gt;Node1 -->
<g id="edge1" class="edge"><title>Node2&#45;&gt;Node1</title>
<path fill="none" stroke="#9a32cd" stroke-dasharray="5,2" d="M59.6449,-69.1216C68.0563,-53.5297 79.8943,-31.5862 86.3516,-19.6165"/>
<polygon fill="#9a32cd" stroke="#9a32cd" points="56.3708,-67.819 54.7032,-78.2818 62.5315,-71.1426 56.3708,-67.819"/>
<text text-anchor="middle" x="92" y="-52" font-family="Helvetica,sans-Serif" font-size="10.00"> rx_info</text>
<text text-anchor="middle" x="92" y="-41" font-family="Helvetica,sans-Serif" font-size="10.00">tx_info</text>
</g>
<!-- Node3 -->
<g id="node3" class="node"><title>Node3</title>
<g id="a_node3"><a xlink:href="group__flexcan__driver.html#structflexcan__state__t" target="_top" xlink:title="Internal driver state information. ">
<polygon fill="white" stroke="black" points="118.5,-78.5 118.5,-97.5 201.5,-97.5 201.5,-78.5 118.5,-78.5"/>
<text text-anchor="middle" x="160" y="-85.5" font-family="Helvetica,sans-Serif" font-size="10.00">flexcan_state_t</text>
</a>
</g>
</g>
<!-- Node3&#45;&gt;Node1 -->
<g id="edge2" class="edge"><title>Node3&#45;&gt;Node1</title>
<path fill="none" stroke="#9a32cd" stroke-dasharray="5,2" d="M145.36,-70.875C131.144,-55.2161 110.104,-32.0422 98.8229,-19.6165"/>
<polygon fill="#9a32cd" stroke="#9a32cd" points="142.772,-73.2307 152.085,-78.2818 147.954,-68.5253 142.772,-73.2307"/>
<text text-anchor="middle" x="146.5" y="-46.5" font-family="Helvetica,sans-Serif" font-size="10.00"> state</text>
</g>
<!-- Node4 -->
<g id="node4" class="node"><title>Node4</title>
<g id="a_node4"><a xlink:href="group__rtos__irq__sync.html#structsemaphore__t" target="_top" xlink:title="semaphore_t">
<polygon fill="white" stroke="black" points="77.5,-156.5 77.5,-175.5 150.5,-175.5 150.5,-156.5 77.5,-156.5"/>
<text text-anchor="middle" x="114" y="-163.5" font-family="Helvetica,sans-Serif" font-size="10.00">semaphore_t</text>
</a>
</g>
</g>
<!-- Node4&#45;&gt;Node3 -->
<g id="edge3" class="edge"><title>Node4&#45;&gt;Node3</title>
<path fill="none" stroke="#9a32cd" stroke-dasharray="5,2" d="M122.086,-147.178C126.642,-137.682 132.677,-125.942 139,-116 143.079,-109.586 148.329,-102.836 152.559,-97.6894"/>
<polygon fill="#9a32cd" stroke="#9a32cd" points="118.836,-145.868 117.779,-156.41 125.179,-148.827 118.836,-145.868"/>
<text text-anchor="middle" x="161.5" y="-130" font-family="Helvetica,sans-Serif" font-size="10.00"> txIrqSync</text>
<text text-anchor="middle" x="161.5" y="-119" font-family="Helvetica,sans-Serif" font-size="10.00">rxIrqSync</text>
</g>
<!-- Node5 -->
<g id="node5" class="node"><title>Node5</title>
<g id="a_node5"><a xlink:href="group__flexcan__hal.html#structflexcan__mb__t" target="_top" xlink:title="FlexCAN message buffer structure. ">
<polygon fill="white" stroke="black" points="169,-156.5 169,-175.5 243,-175.5 243,-156.5 169,-156.5"/>
<text text-anchor="middle" x="206" y="-163.5" font-family="Helvetica,sans-Serif" font-size="10.00">flexcan_mb_t</text>
</a>
</g>
</g>
<!-- Node5&#45;&gt;Node3 -->
<g id="edge4" class="edge"><title>Node5&#45;&gt;Node3</title>
<path fill="none" stroke="#9a32cd" stroke-dasharray="5,2" d="M199.313,-146.644C195.472,-137.139 190.184,-125.556 184,-116 179.775,-109.471 174.012,-102.932 169.192,-97.9249"/>
<polygon fill="#9a32cd" stroke="#9a32cd" points="196.157,-148.189 203.005,-156.273 202.693,-145.683 196.157,-148.189"/>
<text text-anchor="middle" x="225.5" y="-124.5" font-family="Helvetica,sans-Serif" font-size="10.00"> fifo_message</text>
</g>
</g>
</svg>
