<?xml version="1.0" encoding="UTF-8" standalone="no"?>
<!DOCTYPE svg PUBLIC "-//W3C//DTD SVG 1.1//EN"
 "http://www.w3.org/Graphics/SVG/1.1/DTD/svg11.dtd">
<!-- Generated by graphviz version 2.38.0 (20140413.2041)
 -->
<!-- Title: usb_interfaces_struct_t Pages: 1 -->
<svg width="126pt" height="229pt"
 viewBox="0.00 0.00 126.00 229.00" xmlns="http://www.w3.org/2000/svg" xmlns:xlink="http://www.w3.org/1999/xlink">
<g id="graph0" class="graph" transform="scale(1 1) rotate(0) translate(4 225)">
<title>usb_interfaces_struct_t</title>
<polygon fill="white" stroke="none" points="-4,4 -4,-225 122,-225 122,4 -4,4"/>
<!-- Node1 -->
<g id="node1" class="node"><title>Node1</title>
<polygon fill="#bfbfbf" stroke="black" points="0,-0.5 0,-19.5 118,-19.5 118,-0.5 0,-0.5"/>
<text text-anchor="middle" x="59" y="-7.5" font-family="Helvetica,sans-Serif" font-size="10.00">usb_interfaces_struct_t</text>
</g>
<!-- Node2 -->
<g id="node2" class="node"><title>Node2</title>
<g id="a_node2"><a xlink:href="structusb__if__struct__t.html" target="_top" xlink:title="Obtains the interface data structure. ">
<polygon fill="white" stroke="black" points="19,-67.5 19,-86.5 99,-86.5 99,-67.5 19,-67.5"/>
<text text-anchor="middle" x="59" y="-74.5" font-family="Helvetica,sans-Serif" font-size="10.00">usb_if_struct_t</text>
</a>
</g>
</g>
<!-- Node2&#45;&gt;Node1 -->
<g id="edge1" class="edge"><title>Node2&#45;&gt;Node1</title>
<path fill="none" stroke="#9a32cd" stroke-dasharray="5,2" d="M59,-57.037C59,-44.6703 59,-29.1198 59,-19.6273"/>
<polygon fill="#9a32cd" stroke="#9a32cd" points="55.5001,-57.2338 59,-67.2338 62.5001,-57.2338 55.5001,-57.2338"/>
<text text-anchor="middle" x="79" y="-41" font-family="Helvetica,sans-Serif" font-size="10.00"> interface</text>
</g>
<!-- Node3 -->
<g id="node3" class="node"><title>Node3</title>
<g id="a_node3"><a xlink:href="structusb__endpoints__t.html" target="_top" xlink:title="Obtains the endpoint group. ">
<polygon fill="white" stroke="black" points="15,-134.5 15,-153.5 103,-153.5 103,-134.5 15,-134.5"/>
<text text-anchor="middle" x="59" y="-141.5" font-family="Helvetica,sans-Serif" font-size="10.00">usb_endpoints_t</text>
</a>
</g>
</g>
<!-- Node3&#45;&gt;Node2 -->
<g id="edge2" class="edge"><title>Node3&#45;&gt;Node2</title>
<path fill="none" stroke="#9a32cd" stroke-dasharray="5,2" d="M59,-124.037C59,-111.67 59,-96.1198 59,-86.6273"/>
<polygon fill="#9a32cd" stroke="#9a32cd" points="55.5001,-124.234 59,-134.234 62.5001,-124.234 55.5001,-124.234"/>
<text text-anchor="middle" x="82" y="-108" font-family="Helvetica,sans-Serif" font-size="10.00"> endpoints</text>
</g>
<!-- Node4 -->
<g id="node4" class="node"><title>Node4</title>
<g id="a_node4"><a xlink:href="structusb__ep__struct__t.html" target="_top" xlink:title="Obtains the endpoint data structure. ">
<polygon fill="white" stroke="black" points="16,-201.5 16,-220.5 102,-220.5 102,-201.5 16,-201.5"/>
<text text-anchor="middle" x="59" y="-208.5" font-family="Helvetica,sans-Serif" font-size="10.00">usb_ep_struct_t</text>
</a>
</g>
</g>
<!-- Node4&#45;&gt;Node3 -->
<g id="edge3" class="edge"><title>Node4&#45;&gt;Node3</title>
<path fill="none" stroke="#9a32cd" stroke-dasharray="5,2" d="M59,-191.037C59,-178.67 59,-163.12 59,-153.627"/>
<polygon fill="#9a32cd" stroke="#9a32cd" points="55.5001,-191.234 59,-201.234 62.5001,-191.234 55.5001,-191.234"/>
<text text-anchor="middle" x="66" y="-175" font-family="Helvetica,sans-Serif" font-size="10.00"> ep</text>
</g>
</g>
</svg>
