<?xml version="1.0" encoding="UTF-8" standalone="no"?>
<!DOCTYPE svg PUBLIC "-//W3C//DTD SVG 1.1//EN"
 "http://www.w3.org/Graphics/SVG/1.1/DTD/svg11.dtd">
<!-- Generated by graphviz version 2.38.0 (20140413.2041)
 -->
<!-- Title: usb_if_struct_t Pages: 1 -->
<svg width="98pt" height="162pt"
 viewBox="0.00 0.00 98.00 162.00" xmlns="http://www.w3.org/2000/svg" xmlns:xlink="http://www.w3.org/1999/xlink">
<g id="graph0" class="graph" transform="scale(1 1) rotate(0) translate(4 158)">
<title>usb_if_struct_t</title>
<polygon fill="white" stroke="none" points="-4,4 -4,-158 94,-158 94,4 -4,4"/>
<!-- Node1 -->
<g id="node1" class="node"><title>Node1</title>
<polygon fill="#bfbfbf" stroke="black" points="4,-0.5 4,-19.5 84,-19.5 84,-0.5 4,-0.5"/>
<text text-anchor="middle" x="44" y="-7.5" font-family="Helvetica,sans-Serif" font-size="10.00">usb_if_struct_t</text>
</g>
<!-- Node2 -->
<g id="node2" class="node"><title>Node2</title>
<g id="a_node2"><a xlink:href="structusb__endpoints__t.html" target="_top" xlink:title="Obtains the endpoint group. ">
<polygon fill="white" stroke="black" points="0,-67.5 0,-86.5 88,-86.5 88,-67.5 0,-67.5"/>
<text text-anchor="middle" x="44" y="-74.5" font-family="Helvetica,sans-Serif" font-size="10.00">usb_endpoints_t</text>
</a>
</g>
</g>
<!-- Node2&#45;&gt;Node1 -->
<g id="edge1" class="edge"><title>Node2&#45;&gt;Node1</title>
<path fill="none" stroke="#9a32cd" stroke-dasharray="5,2" d="M44,-57.037C44,-44.6703 44,-29.1198 44,-19.6273"/>
<polygon fill="#9a32cd" stroke="#9a32cd" points="40.5001,-57.2338 44,-67.2338 47.5001,-57.2338 40.5001,-57.2338"/>
<text text-anchor="middle" x="67" y="-41" font-family="Helvetica,sans-Serif" font-size="10.00"> endpoints</text>
</g>
<!-- Node3 -->
<g id="node3" class="node"><title>Node3</title>
<g id="a_node3"><a xlink:href="structusb__ep__struct__t.html" target="_top" xlink:title="Obtains the endpoint data structure. ">
<polygon fill="white" stroke="black" points="1,-134.5 1,-153.5 87,-153.5 87,-134.5 1,-134.5"/>
<text text-anchor="middle" x="44" y="-141.5" font-family="Helvetica,sans-Serif" font-size="10.00">usb_ep_struct_t</text>
</a>
</g>
</g>
<!-- Node3&#45;&gt;Node2 -->
<g id="edge2" class="edge"><title>Node3&#45;&gt;Node2</title>
<path fill="none" stroke="#9a32cd" stroke-dasharray="5,2" d="M44,-124.037C44,-111.67 44,-96.1198 44,-86.6273"/>
<polygon fill="#9a32cd" stroke="#9a32cd" points="40.5001,-124.234 44,-134.234 47.5001,-124.234 40.5001,-124.234"/>
<text text-anchor="middle" x="51" y="-108" font-family="Helvetica,sans-Serif" font-size="10.00"> ep</text>
</g>
</g>
</svg>
