<?xml version="1.0" encoding="UTF-8" standalone="no"?>
<!DOCTYPE svg PUBLIC "-//W3C//DTD SVG 1.1//EN"
 "http://www.w3.org/Graphics/SVG/1.1/DTD/svg11.dtd">
<!-- Generated by graphviz version 2.38.0 (20140413.2041)
 -->
<!-- Title: command_interface_t Pages: 1 -->
<svg width="290pt" height="173pt"
 viewBox="0.00 0.00 289.50 173.00" xmlns="http://www.w3.org/2000/svg" xmlns:xlink="http://www.w3.org/1999/xlink">
<g id="graph0" class="graph" transform="scale(1 1) rotate(0) translate(4 169)">
<title>command_interface_t</title>
<polygon fill="white" stroke="none" points="-4,4 -4,-169 285.5,-169 285.5,4 -4,4"/>
<!-- Node1 -->
<g id="node1" class="node"><title>Node1</title>
<polygon fill="#bfbfbf" stroke="black" points="54.5,-0.5 54.5,-19.5 164.5,-19.5 164.5,-0.5 54.5,-0.5"/>
<text text-anchor="middle" x="109.5" y="-7.5" font-family="Helvetica,sans-Serif" font-size="10.00">command_interface_t</text>
</g>
<!-- Node2 -->
<g id="node2" class="node"><title>Node2</title>
<g id="a_node2"><a xlink:href="group__command.html#structcommand__processor__data__t" target="_top" xlink:title="Command processor data format. ">
<polygon fill="white" stroke="black" points="141.5,-67.5 141.5,-86.5 281.5,-86.5 281.5,-67.5 141.5,-67.5"/>
<text text-anchor="middle" x="211.5" y="-74.5" font-family="Helvetica,sans-Serif" font-size="10.00">command_processor_data_t</text>
</a>
</g>
</g>
<!-- Node2&#45;&gt;Node1 -->
<g id="edge1" class="edge"><title>Node2&#45;&gt;Node1</title>
<path fill="none" stroke="#9a32cd" stroke-dasharray="5,2" d="M189.168,-61.7687C168.978,-48.9026 139.91,-30.379 123.038,-19.6273"/>
<polygon fill="#9a32cd" stroke="#9a32cd" points="187.43,-64.8113 197.744,-67.2338 191.192,-58.908 187.43,-64.8113"/>
<text text-anchor="middle" x="189.5" y="-41" font-family="Helvetica,sans-Serif" font-size="10.00"> stateData</text>
</g>
<!-- Node3 -->
<g id="node3" class="node"><title>Node3</title>
<g id="a_node3"><a xlink:href="group__command.html#structcommand__handler__entry__t" target="_top" xlink:title="Format of command handler entry. ">
<polygon fill="white" stroke="black" points="0,-140 0,-159 131,-159 131,-140 0,-140"/>
<text text-anchor="middle" x="65.5" y="-147" font-family="Helvetica,sans-Serif" font-size="10.00">command_handler_entry_t</text>
</a>
</g>
</g>
<!-- Node3&#45;&gt;Node1 -->
<g id="edge4" class="edge"><title>Node3&#45;&gt;Node1</title>
<path fill="none" stroke="#9a32cd" stroke-dasharray="5,2" d="M65.2295,-129.446C65.5409,-112.585 67.3656,-87.5407 74.5,-67 80.8195,-48.8052 93.9179,-30.3739 102.176,-19.8523"/>
<polygon fill="#9a32cd" stroke="#9a32cd" points="61.7292,-129.648 65.2091,-139.655 68.7292,-129.662 61.7292,-129.648"/>
<text text-anchor="middle" x="103.5" y="-74.5" font-family="Helvetica,sans-Serif" font-size="10.00"> handlerTable</text>
</g>
<!-- Node3&#45;&gt;Node2 -->
<g id="edge2" class="edge"><title>Node3&#45;&gt;Node2</title>
<path fill="none" stroke="#9a32cd" stroke-dasharray="5,2" d="M90.821,-135.069C107.625,-126.273 130.236,-114.661 150.5,-105 163.986,-98.5709 179.37,-91.7653 191.314,-86.595"/>
<polygon fill="#9a32cd" stroke="#9a32cd" points="88.8815,-132.135 81.6596,-139.887 92.1395,-138.33 88.8815,-132.135"/>
<text text-anchor="middle" x="179.5" y="-108" font-family="Helvetica,sans-Serif" font-size="10.00"> handlerEntry</text>
</g>
<!-- Node4 -->
<g id="node4" class="node"><title>Node4</title>
<g id="a_node4"><a xlink:href="group__command.html#structcommand__processor__data__t_1_1_data_phase" target="_top" xlink:title="command_processor_data\l_t::DataPhase">
<polygon fill="white" stroke="black" points="149,-134.5 149,-164.5 280,-164.5 280,-134.5 149,-134.5"/>
<text text-anchor="start" x="157" y="-152.5" font-family="Helvetica,sans-Serif" font-size="10.00">command_processor_data</text>
<text text-anchor="middle" x="214.5" y="-141.5" font-family="Helvetica,sans-Serif" font-size="10.00">_t::DataPhase</text>
</a>
</g>
</g>
<!-- Node4&#45;&gt;Node2 -->
<g id="edge3" class="edge"><title>Node4&#45;&gt;Node2</title>
<path fill="none" stroke="#9a32cd" stroke-dasharray="5,2" d="M213.461,-124.091C212.913,-111.214 212.274,-96.1974 211.878,-86.8932"/>
<polygon fill="#9a32cd" stroke="#9a32cd" points="209.971,-124.391 213.893,-134.233 216.964,-124.093 209.971,-124.391"/>
<text text-anchor="middle" x="237.5" y="-108" font-family="Helvetica,sans-Serif" font-size="10.00"> dataPhase</text>
</g>
</g>
</svg>
