<?xml version="1.0" encoding="UTF-8" standalone="no"?>
<!DOCTYPE svg PUBLIC "-//W3C//DTD SVG 1.1//EN"
 "http://www.w3.org/Graphics/SVG/1.1/DTD/svg11.dtd">
<!-- Generated by graphviz version 2.38.0 (20140413.2041)
 -->
<!-- Title: bootloader_context_t Pages: 1 -->
<svg width="937pt" height="354pt"
 viewBox="0.00 0.00 937.00 353.50" xmlns="http://www.w3.org/2000/svg" xmlns:xlink="http://www.w3.org/1999/xlink">
<g id="graph0" class="graph" transform="scale(1 1) rotate(0) translate(4 349.5)">
<title>bootloader_context_t</title>
<polygon fill="white" stroke="none" points="-4,4 -4,-349.5 933,-349.5 933,4 -4,4"/>
<!-- Node1 -->
<g id="node1" class="node"><title>Node1</title>
<polygon fill="#bfbfbf" stroke="black" points="822,-141 822,-160 929,-160 929,-141 822,-141"/>
<text text-anchor="middle" x="875.5" y="-148" font-family="Helvetica,sans-Serif" font-size="10.00">bootloader_context_t</text>
</g>
<!-- Node2 -->
<g id="node2" class="node"><title>Node2</title>
<g id="a_node2"><a xlink:href="group__memif.html#structmemory__map__entry__t" target="_top" xlink:title="Structure of a memory map entry. ">
<polygon fill="white" stroke="black" points="592,-238 592,-257 703,-257 703,-238 592,-238"/>
<text text-anchor="middle" x="647.5" y="-245" font-family="Helvetica,sans-Serif" font-size="10.00">memory_map_entry_t</text>
</a>
</g>
</g>
<!-- Node2&#45;&gt;Node1 -->
<g id="edge1" class="edge"><title>Node2&#45;&gt;Node1</title>
<path fill="none" stroke="#9a32cd" stroke-dasharray="5,2" d="M713.065,-241.542C742.064,-236.955 775.982,-228.842 804,-214.5 830.781,-200.791 855.116,-174.227 866.947,-160.015"/>
<polygon fill="#9a32cd" stroke="#9a32cd" points="712.412,-238.101 703.03,-243.022 713.434,-245.026 712.412,-238.101"/>
<text text-anchor="middle" x="762.5" y="-243.5" font-family="Helvetica,sans-Serif" font-size="10.00"> memoryMap</text>
</g>
<!-- Node3 -->
<g id="node3" class="node"><title>Node3</title>
<g id="a_node3"><a xlink:href="group__memif.html#structmemory__region__interface__t" target="_top" xlink:title="Interface to memory operations for one region of memory. ">
<polygon fill="white" stroke="black" points="304,-238 304,-257 438,-257 438,-238 304,-238"/>
<text text-anchor="middle" x="371" y="-245" font-family="Helvetica,sans-Serif" font-size="10.00">memory_region_interface_t</text>
</a>
</g>
</g>
<!-- Node3&#45;&gt;Node2 -->
<g id="edge2" class="edge"><title>Node3&#45;&gt;Node2</title>
<path fill="none" stroke="#9a32cd" stroke-dasharray="5,2" d="M448.22,-247.5C493.73,-247.5 550.482,-247.5 591.595,-247.5"/>
<polygon fill="#9a32cd" stroke="#9a32cd" points="448.099,-244 438.099,-247.5 448.099,-251 448.099,-244"/>
<text text-anchor="middle" x="516.5" y="-250.5" font-family="Helvetica,sans-Serif" font-size="10.00"> memoryInterface</text>
</g>
<!-- Node4 -->
<g id="node4" class="node"><title>Node4</title>
<g id="a_node4"><a xlink:href="group__context.html#structaes__driver__interface__t" target="_top" xlink:title="Interface for AES 128 functions. ">
<polygon fill="white" stroke="black" points="592.5,-200 592.5,-219 702.5,-219 702.5,-200 592.5,-200"/>
<text text-anchor="middle" x="647.5" y="-207" font-family="Helvetica,sans-Serif" font-size="10.00">aes_driver_interface_t</text>
</a>
</g>
</g>
<!-- Node4&#45;&gt;Node1 -->
<g id="edge3" class="edge"><title>Node4&#45;&gt;Node1</title>
<path fill="none" stroke="#9a32cd" stroke-dasharray="5,2" d="M712.976,-200.709C741.248,-196.029 774.616,-189.376 804,-180.5 821.827,-175.115 841.24,-166.648 855.173,-160.08"/>
<polygon fill="#9a32cd" stroke="#9a32cd" points="712.125,-197.301 702.807,-202.344 713.236,-204.212 712.125,-197.301"/>
<text text-anchor="middle" x="762.5" y="-202.5" font-family="Helvetica,sans-Serif" font-size="10.00"> aesInterface</text>
</g>
<!-- Node5 -->
<g id="node5" class="node"><title>Node5</title>
<g id="a_node5"><a xlink:href="group__property.html#structproperty__interface__t" target="_top" xlink:title="Interface to property operations. ">
<polygon fill="white" stroke="black" points="596.5,-162 596.5,-181 698.5,-181 698.5,-162 596.5,-162"/>
<text text-anchor="middle" x="647.5" y="-169" font-family="Helvetica,sans-Serif" font-size="10.00">property_interface_t</text>
</a>
</g>
</g>
<!-- Node5&#45;&gt;Node1 -->
<g id="edge4" class="edge"><title>Node5&#45;&gt;Node1</title>
<path fill="none" stroke="#9a32cd" stroke-dasharray="5,2" d="M708.799,-165.897C743.976,-162.628 787.932,-158.544 821.731,-155.403"/>
<polygon fill="#9a32cd" stroke="#9a32cd" points="708.29,-162.429 698.657,-166.839 708.938,-169.399 708.29,-162.429"/>
<text text-anchor="middle" x="762.5" y="-168.5" font-family="Helvetica,sans-Serif" font-size="10.00"> propertyInterface</text>
</g>
<!-- Node6 -->
<g id="node6" class="node"><title>Node6</title>
<g id="a_node6"><a xlink:href="group__property.html#structproperty__store__t" target="_top" xlink:title="Structure of property store. ">
<polygon fill="white" stroke="black" points="327.5,-199 327.5,-218 414.5,-218 414.5,-199 327.5,-199"/>
<text text-anchor="middle" x="371" y="-206" font-family="Helvetica,sans-Serif" font-size="10.00">property_store_t</text>
</a>
</g>
</g>
<!-- Node6&#45;&gt;Node5 -->
<g id="edge5" class="edge"><title>Node6&#45;&gt;Node5</title>
<path fill="none" stroke="#9a32cd" stroke-dasharray="5,2" d="M424.769,-201.387C474.26,-194.716 547.735,-184.813 596.356,-178.259"/>
<polygon fill="#9a32cd" stroke="#9a32cd" points="424.032,-197.955 414.589,-202.759 424.967,-204.892 424.032,-197.955"/>
<text text-anchor="middle" x="516.5" y="-200.5" font-family="Helvetica,sans-Serif" font-size="10.00"> store</text>
</g>
<!-- Node7 -->
<g id="node7" class="node"><title>Node7</title>
<g id="a_node7"><a xlink:href="group__property.html#structbootloader__configuration__data__t" target="_top" xlink:title="Format of bootloader configuration data on Flash. ">
<polygon fill="white" stroke="black" points="5,-177.5 5,-207.5 127,-207.5 127,-177.5 5,-177.5"/>
<text text-anchor="start" x="13" y="-195.5" font-family="Helvetica,sans-Serif" font-size="10.00">bootloader_configuration</text>
<text text-anchor="middle" x="66" y="-184.5" font-family="Helvetica,sans-Serif" font-size="10.00">_data_t</text>
</a>
</g>
</g>
<!-- Node7&#45;&gt;Node6 -->
<g id="edge6" class="edge"><title>Node7&#45;&gt;Node6</title>
<path fill="none" stroke="#9a32cd" stroke-dasharray="5,2" d="M137.557,-196.226C196.368,-199.331 278.217,-203.653 327.458,-206.254"/>
<polygon fill="#9a32cd" stroke="#9a32cd" points="137.396,-192.712 127.225,-195.68 137.027,-199.703 137.396,-192.712"/>
<text text-anchor="middle" x="216.5" y="-207.5" font-family="Helvetica,sans-Serif" font-size="10.00"> configurationData</text>
</g>
<!-- Node8 -->
<g id="node8" class="node"><title>Node8</title>
<g id="a_node8"><a xlink:href="group__property.html#structreserved__region__t" target="_top" xlink:title="Structure of a reserved regions entry. ">
<polygon fill="white" stroke="black" points="20,-314 20,-333 112,-333 112,-314 20,-314"/>
<text text-anchor="middle" x="66" y="-321" font-family="Helvetica,sans-Serif" font-size="10.00">reserved_region_t</text>
</a>
</g>
</g>
<!-- Node8&#45;&gt;Node6 -->
<g id="edge7" class="edge"><title>Node8&#45;&gt;Node6</title>
<path fill="none" stroke="#9a32cd" stroke-dasharray="5,2" d="M122.078,-332.995C170.3,-337.988 239.306,-336.605 283,-298.5 307.21,-277.387 278.634,-251.558 301,-228.5 308.034,-221.249 317.525,-216.584 327.213,-213.594"/>
<polygon fill="#9a32cd" stroke="#9a32cd" points="122.456,-329.516 112.12,-331.844 121.652,-336.469 122.456,-329.516"/>
<text text-anchor="middle" x="216.5" y="-337.5" font-family="Helvetica,sans-Serif" font-size="10.00"> reservedRegions</text>
</g>
<!-- Node9 -->
<g id="node9" class="node"><title>Node9</title>
<g id="a_node9"><a xlink:href="group__property.html#structunique__device__id__t" target="_top" xlink:title="Structure of a unique device id. ">
<polygon fill="white" stroke="black" points="17,-276 17,-295 115,-295 115,-276 17,-276"/>
<text text-anchor="middle" x="66" y="-283" font-family="Helvetica,sans-Serif" font-size="10.00">unique_device_id_t</text>
</a>
</g>
</g>
<!-- Node9&#45;&gt;Node6 -->
<g id="edge8" class="edge"><title>Node9&#45;&gt;Node6</title>
<path fill="none" stroke="#9a32cd" stroke-dasharray="5,2" d="M125.027,-285.749C170.57,-283.628 234.213,-275.395 283,-248.5 293.473,-242.727 290.868,-234.853 301,-228.5 308.925,-223.531 318.129,-219.757 327.182,-216.904"/>
<polygon fill="#9a32cd" stroke="#9a32cd" points="124.878,-282.252 115.018,-286.131 125.144,-289.247 124.878,-282.252"/>
<text text-anchor="middle" x="216.5" y="-286.5" font-family="Helvetica,sans-Serif" font-size="10.00"> UniqueDeviceId</text>
</g>
<!-- Node10 -->
<g id="node10" class="node"><title>Node10</title>
<g id="a_node10"><a xlink:href="group__bl__core.html#unionstandard__version__t" target="_top" xlink:title="Structure of version property. ">
<polygon fill="white" stroke="black" points="17,-123 17,-142 115,-142 115,-123 17,-123"/>
<text text-anchor="middle" x="66" y="-130" font-family="Helvetica,sans-Serif" font-size="10.00">standard_version_t</text>
</a>
</g>
</g>
<!-- Node10&#45;&gt;Node6 -->
<g id="edge9" class="edge"><title>Node10&#45;&gt;Node6</title>
<path fill="none" stroke="#9a32cd" stroke-dasharray="5,2" d="M125.327,-134.167C169.551,-136.828 231.326,-143.574 283,-160.5 310.869,-169.629 340.09,-187.8 356.577,-198.979"/>
<polygon fill="#9a32cd" stroke="#9a32cd" points="125.503,-130.671 115.325,-133.616 125.118,-137.661 125.503,-130.671"/>
<text text-anchor="middle" x="216.5" y="-185.5" font-family="Helvetica,sans-Serif" font-size="10.00"> targetVersion</text>
<text text-anchor="middle" x="216.5" y="-174.5" font-family="Helvetica,sans-Serif" font-size="10.00">serialProtocolVersion</text>
<text text-anchor="middle" x="216.5" y="-163.5" font-family="Helvetica,sans-Serif" font-size="10.00">bootloaderVersion</text>
</g>
<!-- Node13 -->
<g id="node13" class="node"><title>Node13</title>
<g id="a_node13"><a xlink:href="group__context.html#structflash__driver__interface__t" target="_top" xlink:title="Interface for the flash driver. ">
<polygon fill="white" stroke="black" points="459,-115 459,-134 574,-134 574,-115 459,-115"/>
<text text-anchor="middle" x="516.5" y="-122" font-family="Helvetica,sans-Serif" font-size="10.00">flash_driver_interface_t</text>
</a>
</g>
</g>
<!-- Node10&#45;&gt;Node13 -->
<g id="edge13" class="edge"><title>Node10&#45;&gt;Node13</title>
<path fill="none" stroke="#9a32cd" stroke-dasharray="5,2" d="M125.196,-123.802C133.504,-122.848 141.957,-122.031 150,-121.5 259.068,-114.304 386.835,-118.15 458.76,-121.436"/>
<polygon fill="#9a32cd" stroke="#9a32cd" points="124.674,-120.339 115.171,-125.024 125.521,-127.288 124.674,-120.339"/>
<text text-anchor="middle" x="216.5" y="-124.5" font-family="Helvetica,sans-Serif" font-size="10.00"> version</text>
</g>
<!-- Node11 -->
<g id="node11" class="node"><title>Node11</title>
<g id="a_node11"><a xlink:href="group__property.html#structexternal__memory__property__store__t" target="_top" xlink:title="Exernal Memory attribute store. ">
<polygon fill="white" stroke="black" points="0,-226.5 0,-256.5 132,-256.5 132,-226.5 0,-226.5"/>
<text text-anchor="start" x="8" y="-244.5" font-family="Helvetica,sans-Serif" font-size="10.00">external_memory_property</text>
<text text-anchor="middle" x="66" y="-233.5" font-family="Helvetica,sans-Serif" font-size="10.00">_store_t</text>
</a>
</g>
</g>
<!-- Node11&#45;&gt;Node6 -->
<g id="edge10" class="edge"><title>Node11&#45;&gt;Node6</title>
<path fill="none" stroke="#9a32cd" stroke-dasharray="5,2" d="M142.304,-234.283C183.829,-230.189 236.292,-224.831 283,-219.5 297.37,-217.86 313.055,-215.922 327.101,-214.134"/>
<polygon fill="#9a32cd" stroke="#9a32cd" points="141.874,-230.808 132.264,-235.269 142.559,-237.774 141.874,-230.808"/>
<text text-anchor="middle" x="216.5" y="-236.5" font-family="Helvetica,sans-Serif" font-size="10.00"> externalMemoryPropertyStore</text>
</g>
<!-- Node12 -->
<g id="node12" class="node"><title>Node12</title>
<g id="a_node12"><a xlink:href="group__memif.html#structmemory__interface__t" target="_top" xlink:title="Interface to memory operations. ">
<polygon fill="white" stroke="black" points="596.5,-77 596.5,-96 698.5,-96 698.5,-77 596.5,-77"/>
<text text-anchor="middle" x="647.5" y="-84" font-family="Helvetica,sans-Serif" font-size="10.00">memory_interface_t</text>
</a>
</g>
</g>
<!-- Node12&#45;&gt;Node1 -->
<g id="edge11" class="edge"><title>Node12&#45;&gt;Node1</title>
<path fill="none" stroke="#9a32cd" stroke-dasharray="5,2" d="M708.875,-88.8521C738.254,-91.4424 773.685,-96.7438 804,-107.5 826.158,-115.362 848.86,-130.798 862.314,-140.877"/>
<polygon fill="#9a32cd" stroke="#9a32cd" points="709,-85.3511 698.754,-88.0445 708.444,-92.3289 709,-85.3511"/>
<text text-anchor="middle" x="762.5" y="-110.5" font-family="Helvetica,sans-Serif" font-size="10.00"> memoryInterface</text>
</g>
<!-- Node13&#45;&gt;Node1 -->
<g id="edge12" class="edge"><title>Node13&#45;&gt;Node1</title>
<path fill="none" stroke="#9a32cd" stroke-dasharray="5,2" d="M584.361,-129.369C653.166,-134.38 758.944,-142.084 821.976,-146.675"/>
<polygon fill="#9a32cd" stroke="#9a32cd" points="584.296,-125.855 574.068,-128.62 583.787,-132.837 584.296,-125.855"/>
<text text-anchor="middle" x="647.5" y="-140.5" font-family="Helvetica,sans-Serif" font-size="10.00"> flashDriverInterface</text>
</g>
<!-- Node14 -->
<g id="node14" class="node"><title>Node14</title>
<g id="a_node14"><a xlink:href="group__command.html#structcommand__interface__t" target="_top" xlink:title="Interface to command processor operations. ">
<polygon fill="white" stroke="black" points="592.5,-39 592.5,-58 702.5,-58 702.5,-39 592.5,-39"/>
<text text-anchor="middle" x="647.5" y="-46" font-family="Helvetica,sans-Serif" font-size="10.00">command_interface_t</text>
</a>
</g>
</g>
<!-- Node14&#45;&gt;Node1 -->
<g id="edge14" class="edge"><title>Node14&#45;&gt;Node1</title>
<path fill="none" stroke="#9a32cd" stroke-dasharray="5,2" d="M712.847,-50.4536C742.093,-53.5961 776.271,-60.5628 804,-75.5 833.578,-91.4332 857.734,-124.413 868.481,-140.809"/>
<polygon fill="#9a32cd" stroke="#9a32cd" points="713.013,-46.9537 702.727,-49.4948 712.352,-53.9225 713.013,-46.9537"/>
<text text-anchor="middle" x="762.5" y="-78.5" font-family="Helvetica,sans-Serif" font-size="10.00"> commandInterface</text>
</g>
<!-- Node15 -->
<g id="node15" class="node"><title>Node15</title>
<g id="a_node15"><a xlink:href="group__command.html#structcommand__processor__data__t" target="_top" xlink:title="Command processor data format. ">
<polygon fill="white" stroke="black" points="301,-20 301,-39 441,-39 441,-20 301,-20"/>
<text text-anchor="middle" x="371" y="-27" font-family="Helvetica,sans-Serif" font-size="10.00">command_processor_data_t</text>
</a>
</g>
</g>
<!-- Node15&#45;&gt;Node14 -->
<g id="edge15" class="edge"><title>Node15&#45;&gt;Node14</title>
<path fill="none" stroke="#9a32cd" stroke-dasharray="5,2" d="M451.35,-34.9923C496.611,-38.1252 552.159,-41.97 592.401,-44.7554"/>
<polygon fill="#9a32cd" stroke="#9a32cd" points="451.486,-31.4935 441.268,-34.2945 451.002,-38.4768 451.486,-31.4935"/>
<text text-anchor="middle" x="516.5" y="-46.5" font-family="Helvetica,sans-Serif" font-size="10.00"> stateData</text>
</g>
<!-- Node16 -->
<g id="node16" class="node"><title>Node16</title>
<g id="a_node16"><a xlink:href="group__command.html#structcommand__handler__entry__t" target="_top" xlink:title="Format of command handler entry. ">
<polygon fill="white" stroke="black" points="0.5,-58 0.5,-77 131.5,-77 131.5,-58 0.5,-58"/>
<text text-anchor="middle" x="66" y="-65" font-family="Helvetica,sans-Serif" font-size="10.00">command_handler_entry_t</text>
</a>
</g>
</g>
<!-- Node16&#45;&gt;Node14 -->
<g id="edge18" class="edge"><title>Node16&#45;&gt;Node14</title>
<path fill="none" stroke="#9a32cd" stroke-dasharray="5,2" d="M141.747,-68.9548C240.762,-70.2455 420.776,-70.3845 574,-58.5 579.954,-58.0382 586.165,-57.4089 592.339,-56.6892"/>
<polygon fill="#9a32cd" stroke="#9a32cd" points="141.591,-65.4524 131.544,-68.8139 141.494,-72.4517 141.591,-65.4524"/>
<text text-anchor="middle" x="371" y="-72.5" font-family="Helvetica,sans-Serif" font-size="10.00"> handlerTable</text>
</g>
<!-- Node16&#45;&gt;Node15 -->
<g id="edge16" class="edge"><title>Node16&#45;&gt;Node15</title>
<path fill="none" stroke="#9a32cd" stroke-dasharray="5,2" d="M119.094,-55.9445C129.306,-53.9302 139.963,-52.0026 150,-50.5 200.277,-42.9735 257.445,-37.6125 300.902,-34.1916"/>
<polygon fill="#9a32cd" stroke="#9a32cd" points="118.175,-52.5595 109.069,-57.9752 119.565,-59.4202 118.175,-52.5595"/>
<text text-anchor="middle" x="216.5" y="-53.5" font-family="Helvetica,sans-Serif" font-size="10.00"> handlerEntry</text>
</g>
<!-- Node17 -->
<g id="node17" class="node"><title>Node17</title>
<g id="a_node17"><a xlink:href="group__command.html#structcommand__processor__data__t_1_1_data_phase" target="_top" xlink:title="command_processor_data\l_t::DataPhase">
<polygon fill="white" stroke="black" points="0.5,-0.5 0.5,-30.5 131.5,-30.5 131.5,-0.5 0.5,-0.5"/>
<text text-anchor="start" x="8.5" y="-18.5" font-family="Helvetica,sans-Serif" font-size="10.00">command_processor_data</text>
<text text-anchor="middle" x="66" y="-7.5" font-family="Helvetica,sans-Serif" font-size="10.00">_t::DataPhase</text>
</a>
</g>
</g>
<!-- Node17&#45;&gt;Node15 -->
<g id="edge17" class="edge"><title>Node17&#45;&gt;Node15</title>
<path fill="none" stroke="#9a32cd" stroke-dasharray="5,2" d="M141.902,-13.2067C183.517,-12.5952 236.195,-12.9134 283,-16.5 293.202,-17.2818 304.023,-18.5448 314.441,-19.9836"/>
<polygon fill="#9a32cd" stroke="#9a32cd" points="141.783,-9.70809 131.843,-13.3756 141.9,-16.7071 141.783,-9.70809"/>
<text text-anchor="middle" x="216.5" y="-19.5" font-family="Helvetica,sans-Serif" font-size="10.00"> dataPhase</text>
</g>
</g>
</svg>
