<?xml version="1.0" encoding="UTF-8" standalone="no"?>
<!DOCTYPE svg PUBLIC "-//W3C//DTD SVG 1.1//EN"
 "http://www.w3.org/Graphics/SVG/1.1/DTD/svg11.dtd">
<!-- Generated by graphviz version 2.38.0 (20140413.2041)
 -->
<!-- Title: usb_class_fw_object_struct_t Pages: 1 -->
<svg width="263pt" height="117pt"
 viewBox="0.00 0.00 263.00 117.00" xmlns="http://www.w3.org/2000/svg" xmlns:xlink="http://www.w3.org/1999/xlink">
<g id="graph0" class="graph" transform="scale(1 1) rotate(0) translate(4 113)">
<title>usb_class_fw_object_struct_t</title>
<polygon fill="white" stroke="none" points="-4,4 -4,-113 259,-113 259,4 -4,4"/>
<!-- Node1 -->
<g id="node1" class="node"><title>Node1</title>
<polygon fill="#bfbfbf" stroke="black" points="61.5,-0.5 61.5,-30.5 168.5,-30.5 168.5,-0.5 61.5,-0.5"/>
<text text-anchor="start" x="69.5" y="-18.5" font-family="Helvetica,sans-Serif" font-size="10.00">usb_class_fw_object</text>
<text text-anchor="middle" x="115" y="-7.5" font-family="Helvetica,sans-Serif" font-size="10.00">_struct_t</text>
</g>
<!-- Node2 -->
<g id="node2" class="node"><title>Node2</title>
<g id="a_node2"><a xlink:href="structusb__setup__struct__t.html" target="_top" xlink:title="Obtains the setup packet information data structure. ">
<polygon fill="white" stroke="black" points="0,-84 0,-103 100,-103 100,-84 0,-84"/>
<text text-anchor="middle" x="50" y="-91" font-family="Helvetica,sans-Serif" font-size="10.00">usb_setup_struct_t</text>
</a>
</g>
</g>
<!-- Node2&#45;&gt;Node1 -->
<g id="edge1" class="edge"><title>Node2&#45;&gt;Node1</title>
<path fill="none" stroke="#9a32cd" stroke-dasharray="5,2" d="M63.9916,-76.1406C75.6156,-62.5495 91.9779,-43.4181 103.009,-30.5198"/>
<polygon fill="#9a32cd" stroke="#9a32cd" points="61.2962,-73.9073 57.4563,-83.7818 66.6159,-78.4571 61.2962,-73.9073"/>
<text text-anchor="middle" x="118" y="-52" font-family="Helvetica,sans-Serif" font-size="10.00"> setup_packet</text>
</g>
<!-- Node3 -->
<g id="node3" class="node"><title>Node3</title>
<g id="a_node3"><a xlink:href="structusb__desc__request__notify__struct__t.html" target="_top" xlink:title="Obtains the data structure of the descriptor related callback function. The application needs to impl...">
<polygon fill="white" stroke="black" points="118.5,-78.5 118.5,-108.5 243.5,-108.5 243.5,-78.5 118.5,-78.5"/>
<text text-anchor="start" x="126.5" y="-96.5" font-family="Helvetica,sans-Serif" font-size="10.00">usb_desc_request_notify</text>
<text text-anchor="middle" x="181" y="-85.5" font-family="Helvetica,sans-Serif" font-size="10.00">_struct_t</text>
</a>
</g>
</g>
<!-- Node3&#45;&gt;Node1 -->
<g id="edge2" class="edge"><title>Node3&#45;&gt;Node1</title>
<path fill="none" stroke="#9a32cd" stroke-dasharray="5,2" d="M167.957,-69.5087C163.592,-62.6141 158.441,-55.2336 153,-49 147.292,-42.4598 140.245,-36.07 133.776,-30.7111"/>
<polygon fill="#9a32cd" stroke="#9a32cd" points="165.201,-71.7155 173.376,-78.4559 171.189,-68.0892 165.201,-71.7155"/>
<text text-anchor="middle" x="208" y="-52" font-family="Helvetica,sans-Serif" font-size="10.00"> desc_notify_callback</text>
</g>
</g>
</svg>
