<?xml version="1.0" encoding="UTF-8" standalone="no"?>
<!DOCTYPE svg PUBLIC "-//W3C//DTD SVG 1.1//EN"
 "http://www.w3.org/Graphics/SVG/1.1/DTD/svg11.dtd">
<!-- Generated by graphviz version 2.38.0 (20140413.2041)
 -->
<!-- Title: flexcan_state_t Pages: 1 -->
<svg width="188pt" height="106pt"
 viewBox="0.00 0.00 187.50 106.00" xmlns="http://www.w3.org/2000/svg" xmlns:xlink="http://www.w3.org/1999/xlink">
<g id="graph0" class="graph" transform="scale(1 1) rotate(0) translate(4 102)">
<title>flexcan_state_t</title>
<polygon fill="white" stroke="none" points="-4,4 -4,-102 183.5,-102 183.5,4 -4,4"/>
<!-- Node1 -->
<g id="node1" class="node"><title>Node1</title>
<polygon fill="#bfbfbf" stroke="black" points="41,-0.5 41,-19.5 124,-19.5 124,-0.5 41,-0.5"/>
<text text-anchor="middle" x="82.5" y="-7.5" font-family="Helvetica,sans-Serif" font-size="10.00">flexcan_state_t</text>
</g>
<!-- Node2 -->
<g id="node2" class="node"><title>Node2</title>
<g id="a_node2"><a xlink:href="group__rtos__irq__sync.html#structsemaphore__t" target="_top" xlink:title="semaphore_t">
<polygon fill="white" stroke="black" points="0,-78.5 0,-97.5 73,-97.5 73,-78.5 0,-78.5"/>
<text text-anchor="middle" x="36.5" y="-85.5" font-family="Helvetica,sans-Serif" font-size="10.00">semaphore_t</text>
</a>
</g>
</g>
<!-- Node2&#45;&gt;Node1 -->
<g id="edge1" class="edge"><title>Node2&#45;&gt;Node1</title>
<path fill="none" stroke="#9a32cd" stroke-dasharray="5,2" d="M44.5864,-69.1782C49.1425,-59.6825 55.1774,-47.9425 61.5,-38 65.5788,-31.5859 70.8288,-24.8359 75.0591,-19.6894"/>
<polygon fill="#9a32cd" stroke="#9a32cd" points="41.3356,-67.8678 40.2794,-78.4099 47.6792,-70.8274 41.3356,-67.8678"/>
<text text-anchor="middle" x="84" y="-52" font-family="Helvetica,sans-Serif" font-size="10.00"> txIrqSync</text>
<text text-anchor="middle" x="84" y="-41" font-family="Helvetica,sans-Serif" font-size="10.00">rxIrqSync</text>
</g>
<!-- Node3 -->
<g id="node3" class="node"><title>Node3</title>
<g id="a_node3"><a xlink:href="group__flexcan__hal.html#structflexcan__mb__t" target="_top" xlink:title="FlexCAN message buffer structure. ">
<polygon fill="white" stroke="black" points="91.5,-78.5 91.5,-97.5 165.5,-97.5 165.5,-78.5 91.5,-78.5"/>
<text text-anchor="middle" x="128.5" y="-85.5" font-family="Helvetica,sans-Serif" font-size="10.00">flexcan_mb_t</text>
</a>
</g>
</g>
<!-- Node3&#45;&gt;Node1 -->
<g id="edge2" class="edge"><title>Node3&#45;&gt;Node1</title>
<path fill="none" stroke="#9a32cd" stroke-dasharray="5,2" d="M121.813,-68.644C117.972,-59.1393 112.684,-47.5562 106.5,-38 102.275,-31.4709 96.5122,-24.9321 91.6925,-19.9249"/>
<polygon fill="#9a32cd" stroke="#9a32cd" points="118.657,-70.1891 125.505,-78.273 125.193,-67.6828 118.657,-70.1891"/>
<text text-anchor="middle" x="149" y="-46.5" font-family="Helvetica,sans-Serif" font-size="10.00"> fifo_message</text>
</g>
</g>
</svg>
