<?xml version="1.0" encoding="UTF-8" standalone="no"?>
<!DOCTYPE svg PUBLIC "-//W3C//DTD SVG 1.1//EN"
 "http://www.w3.org/Graphics/SVG/1.1/DTD/svg11.dtd">
<!-- Generated by graphviz version 2.38.0 (20140413.2041)
 -->
<!-- Title: hid_device_struct_t Pages: 1 -->
<svg width="712pt" height="264pt"
 viewBox="0.00 0.00 712.00 264.00" xmlns="http://www.w3.org/2000/svg" xmlns:xlink="http://www.w3.org/1999/xlink">
<g id="graph0" class="graph" transform="scale(1 1) rotate(0) translate(4 260)">
<title>hid_device_struct_t</title>
<polygon fill="white" stroke="none" points="-4,4 -4,-260 708,-260 708,4 -4,4"/>
<!-- Node1 -->
<g id="node1" class="node"><title>Node1</title>
<polygon fill="#bfbfbf" stroke="black" points="604,-123 604,-142 704,-142 704,-123 604,-123"/>
<text text-anchor="middle" x="654" y="-130" font-family="Helvetica,sans-Serif" font-size="10.00">hid_device_struct_t</text>
</g>
<!-- Node2 -->
<g id="node2" class="node"><title>Node2</title>
<g id="a_node2"><a xlink:href="structusb__vendor__req__callback__struct__t.html" target="_top" xlink:title="Obtains the callback for vendor reqeust. ">
<polygon fill="white" stroke="black" points="329.5,-225.5 329.5,-255.5 454.5,-255.5 454.5,-225.5 329.5,-225.5"/>
<text text-anchor="start" x="337.5" y="-243.5" font-family="Helvetica,sans-Serif" font-size="10.00">usb_vendor_req_callback</text>
<text text-anchor="middle" x="392" y="-232.5" font-family="Helvetica,sans-Serif" font-size="10.00">_struct_t</text>
</a>
</g>
</g>
<!-- Node2&#45;&gt;Node1 -->
<g id="edge1" class="edge"><title>Node2&#45;&gt;Node1</title>
<path fill="none" stroke="#9a32cd" stroke-dasharray="5,2" d="M464.789,-235.682C502.687,-230.722 548.894,-220.703 586,-200.5 612.782,-185.918 635.677,-157.169 646.437,-142.151"/>
<polygon fill="#9a32cd" stroke="#9a32cd" points="464.344,-232.211 454.84,-236.894 465.19,-239.159 464.344,-232.211"/>
<text text-anchor="middle" x="531.5" y="-235.5" font-family="Helvetica,sans-Serif" font-size="10.00"> vendor_req_callback</text>
</g>
<!-- Node3 -->
<g id="node3" class="node"><title>Node3</title>
<g id="a_node3"><a xlink:href="structusb__endpoints__t.html" target="_top" xlink:title="Obtains the endpoint group. ">
<polygon fill="white" stroke="black" points="348,-187 348,-206 436,-206 436,-187 348,-187"/>
<text text-anchor="middle" x="392" y="-194" font-family="Helvetica,sans-Serif" font-size="10.00">usb_endpoints_t</text>
</a>
</g>
</g>
<!-- Node3&#45;&gt;Node1 -->
<g id="edge2" class="edge"><title>Node3&#45;&gt;Node1</title>
<path fill="none" stroke="#9a32cd" stroke-dasharray="5,2" d="M446.342,-190.174C485.531,-184.724 539.775,-175.493 586,-161.5 602.741,-156.432 620.903,-148.401 634.088,-142.074"/>
<polygon fill="#9a32cd" stroke="#9a32cd" points="445.653,-186.736 436.213,-191.546 446.592,-193.672 445.653,-186.736"/>
<text text-anchor="middle" x="531.5" y="-188.5" font-family="Helvetica,sans-Serif" font-size="10.00"> ep_desc_data</text>
</g>
<!-- Node4 -->
<g id="node4" class="node"><title>Node4</title>
<g id="a_node4"><a xlink:href="structusb__ep__struct__t.html" target="_top" xlink:title="Obtains the endpoint data structure. ">
<polygon fill="white" stroke="black" points="177,-187 177,-206 263,-206 263,-187 177,-187"/>
<text text-anchor="middle" x="220" y="-194" font-family="Helvetica,sans-Serif" font-size="10.00">usb_ep_struct_t</text>
</a>
</g>
</g>
<!-- Node4&#45;&gt;Node3 -->
<g id="edge3" class="edge"><title>Node4&#45;&gt;Node3</title>
<path fill="none" stroke="#9a32cd" stroke-dasharray="5,2" d="M273.029,-196.5C297.037,-196.5 325.198,-196.5 347.983,-196.5"/>
<polygon fill="#9a32cd" stroke="#9a32cd" points="273.023,-193 263.022,-196.5 273.022,-200 273.023,-193"/>
<text text-anchor="middle" x="300" y="-199.5" font-family="Helvetica,sans-Serif" font-size="10.00"> ep</text>
</g>
<!-- Node5 -->
<g id="node5" class="node"><title>Node5</title>
<g id="a_node5"><a xlink:href="structusb__desc__request__notify__struct__t.html" target="_top" xlink:title="Obtains the data structure of the descriptor related callback function. The application needs to impl...">
<polygon fill="white" stroke="black" points="329.5,-137.5 329.5,-167.5 454.5,-167.5 454.5,-137.5 329.5,-137.5"/>
<text text-anchor="start" x="337.5" y="-155.5" font-family="Helvetica,sans-Serif" font-size="10.00">usb_desc_request_notify</text>
<text text-anchor="middle" x="392" y="-144.5" font-family="Helvetica,sans-Serif" font-size="10.00">_struct_t</text>
</a>
</g>
</g>
<!-- Node5&#45;&gt;Node1 -->
<g id="edge4" class="edge"><title>Node5&#45;&gt;Node1</title>
<path fill="none" stroke="#9a32cd" stroke-dasharray="5,2" d="M464.747,-146.981C509.039,-143.574 564.705,-139.292 603.981,-136.271"/>
<polygon fill="#9a32cd" stroke="#9a32cd" points="464.318,-143.504 454.616,-147.76 464.855,-150.483 464.318,-143.504"/>
<text text-anchor="middle" x="531.5" y="-149.5" font-family="Helvetica,sans-Serif" font-size="10.00"> desc_callback</text>
</g>
<!-- Node6 -->
<g id="node6" class="node"><title>Node6</title>
<g id="a_node6"><a xlink:href="structhid__endpoint__data__struct__t.html" target="_top" xlink:title="hid_endpoint_data_struct_t">
<polygon fill="white" stroke="black" points="325,-99 325,-118 459,-118 459,-99 325,-99"/>
<text text-anchor="middle" x="392" y="-106" font-family="Helvetica,sans-Serif" font-size="10.00">hid_endpoint_data_struct_t</text>
</a>
</g>
</g>
<!-- Node6&#45;&gt;Node1 -->
<g id="edge5" class="edge"><title>Node6&#45;&gt;Node1</title>
<path fill="none" stroke="#9a32cd" stroke-dasharray="5,2" d="M469.47,-113.454C504.954,-116.007 547.673,-119.44 586,-123.5 591.719,-124.106 597.703,-124.81 603.642,-125.551"/>
<polygon fill="#9a32cd" stroke="#9a32cd" points="469.407,-109.941 459.184,-112.724 468.911,-116.924 469.407,-109.941"/>
<text text-anchor="middle" x="531.5" y="-126.5" font-family="Helvetica,sans-Serif" font-size="10.00"> hid_endpoint_data</text>
</g>
<!-- Node7 -->
<g id="node7" class="node"><title>Node7</title>
<g id="a_node7"><a xlink:href="structhid__endpoint__struct__t.html" target="_top" xlink:title="hid_endpoint_struct_t">
<polygon fill="white" stroke="black" points="165,-99 165,-118 275,-118 275,-99 165,-99"/>
<text text-anchor="middle" x="220" y="-106" font-family="Helvetica,sans-Serif" font-size="10.00">hid_endpoint_struct_t</text>
</a>
</g>
</g>
<!-- Node7&#45;&gt;Node6 -->
<g id="edge6" class="edge"><title>Node7&#45;&gt;Node6</title>
<path fill="none" stroke="#9a32cd" stroke-dasharray="5,2" d="M285.411,-108.5C298.282,-108.5 311.823,-108.5 324.754,-108.5"/>
<polygon fill="#9a32cd" stroke="#9a32cd" points="285.256,-105 275.256,-108.5 285.256,-112 285.256,-105"/>
<text text-anchor="middle" x="300" y="-111.5" font-family="Helvetica,sans-Serif" font-size="10.00"> ep</text>
</g>
<!-- Node8 -->
<g id="node8" class="node"><title>Node8</title>
<g id="a_node8"><a xlink:href="structhid__queue__struct__t.html" target="_top" xlink:title="hid_queue_struct_t">
<polygon fill="white" stroke="black" points="0,-99 0,-118 99,-118 99,-99 0,-99"/>
<text text-anchor="middle" x="49.5" y="-106" font-family="Helvetica,sans-Serif" font-size="10.00">hid_queue_struct_t</text>
</a>
</g>
</g>
<!-- Node8&#45;&gt;Node7 -->
<g id="edge7" class="edge"><title>Node8&#45;&gt;Node7</title>
<path fill="none" stroke="#9a32cd" stroke-dasharray="5,2" d="M109.329,-108.5C127.342,-108.5 147.064,-108.5 164.756,-108.5"/>
<polygon fill="#9a32cd" stroke="#9a32cd" points="109.237,-105 99.2372,-108.5 109.237,-112 109.237,-105"/>
<text text-anchor="middle" x="132" y="-111.5" font-family="Helvetica,sans-Serif" font-size="10.00"> queue</text>
</g>
<!-- Node9 -->
<g id="node9" class="node"><title>Node9</title>
<g id="a_node9"><a xlink:href="structusb__class__specific__callback__struct__t.html" target="_top" xlink:title="usb_class_specific\l_callback_struct_t">
<polygon fill="white" stroke="black" points="342.5,-49.5 342.5,-79.5 441.5,-79.5 441.5,-49.5 342.5,-49.5"/>
<text text-anchor="start" x="350.5" y="-67.5" font-family="Helvetica,sans-Serif" font-size="10.00">usb_class_specific</text>
<text text-anchor="middle" x="392" y="-56.5" font-family="Helvetica,sans-Serif" font-size="10.00">_callback_struct_t</text>
</a>
</g>
</g>
<!-- Node9&#45;&gt;Node1 -->
<g id="edge8" class="edge"><title>Node9&#45;&gt;Node1</title>
<path fill="none" stroke="#9a32cd" stroke-dasharray="5,2" d="M451.593,-70.8172C490.403,-76.0434 542.062,-85.0113 586,-99.5 604.102,-105.469 623.506,-115.464 636.749,-122.893"/>
<polygon fill="#9a32cd" stroke="#9a32cd" points="451.879,-67.325 441.511,-69.5045 450.975,-74.2664 451.879,-67.325"/>
<text text-anchor="middle" x="531.5" y="-102.5" font-family="Helvetica,sans-Serif" font-size="10.00"> class_specific_callback</text>
</g>
<!-- Node10 -->
<g id="node10" class="node"><title>Node10</title>
<g id="a_node10"><a xlink:href="structusb__application__callback__struct__t.html" target="_top" xlink:title="Obtains the callback for application. ">
<polygon fill="white" stroke="black" points="329.5,-0.5 329.5,-30.5 454.5,-30.5 454.5,-0.5 329.5,-0.5"/>
<text text-anchor="start" x="337.5" y="-18.5" font-family="Helvetica,sans-Serif" font-size="10.00">usb_application_callback</text>
<text text-anchor="middle" x="392" y="-7.5" font-family="Helvetica,sans-Serif" font-size="10.00">_struct_t</text>
</a>
</g>
</g>
<!-- Node10&#45;&gt;Node1 -->
<g id="edge9" class="edge"><title>Node10&#45;&gt;Node1</title>
<path fill="none" stroke="#9a32cd" stroke-dasharray="5,2" d="M464.648,-22.0033C502.708,-27.8961 549.109,-39.1217 586,-60.5 613.479,-76.424 636.396,-107.217 646.875,-122.866"/>
<polygon fill="#9a32cd" stroke="#9a32cd" points="465.058,-18.5261 454.658,-20.5478 464.049,-25.4529 465.058,-18.5261"/>
<text text-anchor="middle" x="531.5" y="-63.5" font-family="Helvetica,sans-Serif" font-size="10.00"> hid_application_callback</text>
</g>
</g>
</svg>
