<?xml version="1.0" encoding="UTF-8" standalone="no"?>
<!DOCTYPE svg PUBLIC "-//W3C//DTD SVG 1.1//EN"
 "http://www.w3.org/Graphics/SVG/1.1/DTD/svg11.dtd">
<!-- Generated by graphviz version 2.38.0 (20140413.2041)
 -->
<!-- Title: hid_config_struct_t Pages: 1 -->
<svg width="376pt" height="186pt"
 viewBox="0.00 0.00 376.00 186.00" xmlns="http://www.w3.org/2000/svg" xmlns:xlink="http://www.w3.org/1999/xlink">
<g id="graph0" class="graph" transform="scale(1 1) rotate(0) translate(4 182)">
<title>hid_config_struct_t</title>
<polygon fill="white" stroke="none" points="-4,4 -4,-182 372,-182 372,4 -4,4"/>
<!-- Node1 -->
<g id="node1" class="node"><title>Node1</title>
<polygon fill="#bfbfbf" stroke="black" points="270,-79 270,-98 368,-98 368,-79 270,-79"/>
<text text-anchor="middle" x="319" y="-86" font-family="Helvetica,sans-Serif" font-size="10.00">hid_config_struct_t</text>
</g>
<!-- Node2 -->
<g id="node2" class="node"><title>Node2</title>
<g id="a_node2"><a xlink:href="structusb__vendor__req__callback__struct__t.html" target="_top" xlink:title="Obtains the callback for vendor reqeust. ">
<polygon fill="white" stroke="black" points="0,-147.5 0,-177.5 125,-177.5 125,-147.5 0,-147.5"/>
<text text-anchor="start" x="8" y="-165.5" font-family="Helvetica,sans-Serif" font-size="10.00">usb_vendor_req_callback</text>
<text text-anchor="middle" x="62.5" y="-154.5" font-family="Helvetica,sans-Serif" font-size="10.00">_struct_t</text>
</a>
</g>
</g>
<!-- Node2&#45;&gt;Node1 -->
<g id="edge1" class="edge"><title>Node2&#45;&gt;Node1</title>
<path fill="none" stroke="#9a32cd" stroke-dasharray="5,2" d="M134.97,-149.964C170.639,-142.763 214.143,-132.539 252,-119.5 268.877,-113.687 287.184,-104.874 300.227,-98.1278"/>
<polygon fill="#9a32cd" stroke="#9a32cd" points="134.257,-146.537 125.128,-151.914 135.618,-153.403 134.257,-146.537"/>
<text text-anchor="middle" x="197.5" y="-150.5" font-family="Helvetica,sans-Serif" font-size="10.00"> vendor_req_callback</text>
</g>
<!-- Node3 -->
<g id="node3" class="node"><title>Node3</title>
<g id="a_node3"><a xlink:href="structusb__desc__request__notify__struct__t.html" target="_top" xlink:title="Obtains the data structure of the descriptor related callback function. The application needs to impl...">
<polygon fill="white" stroke="black" points="0,-98.5 0,-128.5 125,-128.5 125,-98.5 0,-98.5"/>
<text text-anchor="start" x="8" y="-116.5" font-family="Helvetica,sans-Serif" font-size="10.00">usb_desc_request_notify</text>
<text text-anchor="middle" x="62.5" y="-105.5" font-family="Helvetica,sans-Serif" font-size="10.00">_struct_t</text>
</a>
</g>
</g>
<!-- Node3&#45;&gt;Node1 -->
<g id="edge2" class="edge"><title>Node3&#45;&gt;Node1</title>
<path fill="none" stroke="#9a32cd" stroke-dasharray="5,2" d="M135.229,-106.454C178.211,-102.232 231.707,-96.9767 269.691,-93.2455"/>
<polygon fill="#9a32cd" stroke="#9a32cd" points="134.717,-102.987 125.107,-107.448 135.402,-109.954 134.717,-102.987"/>
<text text-anchor="middle" x="197.5" y="-107.5" font-family="Helvetica,sans-Serif" font-size="10.00"> desc_callback_ptr</text>
</g>
<!-- Node4 -->
<g id="node4" class="node"><title>Node4</title>
<g id="a_node4"><a xlink:href="structusb__class__specific__callback__struct__t.html" target="_top" xlink:title="usb_class_specific\l_callback_struct_t">
<polygon fill="white" stroke="black" points="13,-49.5 13,-79.5 112,-79.5 112,-49.5 13,-49.5"/>
<text text-anchor="start" x="21" y="-67.5" font-family="Helvetica,sans-Serif" font-size="10.00">usb_class_specific</text>
<text text-anchor="middle" x="62.5" y="-56.5" font-family="Helvetica,sans-Serif" font-size="10.00">_callback_struct_t</text>
</a>
</g>
</g>
<!-- Node4&#45;&gt;Node1 -->
<g id="edge3" class="edge"><title>Node4&#45;&gt;Node1</title>
<path fill="none" stroke="#9a32cd" stroke-dasharray="5,2" d="M122.525,-68.9623C159.708,-71.9089 208.699,-76.0394 252,-80.5 257.741,-81.0914 263.757,-81.7569 269.721,-82.4451"/>
<polygon fill="#9a32cd" stroke="#9a32cd" points="122.609,-65.4582 112.366,-68.1633 122.06,-72.4366 122.609,-65.4582"/>
<text text-anchor="middle" x="197.5" y="-83.5" font-family="Helvetica,sans-Serif" font-size="10.00"> class_specific_callback</text>
</g>
<!-- Node5 -->
<g id="node5" class="node"><title>Node5</title>
<g id="a_node5"><a xlink:href="structusb__application__callback__struct__t.html" target="_top" xlink:title="Obtains the callback for application. ">
<polygon fill="white" stroke="black" points="0,-0.5 0,-30.5 125,-30.5 125,-0.5 0,-0.5"/>
<text text-anchor="start" x="8" y="-18.5" font-family="Helvetica,sans-Serif" font-size="10.00">usb_application_callback</text>
<text text-anchor="middle" x="62.5" y="-7.5" font-family="Helvetica,sans-Serif" font-size="10.00">_struct_t</text>
</a>
</g>
</g>
<!-- Node5&#45;&gt;Node1 -->
<g id="edge4" class="edge"><title>Node5&#45;&gt;Node1</title>
<path fill="none" stroke="#9a32cd" stroke-dasharray="5,2" d="M135.13,-26.2697C170.839,-32.7469 214.33,-42.3283 252,-55.5 269.656,-61.6735 288.64,-71.5388 301.694,-78.877"/>
<polygon fill="#9a32cd" stroke="#9a32cd" points="135.733,-22.8221 125.276,-24.5247 134.513,-29.7148 135.733,-22.8221"/>
<text text-anchor="middle" x="197.5" y="-58.5" font-family="Helvetica,sans-Serif" font-size="10.00"> hid_application_callback</text>
</g>
</g>
</svg>
